<ttFont>
<head>
    <!-- Most of this table will be recalculated by the compiler -->
    <tableVersion value="1.0"/>
    <fontRevision value="3.0"/>
    <checkSumAdjustment value="0x3d50ed82"/>
    <magicNumber value="0x5f0f3cf5"/>
    <flags value="00000000 00001011"/>
    <unitsPerEm value="2048"/>
    <created value="Tue Jul 02 06:01:26 2013"/>
    <modified value="Tue Jul 02 06:02:22 2013"/>
    <xMin value="-196"/>
    <yMin value="-548"/>
    <xMax value="4009"/>
    <yMax value="2198"/>
    <macStyle value="00000000 00000000"/>
    <lowestRecPPEM value="8"/>
    <fontDirectionHint value="2"/>
    <indexToLocFormat value="0"/>
    <glyphDataFormat value="0"/>
  </head>
    <TTGlyph name=".notdef" xMin="68" yMin="0" xMax="612" yMax="1365">
      <contour>
        <pt x="136" y="68" on="1"/>
        <pt x="544" y="68" on="1"/>
        <pt x="544" y="1297" on="1"/>
        <pt x="136" y="1297" on="1"/>
      </contour>
      <contour>
        <pt x="68" y="0" on="1"/>
        <pt x="68" y="1365" on="1"/>
        <pt x="612" y="1365" on="1"/>
        <pt x="612" y="0" on="1"/>
      </contour>
    </TTGlyph>
    <TTGlyph name="A" xMin="56" yMin="0" xMax="922" yMax="1658">
      <contour>
        <pt x="56" y="0" on="1"/>
        <pt x="406" y="1658" on="1"/>
        <pt x="570" y="1658" on="1"/>
        <pt x="922" y="0" on="1"/>
        <pt x="769" y="0" on="1"/>
        <pt x="687" y="443" on="1"/>
        <pt x="291" y="443" on="1"/>
        <pt x="207" y="0" on="1"/>
      </contour>
      <contour>
        <pt x="313" y="557" on="1"/>
        <pt x="666" y="557" on="1"/>
        <pt x="489" y="1451" on="1"/>
      </contour>
    </TTGlyph>
    <TTGlyph name="AE" xMin="-17" yMin="0" xMax="1270" yMax="1658">
      <contour>
        <pt x="-17" y="0" on="1"/>
        <pt x="648" y="1658" on="1"/>
        <pt x="1270" y="1658" on="1"/>
        <pt x="1270" y="1535" on="1"/>
        <pt x="826" y="1535" on="1"/>
        <pt x="826" y="923" on="1"/>
        <pt x="1143" y="923" on="1"/>
        <pt x="1143" y="805" on="1"/>
        <pt x="826" y="805" on="1"/>
        <pt x="826" y="123" on="1"/>
        <pt x="1270" y="123" on="1"/>
        <pt x="1270" y="0" on="1"/>
        <pt x="670" y="0" on="1"/>
        <pt x="670" y="444" on="1"/>
        <pt x="321" y="444" on="1"/>
        <pt x="148" y="0" on="1"/>
      </contour>
      <contour>
        <pt x="365" y="562" on="1"/>
        <pt x="669" y="562" on="1"/>
        <pt x="669" y="1396" on="1"/>
      </contour>
    </TTGlyph>
    <TTGlyph name="Aacute" xMin="56" yMin="0" xMax="922" yMax="2198">
      <component glyphName="acutecomb" x="442" y="540" flags="0x1004"/>
      <component glyphName="A" x="0" y="0" flags="0x1204"/>
    </TTGlyph>
    <TTGlyph name="Abreve" xMin="56" yMin="0" xMax="922" yMax="2054">
      <component glyphName="uni0306" x="123" y="396" flags="0x1004"/>
      <component glyphName="A" x="0" y="0" flags="0x1204"/>
    </TTGlyph>
    <TTGlyph name="Acircumflex" xMin="56" yMin="0" xMax="922" yMax="2161">
      <component glyphName="uni0302" x="154" y="503" flags="0x1004"/>
      <component glyphName="A" x="0" y="0" flags="0x1204"/>
    </TTGlyph>
    <TTGlyph name="Adieresis" xMin="56" yMin="0" xMax="922" yMax="1979">
      <component glyphName="uni0308" x="282" y="321" flags="0x1004"/>
      <component glyphName="A" x="0" y="0" flags="0x1204"/>
    </TTGlyph>
    <TTGlyph name="Agrave" xMin="56" yMin="0" xMax="922" yMax="2198">
      <component glyphName="gravecomb" x="356" y="540" flags="0x1004"/>
      <component glyphName="A" x="0" y="0" flags="0x1204"/>
    </TTGlyph>
    <TTGlyph name="Amacron" xMin="56" yMin="0" xMax="922" yMax="1894">
      <component glyphName="uni0304" x="128" y="236" flags="0x1004"/>
      <component glyphName="A" x="0" y="0" flags="0x1204"/>
    </TTGlyph>
    <TTGlyph name="Aogonek" xMin="56" yMin="-429" xMax="922" yMax="1658">
      <component glyphName="ogonek" x="560" y="0" flags="0x1004"/>
      <component glyphName="A" x="0" y="0" flags="0x1204"/>
    </TTGlyph>
    <TTGlyph name="Aring" xMin="56" yMin="0" xMax="922" yMax="2052">
      <component glyphName="uni030A" x="194" y="374" flags="0x1004"/>
      <component glyphName="A" x="0" y="0" flags="0x1204"/>
    </TTGlyph>
    <TTGlyph name="Atilde" xMin="56" yMin="0" xMax="922" yMax="1994">
      <component glyphName="tildecomb" x="96" y="328" flags="0x1004"/>
      <component glyphName="A" x="0" y="0" flags="0x1204"/>
    </TTGlyph>
    <TTGlyph name="B" xMin="144" yMin="0" xMax="946" yMax="1658">
      <contour>
        <pt x="144" y="0" on="1"/>
        <pt x="144" y="1658" on="1"/>
        <pt x="500" y="1658" on="1"/>
        <pt x="717" y="1658" on="0"/>
        <pt x="907" y="1444" on="0"/>
        <pt x="907" y="1245" on="1"/>
        <pt x="907" y="1159" on="0"/>
        <pt x="871" y="1020" on="0"/>
        <pt x="773" y="910" on="0"/>
        <pt x="696" y="894" on="1"/>
        <pt x="766" y="875" on="0"/>
        <pt x="867" y="791" on="0"/>
        <pt x="922" y="676" on="0"/>
        <pt x="946" y="552" on="0"/>
        <pt x="946" y="480" on="1"/>
        <pt x="946" y="396" on="0"/>
        <pt x="925" y="260" on="0"/>
        <pt x="871" y="135" on="0"/>
        <pt x="784" y="50" on="0"/>
        <pt x="646" y="0" on="0"/>
        <pt x="555" y="0" on="1"/>
      </contour>
      <contour>
        <pt x="301" y="117" on="1"/>
        <pt x="526" y="117" on="1"/>
        <pt x="681" y="117" on="0"/>
        <pt x="795" y="285" on="0"/>
        <pt x="795" y="479" on="1"/>
        <pt x="795" y="823" on="0"/>
        <pt x="528" y="823" on="1"/>
        <pt x="301" y="823" on="1"/>
      </contour>
      <contour>
        <pt x="301" y="944" on="1"/>
        <pt x="527" y="944" on="1"/>
        <pt x="660" y="944" on="0"/>
        <pt x="766" y="1098" on="0"/>
        <pt x="766" y="1245" on="1"/>
        <pt x="766" y="1402" on="0"/>
        <pt x="631" y="1538" on="0"/>
        <pt x="450" y="1538" on="1"/>
        <pt x="301" y="1538" on="1"/>
      </contour>
    </TTGlyph>
    <TTGlyph name="C" xMin="111" yMin="-21" xMax="924" yMax="1676">
      <contour>
        <pt x="531" y="-21" on="1"/>
        <pt x="433" y="-21" on="0"/>
        <pt x="284" y="33" on="0"/>
        <pt x="191" y="123" on="0"/>
        <pt x="133" y="259" on="0"/>
        <pt x="111" y="407" on="0"/>
        <pt x="111" y="499" on="1"/>
        <pt x="111" y="1158" on="1"/>
        <pt x="111" y="1254" on="0"/>
        <pt x="134" y="1405" on="0"/>
        <pt x="193" y="1538" on="0"/>
        <pt x="287" y="1626" on="0"/>
        <pt x="434" y="1676" on="0"/>
        <pt x="531" y="1676" on="1"/>
        <pt x="640" y="1676" on="0"/>
        <pt x="794" y="1611" on="0"/>
        <pt x="884" y="1485" on="0"/>
        <pt x="924" y="1317" on="0"/>
        <pt x="924" y="1205" on="1"/>
        <pt x="924" y="1103" on="1"/>
        <pt x="776" y="1103" on="1"/>
        <pt x="776" y="1200" on="1"/>
        <pt x="776" y="1288" on="0"/>
        <pt x="758" y="1406" on="0"/>
        <pt x="707" y="1505" on="0"/>
        <pt x="608" y="1552" on="0"/>
        <pt x="532" y="1552" on="1"/>
        <pt x="450" y="1552" on="0"/>
        <pt x="343" y="1500" on="0"/>
        <pt x="289" y="1394" on="0"/>
        <pt x="269" y="1269" on="0"/>
        <pt x="269" y="1178" on="1"/>
        <pt x="269" y="474" on="1"/>
        <pt x="269" y="281" on="0"/>
        <pt x="384" y="105" on="0"/>
        <pt x="532" y="105" on="1"/>
        <pt x="593" y="105" on="0"/>
        <pt x="681" y="140" on="0"/>
        <pt x="734" y="198" on="0"/>
        <pt x="765" y="293" on="0"/>
        <pt x="776" y="394" on="0"/>
        <pt x="776" y="464" on="1"/>
        <pt x="776" y="572" on="1"/>
        <pt x="924" y="572" on="1"/>
        <pt x="924" y="475" on="1"/>
        <pt x="924" y="384" on="0"/>
        <pt x="902" y="239" on="0"/>
        <pt x="847" y="111" on="0"/>
        <pt x="759" y="27" on="0"/>
        <pt x="622" y="-21" on="0"/>
      </contour>
    </TTGlyph>
    <TTGlyph name="Cacute" xMin="111" yMin="-21" xMax="924" yMax="2198">
      <component glyphName="acutecomb" x="470" y="540" flags="0x1004"/>
      <component glyphName="C" x="0" y="0" flags="0x1204"/>
    </TTGlyph>
    <TTGlyph name="Ccaron" xMin="111" yMin="-21" xMax="924" yMax="2137">
      <component glyphName="uni030C" x="472" y="479" flags="0x1004"/>
      <component glyphName="C" x="0" y="0" flags="0x1204"/>
    </TTGlyph>
    <TTGlyph name="Ccedilla" xMin="111" yMin="-419" xMax="924" yMax="1676">
      <component glyphName="cedilla" x="360" y="0" flags="0x1004"/>
      <component glyphName="C" x="0" y="0" flags="0x1204"/>
    </TTGlyph>
    <TTGlyph name="Ccircumflex" xMin="111" yMin="-21" xMax="924" yMax="2161">
      <component glyphName="uni0302" x="183" y="503" flags="0x1004"/>
      <component glyphName="C" x="0" y="0" flags="0x1204"/>
    </TTGlyph>
    <TTGlyph name="Cdotaccent" xMin="111" yMin="-21" xMax="924" yMax="2022">
      <component glyphName="uni0307" x="495" y="364" flags="0x1004"/>
      <component glyphName="C" x="0" y="0" flags="0x1204"/>
    </TTGlyph>
    <TTGlyph name="D" xMin="144" yMin="0" xMax="956" yMax="1658">
      <contour>
        <pt x="301" y="117" on="1"/>
        <pt x="510" y="117" on="1"/>
        <pt x="587" y="117" on="0"/>
        <pt x="694" y="160" on="0"/>
        <pt x="755" y="227" on="0"/>
        <pt x="789" y="343" on="0"/>
        <pt x="798" y="454" on="0"/>
        <pt x="798" y="536" on="1"/>
        <pt x="798" y="1155" on="1"/>
        <pt x="798" y="1235" on="0"/>
        <pt x="785" y="1347" on="0"/>
        <pt x="748" y="1446" on="0"/>
        <pt x="683" y="1505" on="0"/>
        <pt x="578" y="1538" on="0"/>
        <pt x="505" y="1538" on="1"/>
        <pt x="301" y="1538" on="1"/>
      </contour>
      <contour>
        <pt x="144" y="0" on="1"/>
        <pt x="144" y="1658" on="1"/>
        <pt x="507" y="1658" on="1"/>
        <pt x="608" y="1658" on="0"/>
        <pt x="763" y="1612" on="0"/>
        <pt x="865" y="1530" on="0"/>
        <pt x="929" y="1406" on="0"/>
        <pt x="956" y="1262" on="0"/>
        <pt x="956" y="1171" on="1"/>
        <pt x="956" y="512" on="1"/>
        <pt x="956" y="391" on="0"/>
        <pt x="912" y="209" on="0"/>
        <pt x="812" y="71" on="0"/>
        <pt x="641" y="0" on="0"/>
        <pt x="519" y="0" on="1"/>
      </contour>
    </TTGlyph>
    <TTGlyph name="Dcaron" xMin="144" yMin="0" xMax="956" yMax="2137">
      <component glyphName="uni030C" x="504" y="479" flags="0x1004"/>
      <component glyphName="D" x="0" y="0" flags="0x1204"/>
    </TTGlyph>
    <TTGlyph name="Dcroat" xMin="25" yMin="0" xMax="958" yMax="1658">
      <contour>
        <pt x="304" y="117" on="1"/>
        <pt x="512" y="117" on="1"/>
        <pt x="589" y="117" on="0"/>
        <pt x="696" y="160" on="0"/>
        <pt x="757" y="227" on="0"/>
        <pt x="791" y="343" on="0"/>
        <pt x="800" y="454" on="0"/>
        <pt x="800" y="536" on="1"/>
        <pt x="800" y="1155" on="1"/>
        <pt x="800" y="1235" on="0"/>
        <pt x="787" y="1347" on="0"/>
        <pt x="750" y="1446" on="0"/>
        <pt x="685" y="1505" on="0"/>
        <pt x="581" y="1538" on="0"/>
        <pt x="507" y="1538" on="1"/>
        <pt x="304" y="1538" on="1"/>
        <pt x="304" y="917" on="1"/>
        <pt x="470" y="917" on="1"/>
        <pt x="470" y="821" on="1"/>
        <pt x="304" y="821" on="1"/>
      </contour>
      <contour>
        <pt x="147" y="0" on="1"/>
        <pt x="147" y="821" on="1"/>
        <pt x="25" y="821" on="1"/>
        <pt x="25" y="917" on="1"/>
        <pt x="147" y="917" on="1"/>
        <pt x="147" y="1658" on="1"/>
        <pt x="510" y="1658" on="1"/>
        <pt x="636" y="1658" on="0"/>
        <pt x="813" y="1590" on="0"/>
        <pt x="914" y="1457" on="0"/>
        <pt x="958" y="1285" on="0"/>
        <pt x="958" y="1171" on="1"/>
        <pt x="958" y="512" on="1"/>
        <pt x="958" y="391" on="0"/>
        <pt x="914" y="209" on="0"/>
        <pt x="815" y="71" on="0"/>
        <pt x="643" y="0" on="0"/>
        <pt x="522" y="0" on="1"/>
      </contour>
    </TTGlyph>
    <TTGlyph name="E" xMin="144" yMin="0" xMax="748" yMax="1658">
      <contour>
        <pt x="144" y="0" on="1"/>
        <pt x="144" y="1658" on="1"/>
        <pt x="743" y="1658" on="1"/>
        <pt x="743" y="1538" on="1"/>
        <pt x="301" y="1538" on="1"/>
        <pt x="301" y="917" on="1"/>
        <pt x="663" y="917" on="1"/>
        <pt x="663" y="801" on="1"/>
        <pt x="301" y="801" on="1"/>
        <pt x="301" y="117" on="1"/>
        <pt x="748" y="117" on="1"/>
        <pt x="748" y="0" on="1"/>
      </contour>
    </TTGlyph>
    <TTGlyph name="Eacute" xMin="144" yMin="0" xMax="748" yMax="2198">
      <component glyphName="acutecomb" x="398" y="540" flags="0x1004"/>
      <component glyphName="E" x="0" y="0" flags="0x1204"/>
    </TTGlyph>
    <TTGlyph name="Ebreve" xMin="144" yMin="0" xMax="748" yMax="2054">
      <component glyphName="uni0306" x="80" y="396" flags="0x1004"/>
      <component glyphName="E" x="0" y="0" flags="0x1204"/>
    </TTGlyph>
    <TTGlyph name="Ecaron" xMin="144" yMin="0" xMax="748" yMax="2137">
      <component glyphName="uni030C" x="400" y="479" flags="0x1004"/>
      <component glyphName="E" x="0" y="0" flags="0x1204"/>
    </TTGlyph>
    <TTGlyph name="Ecircumflex" xMin="144" yMin="0" xMax="748" yMax="2161">
      <component glyphName="uni0302" x="112" y="503" flags="0x1004"/>
      <component glyphName="E" x="0" y="0" flags="0x1204"/>
    </TTGlyph>
    <TTGlyph name="Edieresis" xMin="144" yMin="0" xMax="748" yMax="1979">
      <component glyphName="uni0308" x="239" y="321" flags="0x1004"/>
      <component glyphName="E" x="0" y="0" flags="0x1204"/>
    </TTGlyph>
    <TTGlyph name="Edotaccent" xMin="144" yMin="0" xMax="748" yMax="2022">
      <component glyphName="uni0307" x="424" y="364" flags="0x1004"/>
      <component glyphName="E" x="0" y="0" flags="0x1204"/>
    </TTGlyph>
    <TTGlyph name="Egrave" xMin="144" yMin="0" xMax="748" yMax="2198">
      <component glyphName="gravecomb" x="314" y="540" flags="0x1004"/>
      <component glyphName="E" x="0" y="0" flags="0x1204"/>
    </TTGlyph>
    <TTGlyph name="Emacron" xMin="144" yMin="0" xMax="748" yMax="1894">
      <component glyphName="uni0304" x="84" y="236" flags="0x1004"/>
      <component glyphName="E" x="0" y="0" flags="0x1204"/>
    </TTGlyph>
    <TTGlyph name="Eng" xMin="144" yMin="-321" xMax="921" yMax="1658">
      <contour>
        <pt x="571" y="-321" on="1"/>
        <pt x="571" y="-213" on="1"/>
        <pt x="578" y="-213" on="0"/>
        <pt x="584" y="-213" on="1"/>
        <pt x="647" y="-212" on="0"/>
        <pt x="686" y="-204" on="1"/>
        <pt x="729" y="-194" on="0"/>
        <pt x="776" y="-143" on="0"/>
        <pt x="791" y="-72" on="0"/>
        <pt x="791" y="-11" on="1"/>
        <pt x="791" y="49" on="1"/>
        <pt x="273" y="1302" on="1"/>
        <pt x="273" y="0" on="1"/>
        <pt x="144" y="0" on="1"/>
        <pt x="144" y="1658" on="1"/>
        <pt x="259" y="1658" on="1"/>
        <pt x="794" y="371" on="1"/>
        <pt x="794" y="1658" on="1"/>
        <pt x="921" y="1658" on="1"/>
        <pt x="921" y="0" on="1"/>
        <pt x="921" y="-83" on="0"/>
        <pt x="897" y="-196" on="0"/>
        <pt x="835" y="-281" on="0"/>
        <pt x="723" y="-321" on="0"/>
        <pt x="639" y="-321" on="1"/>
      </contour>
    </TTGlyph>
    <TTGlyph name="Eogonek" xMin="144" yMin="-429" xMax="748" yMax="1658">
      <component glyphName="ogonek" x="240" y="0" flags="0x1004"/>
      <component glyphName="E" x="0" y="0" flags="0x1204"/>
    </TTGlyph>
    <TTGlyph name="Eth" xMin="34" yMin="0" xMax="967" yMax="1658">
      <contour>
        <pt x="312" y="117" on="1"/>
        <pt x="521" y="117" on="1"/>
        <pt x="598" y="117" on="0"/>
        <pt x="705" y="160" on="0"/>
        <pt x="766" y="227" on="0"/>
        <pt x="800" y="343" on="0"/>
        <pt x="809" y="454" on="0"/>
        <pt x="809" y="536" on="1"/>
        <pt x="809" y="1155" on="1"/>
        <pt x="809" y="1235" on="0"/>
        <pt x="796" y="1347" on="0"/>
        <pt x="759" y="1446" on="0"/>
        <pt x="694" y="1505" on="0"/>
        <pt x="589" y="1538" on="0"/>
        <pt x="516" y="1538" on="1"/>
        <pt x="312" y="1538" on="1"/>
        <pt x="312" y="917" on="1"/>
        <pt x="478" y="917" on="1"/>
        <pt x="478" y="821" on="1"/>
        <pt x="312" y="821" on="1"/>
      </contour>
      <contour>
        <pt x="155" y="0" on="1"/>
        <pt x="155" y="821" on="1"/>
        <pt x="34" y="821" on="1"/>
        <pt x="34" y="917" on="1"/>
        <pt x="155" y="917" on="1"/>
        <pt x="155" y="1658" on="1"/>
        <pt x="518" y="1658" on="1"/>
        <pt x="619" y="1658" on="0"/>
        <pt x="774" y="1612" on="0"/>
        <pt x="876" y="1530" on="0"/>
        <pt x="940" y="1406" on="0"/>
        <pt x="967" y="1262" on="0"/>
        <pt x="967" y="1171" on="1"/>
        <pt x="967" y="512" on="1"/>
        <pt x="967" y="391" on="0"/>
        <pt x="923" y="209" on="0"/>
        <pt x="823" y="71" on="0"/>
        <pt x="652" y="0" on="0"/>
        <pt x="530" y="0" on="1"/>
      </contour>
    </TTGlyph>
    <TTGlyph name="Euro" xMin="-20" yMin="-21" xMax="924" yMax="1676">
      <contour>
        <pt x="531" y="-21" on="1"/>
        <pt x="433" y="-21" on="0"/>
        <pt x="284" y="33" on="0"/>
        <pt x="191" y="123" on="0"/>
        <pt x="133" y="259" on="0"/>
        <pt x="111" y="407" on="0"/>
        <pt x="111" y="499" on="1"/>
        <pt x="111" y="628" on="1"/>
        <pt x="-20" y="628" on="1"/>
        <pt x="-20" y="714" on="1"/>
        <pt x="111" y="714" on="1"/>
        <pt x="111" y="981" on="1"/>
        <pt x="-20" y="981" on="1"/>
        <pt x="-20" y="1068" on="1"/>
        <pt x="111" y="1068" on="1"/>
        <pt x="111" y="1158" on="1"/>
        <pt x="111" y="1254" on="0"/>
        <pt x="134" y="1405" on="0"/>
        <pt x="193" y="1538" on="0"/>
        <pt x="287" y="1626" on="0"/>
        <pt x="434" y="1676" on="0"/>
        <pt x="531" y="1676" on="1"/>
        <pt x="640" y="1676" on="0"/>
        <pt x="794" y="1611" on="0"/>
        <pt x="884" y="1485" on="0"/>
        <pt x="924" y="1317" on="0"/>
        <pt x="924" y="1205" on="1"/>
        <pt x="924" y="1128" on="1"/>
        <pt x="776" y="1128" on="1"/>
        <pt x="776" y="1200" on="1"/>
        <pt x="776" y="1288" on="0"/>
        <pt x="758" y="1406" on="0"/>
        <pt x="707" y="1505" on="0"/>
        <pt x="608" y="1552" on="0"/>
        <pt x="532" y="1552" on="1"/>
        <pt x="450" y="1552" on="0"/>
        <pt x="343" y="1500" on="0"/>
        <pt x="289" y="1394" on="0"/>
        <pt x="269" y="1269" on="0"/>
        <pt x="269" y="1178" on="1"/>
        <pt x="269" y="1068" on="1"/>
        <pt x="529" y="1068" on="1"/>
        <pt x="529" y="981" on="1"/>
        <pt x="269" y="981" on="1"/>
        <pt x="269" y="714" on="1"/>
        <pt x="529" y="714" on="1"/>
        <pt x="529" y="628" on="1"/>
        <pt x="269" y="628" on="1"/>
        <pt x="269" y="474" on="1"/>
        <pt x="269" y="281" on="0"/>
        <pt x="384" y="105" on="0"/>
        <pt x="532" y="105" on="1"/>
        <pt x="593" y="105" on="0"/>
        <pt x="681" y="140" on="0"/>
        <pt x="734" y="198" on="0"/>
        <pt x="765" y="293" on="0"/>
        <pt x="776" y="394" on="0"/>
        <pt x="776" y="464" on="1"/>
        <pt x="776" y="547" on="1"/>
        <pt x="924" y="547" on="1"/>
        <pt x="924" y="475" on="1"/>
        <pt x="924" y="384" on="0"/>
        <pt x="902" y="239" on="0"/>
        <pt x="847" y="111" on="0"/>
        <pt x="759" y="27" on="0"/>
        <pt x="622" y="-21" on="0"/>
      </contour>
    </TTGlyph>
    <TTGlyph name="F" xMin="144" yMin="0" xMax="742" yMax="1658">
      <contour>
        <pt x="144" y="0" on="1"/>
        <pt x="144" y="1658" on="1"/>
        <pt x="742" y="1658" on="1"/>
        <pt x="742" y="1541" on="1"/>
        <pt x="301" y="1541" on="1"/>
        <pt x="301" y="918" on="1"/>
        <pt x="668" y="918" on="1"/>
        <pt x="668" y="802" on="1"/>
        <pt x="301" y="802" on="1"/>
        <pt x="301" y="0" on="1"/>
      </contour>
    </TTGlyph>
    <TTGlyph name="G" xMin="111" yMin="-22" xMax="938" yMax="1676">
      <contour>
        <pt x="520" y="-22" on="1"/>
        <pt x="405" y="-22" on="0"/>
        <pt x="243" y="52" on="0"/>
        <pt x="151" y="195" on="0"/>
        <pt x="111" y="381" on="0"/>
        <pt x="111" y="505" on="1"/>
        <pt x="111" y="1153" on="1"/>
        <pt x="111" y="1279" on="0"/>
        <pt x="150" y="1462" on="0"/>
        <pt x="242" y="1604" on="0"/>
        <pt x="409" y="1676" on="0"/>
        <pt x="530" y="1676" on="1"/>
        <pt x="745" y="1676" on="0"/>
        <pt x="931" y="1437" on="0"/>
        <pt x="931" y="1199" on="1"/>
        <pt x="931" y="1140" on="1"/>
        <pt x="784" y="1140" on="1"/>
        <pt x="784" y="1199" on="1"/>
        <pt x="784" y="1385" on="0"/>
        <pt x="678" y="1552" on="0"/>
        <pt x="532" y="1552" on="1"/>
        <pt x="465" y="1552" on="0"/>
        <pt x="369" y="1513" on="0"/>
        <pt x="312" y="1450" on="0"/>
        <pt x="279" y="1347" on="0"/>
        <pt x="268" y="1241" on="0"/>
        <pt x="268" y="1168" on="1"/>
        <pt x="268" y="487" on="1"/>
        <pt x="268" y="391" on="0"/>
        <pt x="291" y="258" on="0"/>
        <pt x="349" y="155" on="0"/>
        <pt x="456" y="105" on="0"/>
        <pt x="535" y="105" on="1"/>
        <pt x="681" y="105" on="0"/>
        <pt x="794" y="295" on="0"/>
        <pt x="794" y="491" on="1"/>
        <pt x="794" y="687" on="1"/>
        <pt x="550" y="687" on="1"/>
        <pt x="550" y="802" on="1"/>
        <pt x="938" y="802" on="1"/>
        <pt x="938" y="0" on="1"/>
        <pt x="838" y="0" on="1"/>
        <pt x="819" y="188" on="1"/>
        <pt x="750" y="-22" on="0"/>
      </contour>
    </TTGlyph>
    <TTGlyph name="Gbreve" xMin="111" yMin="-22" xMax="938" yMax="2054">
      <component glyphName="uni0306" x="158" y="396" flags="0x1004"/>
      <component glyphName="G" x="0" y="0" flags="0x1204"/>
    </TTGlyph>
    <TTGlyph name="Gcircumflex" xMin="111" yMin="-22" xMax="938" yMax="2161">
      <component glyphName="uni0302" x="190" y="503" flags="0x1004"/>
      <component glyphName="G" x="0" y="0" flags="0x1204"/>
    </TTGlyph>
    <TTGlyph name="Gcommaaccent" xMin="111" yMin="-548" xMax="938" yMax="1676">
      <component glyphName="uni0326" x="327" y="-63" flags="0x1004"/>
      <component glyphName="G" x="0" y="0" flags="0x1204"/>
    </TTGlyph>
    <TTGlyph name="Gdotaccent" xMin="111" yMin="-22" xMax="938" yMax="2022">
      <component glyphName="uni0307" x="502" y="364" flags="0x1004"/>
      <component glyphName="G" x="0" y="0" flags="0x1204"/>
    </TTGlyph>
    <TTGlyph name="H" xMin="144" yMin="0" xMax="980" yMax="1658">
      <contour>
        <pt x="144" y="0" on="1"/>
        <pt x="144" y="1658" on="1"/>
        <pt x="301" y="1658" on="1"/>
        <pt x="301" y="923" on="1"/>
        <pt x="823" y="923" on="1"/>
        <pt x="823" y="1658" on="1"/>
        <pt x="980" y="1658" on="1"/>
        <pt x="980" y="0" on="1"/>
        <pt x="823" y="0" on="1"/>
        <pt x="823" y="808" on="1"/>
        <pt x="301" y="808" on="1"/>
        <pt x="301" y="0" on="1"/>
      </contour>
    </TTGlyph>
    <TTGlyph name="Hbar" xMin="60" yMin="0" xMax="1065" yMax="1658">
      <contour>
        <pt x="144" y="0" on="1"/>
        <pt x="144" y="1295" on="1"/>
        <pt x="60" y="1295" on="1"/>
        <pt x="60" y="1381" on="1"/>
        <pt x="144" y="1381" on="1"/>
        <pt x="144" y="1658" on="1"/>
        <pt x="301" y="1658" on="1"/>
        <pt x="301" y="1381" on="1"/>
        <pt x="823" y="1381" on="1"/>
        <pt x="823" y="1658" on="1"/>
        <pt x="980" y="1658" on="1"/>
        <pt x="980" y="1381" on="1"/>
        <pt x="1065" y="1381" on="1"/>
        <pt x="1065" y="1295" on="1"/>
        <pt x="980" y="1295" on="1"/>
        <pt x="980" y="0" on="1"/>
        <pt x="823" y="0" on="1"/>
        <pt x="823" y="808" on="1"/>
        <pt x="301" y="808" on="1"/>
        <pt x="301" y="0" on="1"/>
      </contour>
      <contour>
        <pt x="301" y="923" on="1"/>
        <pt x="823" y="923" on="1"/>
        <pt x="823" y="1295" on="1"/>
        <pt x="301" y="1295" on="1"/>
      </contour>
    </TTGlyph>
    <TTGlyph name="Hcircumflex" xMin="144" yMin="0" xMax="980" yMax="2161">
      <component glyphName="uni0302" x="228" y="503" flags="0x1004"/>
      <component glyphName="H" x="0" y="0" flags="0x1204"/>
    </TTGlyph>
    <TTGlyph name="I" xMin="151" yMin="0" xMax="305" yMax="1658">
      <contour>
        <pt x="151" y="0" on="1"/>
        <pt x="151" y="1658" on="1"/>
        <pt x="305" y="1658" on="1"/>
        <pt x="305" y="0" on="1"/>
      </contour>
    </TTGlyph>
    <TTGlyph name="Iacute" xMin="151" yMin="0" xMax="467" yMax="2198">
      <component glyphName="acutecomb" x="180" y="540" flags="0x1004"/>
      <component glyphName="I" x="0" y="0" flags="0x1204"/>
    </TTGlyph>
    <TTGlyph name="Ibreve" xMin="-29" yMin="0" xMax="485" yMax="2054">
      <component glyphName="uni0306" x="-138" y="396" flags="0x1004"/>
      <component glyphName="I" x="0" y="0" flags="0x1204"/>
    </TTGlyph>
    <TTGlyph name="Icircumflex" xMin="-31" yMin="0" xMax="488" yMax="2161">
      <component glyphName="uni0302" x="-106" y="503" flags="0x1004"/>
      <component glyphName="I" x="0" y="0" flags="0x1204"/>
    </TTGlyph>
    <TTGlyph name="Idieresis" xMin="-17" yMin="0" xMax="473" yMax="1979">
      <component glyphName="uni0308" x="21" y="321" flags="0x1004"/>
      <component glyphName="I" x="0" y="0" flags="0x1204"/>
    </TTGlyph>
    <TTGlyph name="Idotaccent" xMin="149" yMin="0" xMax="308" yMax="2022">
      <component glyphName="uni0307" x="206" y="364" flags="0x1004"/>
      <component glyphName="I" x="0" y="0" flags="0x1204"/>
    </TTGlyph>
    <TTGlyph name="Igrave" xMin="1" yMin="0" xMax="305" yMax="2198">
      <component glyphName="gravecomb" x="96" y="540" flags="0x1004"/>
      <component glyphName="I" x="0" y="0" flags="0x1204"/>
    </TTGlyph>
    <TTGlyph name="Imacron" xMin="44" yMin="0" xMax="411" yMax="1894">
      <component glyphName="uni0304" x="-134" y="236" flags="0x1004"/>
      <component glyphName="I" x="0" y="0" flags="0x1204"/>
    </TTGlyph>
    <TTGlyph name="Iogonek" xMin="-12" yMin="-429" xMax="305" yMax="1658">
      <component glyphName="ogonek" x="-51" y="0" flags="0x1004"/>
      <component glyphName="I" x="0" y="0" flags="0x1204"/>
    </TTGlyph>
    <TTGlyph name="Itilde" xMin="-39" yMin="0" xMax="495" yMax="1994">
      <component glyphName="tildecomb" x="-165" y="328" flags="0x1004"/>
      <component glyphName="I" x="0" y="0" flags="0x1204"/>
    </TTGlyph>
    <TTGlyph name="J" xMin="16" yMin="-73" xMax="426" yMax="1658">
      <contour>
        <pt x="16" y="-73" on="1"/>
        <pt x="16" y="45" on="1"/>
        <pt x="75" y="45" on="0"/>
        <pt x="152" y="53" on="0"/>
        <pt x="212" y="80" on="0"/>
        <pt x="244" y="116" on="0"/>
        <pt x="264" y="187" on="0"/>
        <pt x="269" y="268" on="0"/>
        <pt x="269" y="334" on="1"/>
        <pt x="269" y="1658" on="1"/>
        <pt x="426" y="1658" on="1"/>
        <pt x="426" y="324" on="1"/>
        <pt x="426" y="237" on="0"/>
        <pt x="410" y="119" on="0"/>
        <pt x="369" y="17" on="0"/>
        <pt x="295" y="-41" on="0"/>
        <pt x="177" y="-73" on="0"/>
        <pt x="93" y="-73" on="1"/>
      </contour>
    </TTGlyph>
    <TTGlyph name="Jcircumflex" xMin="16" yMin="-73" xMax="604" yMax="2091">
      <component glyphName="uni0302" x="10" y="433" flags="0x1004"/>
      <component glyphName="J" x="0" y="0" flags="0x1204"/>
    </TTGlyph>
    <TTGlyph name="K" xMin="144" yMin="0" xMax="967" yMax="1658">
      <contour>
        <pt x="144" y="0" on="1"/>
        <pt x="144" y="1658" on="1"/>
        <pt x="301" y="1658" on="1"/>
        <pt x="301" y="784" on="1"/>
        <pt x="744" y="1658" on="1"/>
        <pt x="894" y="1658" on="1"/>
        <pt x="551" y="946" on="1"/>
        <pt x="967" y="0" on="1"/>
        <pt x="812" y="0" on="1"/>
        <pt x="435" y="864" on="1"/>
        <pt x="301" y="616" on="1"/>
        <pt x="301" y="0" on="1"/>
      </contour>
    </TTGlyph>
    <TTGlyph name="Kcommaaccent" xMin="144" yMin="-526" xMax="967" yMax="1658">
      <component glyphName="uni0326" x="358" y="-41" flags="0x1004"/>
      <component glyphName="K" x="0" y="0" flags="0x1204"/>
    </TTGlyph>
    <TTGlyph name="L" xMin="144" yMin="0" xMax="773" yMax="1658">
      <contour>
        <pt x="144" y="0" on="1"/>
        <pt x="144" y="1658" on="1"/>
        <pt x="301" y="1658" on="1"/>
        <pt x="301" y="117" on="1"/>
        <pt x="773" y="117" on="1"/>
        <pt x="773" y="0" on="1"/>
      </contour>
    </TTGlyph>
    <TTGlyph name="Lacute" xMin="144" yMin="0" xMax="773" yMax="2198">
      <component glyphName="acutecomb" x="411" y="540" flags="0x1004"/>
      <component glyphName="L" x="0" y="0" flags="0x1204"/>
    </TTGlyph>
    <TTGlyph name="Lcaron" xMin="144" yMin="0" xMax="773" yMax="1676">
      <component glyphName="afii57929" x="424" y="18" flags="0x1004"/>
      <component glyphName="L" x="0" y="0" flags="0x1004"/>
    </TTGlyph>
    <TTGlyph name="Lcommaaccent" xMin="144" yMin="-526" xMax="773" yMax="1658">
      <component glyphName="uni0326" x="261" y="-41" flags="0x1004"/>
      <component glyphName="L" x="0" y="0" flags="0x1204"/>
    </TTGlyph>
    <TTGlyph name="Ldot" xMin="144" yMin="0" xMax="773" yMax="1658">
      <component glyphName="periodcentered" x="350" y="65" flags="0x1004"/>
      <component glyphName="L" x="0" y="0" flags="0x1204"/>
    </TTGlyph>
    <TTGlyph name="Lslash" xMin="-1" yMin="0" xMax="773" yMax="1658">
      <contour>
        <pt x="144" y="0" on="1"/>
        <pt x="144" y="811" on="1"/>
        <pt x="-1" y="735" on="1"/>
        <pt x="-1" y="858" on="1"/>
        <pt x="144" y="935" on="1"/>
        <pt x="144" y="1658" on="1"/>
        <pt x="301" y="1658" on="1"/>
        <pt x="301" y="1021" on="1"/>
        <pt x="538" y="1146" on="1"/>
        <pt x="538" y="1023" on="1"/>
        <pt x="301" y="897" on="1"/>
        <pt x="301" y="117" on="1"/>
        <pt x="773" y="117" on="1"/>
        <pt x="773" y="0" on="1"/>
      </contour>
    </TTGlyph>
    <TTGlyph name="M" xMin="130" yMin="0" xMax="1186" yMax="1658">
      <contour>
        <pt x="130" y="0" on="1"/>
        <pt x="173" y="1658" on="1"/>
        <pt x="326" y="1658" on="1"/>
        <pt x="656" y="219" on="1"/>
        <pt x="988" y="1658" on="1"/>
        <pt x="1145" y="1658" on="1"/>
        <pt x="1186" y="0" on="1"/>
        <pt x="1056" y="0" on="1"/>
        <pt x="1024" y="1322" on="1"/>
        <pt x="707" y="0" on="1"/>
        <pt x="607" y="0" on="1"/>
        <pt x="294" y="1319" on="1"/>
        <pt x="262" y="0" on="1"/>
      </contour>
    </TTGlyph>
    <TTGlyph name="N" xMin="144" yMin="0" xMax="921" yMax="1658">
      <contour>
        <pt x="144" y="0" on="1"/>
        <pt x="144" y="1658" on="1"/>
        <pt x="259" y="1658" on="1"/>
        <pt x="787" y="371" on="1"/>
        <pt x="787" y="1658" on="1"/>
        <pt x="921" y="1658" on="1"/>
        <pt x="921" y="0" on="1"/>
        <pt x="811" y="0" on="1"/>
        <pt x="279" y="1302" on="1"/>
        <pt x="279" y="0" on="1"/>
      </contour>
    </TTGlyph>
    <TTGlyph name="Nacute" xMin="144" yMin="0" xMax="921" yMax="2198">
      <component glyphName="acutecomb" x="485" y="540" flags="0x1004"/>
      <component glyphName="N" x="0" y="0" flags="0x1204"/>
    </TTGlyph>
    <TTGlyph name="Ncaron" xMin="144" yMin="0" xMax="921" yMax="2137">
      <component glyphName="uni030C" x="487" y="479" flags="0x1004"/>
      <component glyphName="N" x="0" y="0" flags="0x1204"/>
    </TTGlyph>
    <TTGlyph name="Ncommaaccent" xMin="144" yMin="-526" xMax="921" yMax="1658">
      <component glyphName="uni0326" x="335" y="-41" flags="0x1004"/>
      <component glyphName="N" x="0" y="0" flags="0x1204"/>
    </TTGlyph>
    <TTGlyph name="Ntilde" xMin="144" yMin="0" xMax="921" yMax="1994">
      <component glyphName="tildecomb" x="140" y="328" flags="0x1004"/>
      <component glyphName="N" x="0" y="0" flags="0x1204"/>
    </TTGlyph>
    <TTGlyph name="O" xMin="111" yMin="-21" xMax="963" yMax="1676">
      <contour>
        <pt x="457" y="105" on="0"/>
        <pt x="617" y="105" on="0"/>
        <pt x="725" y="154" on="0"/>
        <pt x="782" y="252" on="0"/>
        <pt x="805" y="372" on="0"/>
        <pt x="805" y="456" on="1"/>
        <pt x="805" y="1206" on="1"/>
        <pt x="805" y="1290" on="0"/>
        <pt x="782" y="1409" on="0"/>
        <pt x="725" y="1505" on="0"/>
        <pt x="617" y="1552" on="0"/>
        <pt x="457" y="1552" on="0"/>
        <pt x="349" y="1505" on="0"/>
        <pt x="292" y="1409" on="0"/>
        <pt x="269" y="1290" on="0"/>
        <pt x="269" y="1206" on="1"/>
        <pt x="269" y="456" on="1"/>
        <pt x="269" y="372" on="0"/>
        <pt x="292" y="252" on="0"/>
        <pt x="349" y="154" on="0"/>
      </contour>
      <contour>
        <pt x="537" y="-21" on="1"/>
        <pt x="417" y="-21" on="0"/>
        <pt x="248" y="52" on="0"/>
        <pt x="153" y="193" on="0"/>
        <pt x="111" y="372" on="0"/>
        <pt x="111" y="490" on="1"/>
        <pt x="111" y="1178" on="1"/>
        <pt x="111" y="1295" on="0"/>
        <pt x="154" y="1471" on="0"/>
        <pt x="251" y="1606" on="0"/>
        <pt x="419" y="1676" on="0"/>
        <pt x="655" y="1676" on="0"/>
        <pt x="823" y="1606" on="0"/>
        <pt x="920" y="1470" on="0"/>
        <pt x="963" y="1294" on="0"/>
        <pt x="963" y="1178" on="1"/>
        <pt x="963" y="488" on="1"/>
        <pt x="963" y="395" on="0"/>
        <pt x="938" y="245" on="0"/>
        <pt x="877" y="115" on="0"/>
        <pt x="781" y="28" on="0"/>
        <pt x="633" y="-21" on="0"/>
      </contour>
    </TTGlyph>
    <TTGlyph name="OE" xMin="111" yMin="0" xMax="1259" yMax="1658">
      <contour>
        <pt x="562" y="0" on="1"/>
        <pt x="435" y="0" on="0"/>
        <pt x="257" y="66" on="0"/>
        <pt x="156" y="197" on="0"/>
        <pt x="111" y="367" on="0"/>
        <pt x="111" y="482" on="1"/>
        <pt x="111" y="1158" on="1"/>
        <pt x="111" y="1277" on="0"/>
        <pt x="157" y="1456" on="0"/>
        <pt x="259" y="1590" on="0"/>
        <pt x="432" y="1658" on="0"/>
        <pt x="553" y="1658" on="1"/>
        <pt x="1257" y="1658" on="1"/>
        <pt x="1257" y="1536" on="1"/>
        <pt x="853" y="1536" on="1"/>
        <pt x="853" y="922" on="1"/>
        <pt x="1187" y="922" on="1"/>
        <pt x="1187" y="806" on="1"/>
        <pt x="853" y="806" on="1"/>
        <pt x="853" y="120" on="1"/>
        <pt x="1259" y="120" on="1"/>
        <pt x="1259" y="0" on="1"/>
      </contour>
      <contour>
        <pt x="565" y="123" on="1"/>
        <pt x="697" y="123" on="1"/>
        <pt x="697" y="1539" on="1"/>
        <pt x="562" y="1539" on="1"/>
        <pt x="487" y="1539" on="0"/>
        <pt x="381" y="1502" on="0"/>
        <pt x="317" y="1440" on="0"/>
        <pt x="281" y="1334" on="0"/>
        <pt x="269" y="1221" on="0"/>
        <pt x="269" y="1139" on="1"/>
        <pt x="269" y="492" on="1"/>
        <pt x="269" y="397" on="0"/>
        <pt x="293" y="270" on="0"/>
        <pt x="356" y="169" on="0"/>
        <pt x="474" y="123" on="0"/>
      </contour>
    </TTGlyph>
    <TTGlyph name="Oacute" xMin="111" yMin="-21" xMax="963" yMax="2198">
      <component glyphName="acutecomb" x="490" y="540" flags="0x1004"/>
      <component glyphName="O" x="0" y="0" flags="0x1204"/>
    </TTGlyph>
    <TTGlyph name="Obreve" xMin="111" yMin="-21" xMax="963" yMax="2054">
      <component glyphName="uni0306" x="171" y="396" flags="0x1004"/>
      <component glyphName="O" x="0" y="0" flags="0x1204"/>
    </TTGlyph>
    <TTGlyph name="Ocircumflex" xMin="111" yMin="-21" xMax="963" yMax="2161">
      <component glyphName="uni0302" x="202" y="503" flags="0x1004"/>
      <component glyphName="O" x="0" y="0" flags="0x1204"/>
    </TTGlyph>
    <TTGlyph name="Odieresis" xMin="111" yMin="-21" xMax="963" yMax="1979">
      <component glyphName="uni0308" x="330" y="321" flags="0x1004"/>
      <component glyphName="O" x="0" y="0" flags="0x1204"/>
    </TTGlyph>
    <TTGlyph name="Ograve" xMin="111" yMin="-21" xMax="963" yMax="2198">
      <component glyphName="gravecomb" x="404" y="540" flags="0x1004"/>
      <component glyphName="O" x="0" y="0" flags="0x1204"/>
    </TTGlyph>
    <TTGlyph name="Ohungarumlaut" xMin="111" yMin="-21" xMax="963" yMax="2126">
      <component glyphName="hungarumlaut" x="228" y="453" flags="0x1004"/>
      <component glyphName="O" x="0" y="0" flags="0x1204"/>
    </TTGlyph>
    <TTGlyph name="Omacron" xMin="111" yMin="-21" xMax="963" yMax="1894">
      <component glyphName="uni0304" x="176" y="236" flags="0x1004"/>
      <component glyphName="O" x="0" y="0" flags="0x1204"/>
    </TTGlyph>
    <TTGlyph name="Oslash" xMin="111" yMin="-178" xMax="963" yMax="1823">
      <contour>
        <pt x="537" y="105" on="1"/>
        <pt x="617" y="105" on="0"/>
        <pt x="725" y="154" on="0"/>
        <pt x="782" y="252" on="0"/>
        <pt x="805" y="372" on="0"/>
        <pt x="805" y="456" on="1"/>
        <pt x="805" y="1206" on="1"/>
        <pt x="805" y="1290" on="0"/>
        <pt x="782" y="1409" on="0"/>
        <pt x="754" y="1457" on="1"/>
        <pt x="752" y="1460" on="0"/>
        <pt x="749" y="1464" on="1"/>
        <pt x="378" y="143" on="1"/>
        <pt x="390" y="136" on="0"/>
        <pt x="403" y="130" on="1"/>
        <pt x="457" y="106" on="0"/>
      </contour>
      <contour>
        <pt x="288" y="-178" on="1"/>
        <pt x="226" y="-159" on="1"/>
        <pt x="283" y="42" on="1"/>
        <pt x="232" y="74" on="0"/>
        <pt x="200" y="122" on="1"/>
        <pt x="152" y="192" on="0"/>
        <pt x="111" y="372" on="0"/>
        <pt x="111" y="490" on="1"/>
        <pt x="111" y="1178" on="1"/>
        <pt x="111" y="1295" on="0"/>
        <pt x="154" y="1471" on="0"/>
        <pt x="251" y="1606" on="0"/>
        <pt x="419" y="1676" on="0"/>
        <pt x="537" y="1676" on="1"/>
        <pt x="651" y="1676" on="0"/>
        <pt x="733" y="1644" on="1"/>
        <pt x="783" y="1823" on="1"/>
        <pt x="846" y="1807" on="1"/>
        <pt x="792" y="1614" on="1"/>
        <pt x="840" y="1583" on="0"/>
        <pt x="872" y="1538" on="1"/>
        <pt x="920" y="1470" on="0"/>
        <pt x="963" y="1294" on="0"/>
        <pt x="963" y="1178" on="1"/>
        <pt x="963" y="488" on="1"/>
        <pt x="963" y="395" on="0"/>
        <pt x="938" y="245" on="0"/>
        <pt x="877" y="115" on="0"/>
        <pt x="781" y="28" on="0"/>
        <pt x="633" y="-21" on="0"/>
        <pt x="537" y="-21" on="1"/>
        <pt x="423" y="-21" on="0"/>
        <pt x="341" y="12" on="1"/>
      </contour>
      <contour>
        <pt x="696" y="1515" on="1"/>
        <pt x="684" y="1522" on="0"/>
        <pt x="671" y="1528" on="1"/>
        <pt x="617" y="1552" on="0"/>
        <pt x="457" y="1552" on="0"/>
        <pt x="349" y="1505" on="0"/>
        <pt x="292" y="1409" on="0"/>
        <pt x="269" y="1290" on="0"/>
        <pt x="269" y="1206" on="1"/>
        <pt x="269" y="456" on="1"/>
        <pt x="269" y="372" on="0"/>
        <pt x="292" y="252" on="0"/>
        <pt x="320" y="203" on="1"/>
        <pt x="322" y="199" on="0"/>
        <pt x="325" y="195" on="1"/>
      </contour>
    </TTGlyph>
    <TTGlyph name="Otilde" xMin="111" yMin="-21" xMax="963" yMax="1994">
      <component glyphName="tildecomb" x="144" y="328" flags="0x1004"/>
      <component glyphName="O" x="0" y="0" flags="0x1204"/>
    </TTGlyph>
    <TTGlyph name="P" xMin="144" yMin="0" xMax="937" yMax="1658">
      <contour>
        <pt x="144" y="0" on="1"/>
        <pt x="144" y="1658" on="1"/>
        <pt x="542" y="1658" on="1"/>
        <pt x="651" y="1658" on="0"/>
        <pt x="807" y="1596" on="0"/>
        <pt x="897" y="1477" on="0"/>
        <pt x="937" y="1321" on="0"/>
        <pt x="937" y="1219" on="1"/>
        <pt x="937" y="1127" on="0"/>
        <pt x="894" y="974" on="0"/>
        <pt x="803" y="853" on="0"/>
        <pt x="648" y="785" on="0"/>
        <pt x="544" y="785" on="1"/>
        <pt x="301" y="785" on="1"/>
        <pt x="301" y="0" on="1"/>
      </contour>
      <contour>
        <pt x="301" y="901" on="1"/>
        <pt x="500" y="901" on="1"/>
        <pt x="653" y="901" on="0"/>
        <pt x="784" y="1042" on="0"/>
        <pt x="784" y="1218" on="1"/>
        <pt x="784" y="1409" on="0"/>
        <pt x="668" y="1542" on="0"/>
        <pt x="502" y="1542" on="1"/>
        <pt x="301" y="1542" on="1"/>
      </contour>
    </TTGlyph>
    <TTGlyph name="Pi" xMin="144" yMin="0" xMax="1003" yMax="1658">
      <contour>
        <pt x="144" y="0" on="1"/>
        <pt x="144" y="1658" on="1"/>
        <pt x="1003" y="1658" on="1"/>
        <pt x="1003" y="0" on="1"/>
        <pt x="852" y="0" on="1"/>
        <pt x="852" y="1543" on="1"/>
        <pt x="294" y="1543" on="1"/>
        <pt x="294" y="0" on="1"/>
      </contour>
    </TTGlyph>
    <TTGlyph name="Q" xMin="111" yMin="-325" xMax="973" yMax="1676">
      <contour>
        <pt x="884" y="-325" on="1"/>
        <pt x="770" y="-270" on="0"/>
        <pt x="594" y="-18" on="1"/>
        <pt x="568" y="-21" on="0"/>
        <pt x="542" y="-21" on="1"/>
        <pt x="422" y="-21" on="0"/>
        <pt x="251" y="52" on="0"/>
        <pt x="154" y="193" on="0"/>
        <pt x="111" y="372" on="0"/>
        <pt x="111" y="490" on="1"/>
        <pt x="111" y="1178" on="1"/>
        <pt x="111" y="1294" on="0"/>
        <pt x="156" y="1472" on="0"/>
        <pt x="255" y="1606" on="0"/>
        <pt x="424" y="1676" on="0"/>
        <pt x="660" y="1676" on="0"/>
        <pt x="829" y="1606" on="0"/>
        <pt x="928" y="1471" on="0"/>
        <pt x="973" y="1294" on="0"/>
        <pt x="973" y="1178" on="1"/>
        <pt x="973" y="488" on="1"/>
        <pt x="973" y="395" on="0"/>
        <pt x="946" y="245" on="0"/>
        <pt x="887" y="118" on="0"/>
        <pt x="784" y="29" on="0"/>
        <pt x="713" y="6" on="1"/>
        <pt x="757" y="-51" on="0"/>
        <pt x="867" y="-171" on="0"/>
        <pt x="904" y="-195" on="1"/>
      </contour>
      <contour>
        <pt x="462" y="105" on="0"/>
        <pt x="622" y="105" on="0"/>
        <pt x="731" y="154" on="0"/>
        <pt x="791" y="251" on="0"/>
        <pt x="815" y="372" on="0"/>
        <pt x="815" y="456" on="1"/>
        <pt x="815" y="1206" on="1"/>
        <pt x="815" y="1290" on="0"/>
        <pt x="791" y="1409" on="0"/>
        <pt x="731" y="1505" on="0"/>
        <pt x="622" y="1552" on="0"/>
        <pt x="462" y="1552" on="0"/>
        <pt x="353" y="1505" on="0"/>
        <pt x="293" y="1409" on="0"/>
        <pt x="269" y="1290" on="0"/>
        <pt x="269" y="1206" on="1"/>
        <pt x="269" y="456" on="1"/>
        <pt x="269" y="372" on="0"/>
        <pt x="293" y="251" on="0"/>
        <pt x="353" y="154" on="0"/>
      </contour>
    </TTGlyph>
    <TTGlyph name="R" xMin="144" yMin="0" xMax="958" yMax="1658">
      <contour>
        <pt x="144" y="0" on="1"/>
        <pt x="144" y="1658" on="1"/>
        <pt x="521" y="1658" on="1"/>
        <pt x="742" y="1658" on="0"/>
        <pt x="932" y="1445" on="0"/>
        <pt x="932" y="1239" on="1"/>
        <pt x="932" y="896" on="0"/>
        <pt x="701" y="848" on="1"/>
        <pt x="958" y="0" on="1"/>
        <pt x="804" y="0" on="1"/>
        <pt x="561" y="815" on="1"/>
        <pt x="301" y="815" on="1"/>
        <pt x="301" y="0" on="1"/>
      </contour>
      <contour>
        <pt x="301" y="930" on="1"/>
        <pt x="512" y="930" on="1"/>
        <pt x="662" y="930" on="0"/>
        <pt x="780" y="1077" on="0"/>
        <pt x="780" y="1239" on="1"/>
        <pt x="780" y="1399" on="0"/>
        <pt x="668" y="1541" on="0"/>
        <pt x="517" y="1541" on="1"/>
        <pt x="301" y="1541" on="1"/>
      </contour>
    </TTGlyph>
    <TTGlyph name="Racute" xMin="144" yMin="0" xMax="958" yMax="2198">
      <component glyphName="acutecomb" x="504" y="540" flags="0x1004"/>
      <component glyphName="R" x="0" y="0" flags="0x1204"/>
    </TTGlyph>
    <TTGlyph name="Rcaron" xMin="144" yMin="0" xMax="958" yMax="2137">
      <component glyphName="uni030C" x="506" y="479" flags="0x1004"/>
      <component glyphName="R" x="0" y="0" flags="0x1204"/>
    </TTGlyph>
    <TTGlyph name="Rcommaaccent" xMin="144" yMin="-526" xMax="958" yMax="1658">
      <component glyphName="uni0326" x="354" y="-41" flags="0x1004"/>
      <component glyphName="R" x="0" y="0" flags="0x1204"/>
    </TTGlyph>
    <TTGlyph name="S" xMin="83" yMin="-20" xMax="880" yMax="1676">
      <contour>
        <pt x="499" y="-20" on="1"/>
        <pt x="302" y="-20" on="0"/>
        <pt x="99" y="217" on="0"/>
        <pt x="83" y="430" on="1"/>
        <pt x="222" y="470" on="1"/>
        <pt x="229" y="404" on="0"/>
        <pt x="250" y="303" on="0"/>
        <pt x="291" y="206" on="0"/>
        <pt x="350" y="144" on="0"/>
        <pt x="441" y="106" on="0"/>
        <pt x="500" y="106" on="1"/>
        <pt x="734" y="106" on="0"/>
        <pt x="734" y="346" on="1"/>
        <pt x="734" y="399" on="0"/>
        <pt x="707" y="492" on="0"/>
        <pt x="648" y="581" on="0"/>
        <pt x="583" y="653" on="0"/>
        <pt x="531" y="704" on="1"/>
        <pt x="237" y="986" on="1"/>
        <pt x="87" y="1130" on="0"/>
        <pt x="87" y="1320" on="1"/>
        <pt x="87" y="1489" on="0"/>
        <pt x="288" y="1675" on="0"/>
        <pt x="460" y="1676" on="1"/>
        <pt x="464" y="1676" on="0"/>
        <pt x="467" y="1676" on="1"/>
        <pt x="648" y="1676" on="0"/>
        <pt x="744" y="1578" on="1"/>
        <pt x="842" y="1478" on="0"/>
        <pt x="858" y="1255" on="1"/>
        <pt x="726" y="1221" on="1"/>
        <pt x="712" y="1389" on="0"/>
        <pt x="654" y="1473" on="1"/>
        <pt x="598" y="1553" on="0"/>
        <pt x="474" y="1553" on="1"/>
        <pt x="468" y="1553" on="0"/>
        <pt x="462" y="1553" on="1"/>
        <pt x="353" y="1550" on="0"/>
        <pt x="228" y="1442" on="0"/>
        <pt x="228" y="1333" on="1"/>
        <pt x="228" y="1265" on="0"/>
        <pt x="281" y="1154" on="0"/>
        <pt x="345" y="1092" on="1"/>
        <pt x="637" y="815" on="1"/>
        <pt x="750" y="707" on="0"/>
        <pt x="880" y="486" on="0"/>
        <pt x="880" y="357" on="1"/>
        <pt x="880" y="176" on="0"/>
        <pt x="671" y="-20" on="0"/>
      </contour>
    </TTGlyph>
    <TTGlyph name="Sacute" xMin="83" yMin="-20" xMax="880" yMax="2198">
      <component glyphName="acutecomb" x="434" y="540" flags="0x1004"/>
      <component glyphName="S" x="0" y="0" flags="0x1204"/>
    </TTGlyph>
    <TTGlyph name="Scaron" xMin="83" yMin="-20" xMax="880" yMax="2137">
      <component glyphName="uni030C" x="436" y="479" flags="0x1004"/>
      <component glyphName="S" x="0" y="0" flags="0x1204"/>
    </TTGlyph>
    <TTGlyph name="Scedilla" xMin="83" yMin="-419" xMax="880" yMax="1676">
      <component glyphName="cedilla" x="350" y="0" flags="0x1004"/>
      <component glyphName="S" x="0" y="0" flags="0x1204"/>
    </TTGlyph>
    <TTGlyph name="Scircumflex" xMin="83" yMin="-20" xMax="880" yMax="2161">
      <component glyphName="uni0302" x="147" y="503" flags="0x1004"/>
      <component glyphName="S" x="0" y="0" flags="0x1204"/>
    </TTGlyph>
    <TTGlyph name="Scommaaccent" xMin="83" yMin="-546" xMax="880" yMax="1676">
      <component glyphName="uni0326" x="284" y="-61" flags="0x1004"/>
      <component glyphName="S" x="0" y="0" flags="0x1204"/>
    </TTGlyph>
    <TTGlyph name="T" xMin="-10" yMin="0" xMax="805" yMax="1658">
      <contour>
        <pt x="323" y="0" on="1"/>
        <pt x="323" y="1538" on="1"/>
        <pt x="-10" y="1538" on="1"/>
        <pt x="-10" y="1658" on="1"/>
        <pt x="805" y="1658" on="1"/>
        <pt x="805" y="1538" on="1"/>
        <pt x="480" y="1538" on="1"/>
        <pt x="480" y="0" on="1"/>
      </contour>
    </TTGlyph>
    <TTGlyph name="Tbar" xMin="-10" yMin="0" xMax="805" yMax="1658">
      <contour>
        <pt x="86" y="835" on="1"/>
        <pt x="86" y="930" on="1"/>
        <pt x="323" y="930" on="1"/>
        <pt x="323" y="1538" on="1"/>
        <pt x="-10" y="1538" on="1"/>
        <pt x="-10" y="1658" on="1"/>
        <pt x="805" y="1658" on="1"/>
        <pt x="805" y="1538" on="1"/>
        <pt x="480" y="1538" on="1"/>
        <pt x="480" y="930" on="1"/>
        <pt x="705" y="930" on="1"/>
        <pt x="705" y="835" on="1"/>
        <pt x="480" y="835" on="1"/>
        <pt x="480" y="0" on="1"/>
        <pt x="323" y="0" on="1"/>
        <pt x="323" y="835" on="1"/>
      </contour>
    </TTGlyph>
    <TTGlyph name="Tcaron" xMin="-10" yMin="0" xMax="805" yMax="2137">
      <component glyphName="uni030C" x="352" y="479" flags="0x1004"/>
      <component glyphName="T" x="0" y="0" flags="0x1204"/>
    </TTGlyph>
    <TTGlyph name="Tcommaaccent" xMin="-10" yMin="-419" xMax="805" yMax="1658">
      <component glyphName="cedilla" x="260" y="0" flags="0x1004"/>
      <component glyphName="T" x="0" y="0" flags="0x1204"/>
    </TTGlyph>
    <TTGlyph name="Thorn" xMin="144" yMin="0" xMax="977" yMax="1658">
      <contour>
        <pt x="144" y="0" on="1"/>
        <pt x="144" y="1658" on="1"/>
        <pt x="301" y="1658" on="1"/>
        <pt x="301" y="1444" on="1"/>
        <pt x="585" y="1444" on="1"/>
        <pt x="690" y="1444" on="0"/>
        <pt x="844" y="1373" on="0"/>
        <pt x="934" y="1245" on="0"/>
        <pt x="977" y="1082" on="0"/>
        <pt x="977" y="981" on="1"/>
        <pt x="977" y="902" on="0"/>
        <pt x="952" y="765" on="0"/>
        <pt x="892" y="640" on="0"/>
        <pt x="800" y="552" on="0"/>
        <pt x="656" y="500" on="0"/>
        <pt x="564" y="500" on="1"/>
        <pt x="301" y="500" on="1"/>
        <pt x="301" y="0" on="1"/>
      </contour>
      <contour>
        <pt x="301" y="630" on="1"/>
        <pt x="532" y="630" on="1"/>
        <pt x="682" y="630" on="0"/>
        <pt x="821" y="792" on="0"/>
        <pt x="821" y="979" on="1"/>
        <pt x="821" y="1156" on="0"/>
        <pt x="685" y="1312" on="0"/>
        <pt x="548" y="1312" on="1"/>
        <pt x="301" y="1312" on="1"/>
      </contour>
    </TTGlyph>
    <TTGlyph name="U" xMin="127" yMin="-21" xMax="973" yMax="1658">
      <contour>
        <pt x="551" y="-21" on="1"/>
        <pt x="452" y="-21" on="0"/>
        <pt x="302" y="25" on="0"/>
        <pt x="208" y="106" on="0"/>
        <pt x="150" y="228" on="0"/>
        <pt x="127" y="365" on="0"/>
        <pt x="127" y="453" on="1"/>
        <pt x="127" y="1658" on="1"/>
        <pt x="278" y="1658" on="1"/>
        <pt x="278" y="448" on="1"/>
        <pt x="278" y="386" on="0"/>
        <pt x="292" y="288" on="0"/>
        <pt x="328" y="199" on="0"/>
        <pt x="388" y="140" on="0"/>
        <pt x="486" y="105" on="0"/>
        <pt x="551" y="105" on="1"/>
        <pt x="629" y="105" on="0"/>
        <pt x="738" y="156" on="0"/>
        <pt x="797" y="253" on="0"/>
        <pt x="823" y="371" on="0"/>
        <pt x="823" y="448" on="1"/>
        <pt x="823" y="1658" on="1"/>
        <pt x="973" y="1658" on="1"/>
        <pt x="973" y="453" on="1"/>
        <pt x="973" y="366" on="0"/>
        <pt x="949" y="228" on="0"/>
        <pt x="889" y="106" on="0"/>
        <pt x="794" y="25" on="0"/>
        <pt x="647" y="-21" on="0"/>
      </contour>
    </TTGlyph>
    <TTGlyph name="Uacute" xMin="127" yMin="-21" xMax="973" yMax="2198">
      <component glyphName="acutecomb" x="502" y="540" flags="0x1004"/>
      <component glyphName="U" x="0" y="0" flags="0x1204"/>
    </TTGlyph>
    <TTGlyph name="Ubreve" xMin="127" yMin="-21" xMax="973" yMax="2054">
      <component glyphName="uni0306" x="184" y="396" flags="0x1004"/>
      <component glyphName="U" x="0" y="0" flags="0x1204"/>
    </TTGlyph>
    <TTGlyph name="Ucircumflex" xMin="127" yMin="-21" xMax="973" yMax="2161">
      <component glyphName="uni0302" x="216" y="503" flags="0x1004"/>
      <component glyphName="U" x="0" y="0" flags="0x1204"/>
    </TTGlyph>
    <TTGlyph name="Udieresis" xMin="127" yMin="-21" xMax="973" yMax="1979">
      <component glyphName="uni0308" x="343" y="321" flags="0x1004"/>
      <component glyphName="U" x="0" y="0" flags="0x1204"/>
    </TTGlyph>
    <TTGlyph name="Ugrave" xMin="127" yMin="-21" xMax="973" yMax="2198">
      <component glyphName="gravecomb" x="418" y="540" flags="0x1004"/>
      <component glyphName="U" x="0" y="0" flags="0x1204"/>
    </TTGlyph>
    <TTGlyph name="Uhungarumlaut" xMin="127" yMin="-21" xMax="973" yMax="2126">
      <component glyphName="hungarumlaut" x="240" y="453" flags="0x1004"/>
      <component glyphName="U" x="0" y="0" flags="0x1204"/>
    </TTGlyph>
    <TTGlyph name="Umacron" xMin="127" yMin="-21" xMax="973" yMax="1894">
      <component glyphName="uni0304" x="188" y="236" flags="0x1004"/>
      <component glyphName="U" x="0" y="0" flags="0x1204"/>
    </TTGlyph>
    <TTGlyph name="Uogonek" xMin="127" yMin="-429" xMax="973" yMax="1658">
      <component glyphName="ogonek" x="310" y="0" flags="0x1004"/>
      <component glyphName="U" x="0" y="0" flags="0x1204"/>
    </TTGlyph>
    <TTGlyph name="Uring" xMin="127" yMin="-21" xMax="973" yMax="2187">
      <component glyphName="uni030A" x="254" y="509" flags="0x1004"/>
      <component glyphName="U" x="0" y="0" flags="0x1204"/>
    </TTGlyph>
    <TTGlyph name="Utilde" xMin="127" yMin="-21" xMax="973" yMax="1994">
      <component glyphName="tildecomb" x="157" y="328" flags="0x1004"/>
      <component glyphName="U" x="0" y="0" flags="0x1204"/>
    </TTGlyph>
    <TTGlyph name="V" xMin="50" yMin="0" xMax="954" yMax="1658">
      <contour>
        <pt x="438" y="0" on="1"/>
        <pt x="50" y="1658" on="1"/>
        <pt x="199" y="1658" on="1"/>
        <pt x="512" y="286" on="1"/>
        <pt x="807" y="1658" on="1"/>
        <pt x="954" y="1658" on="1"/>
        <pt x="580" y="0" on="1"/>
      </contour>
    </TTGlyph>
    <TTGlyph name="W" xMin="71" yMin="0" xMax="1393" yMax="1658">
      <contour>
        <pt x="353" y="0" on="1"/>
        <pt x="71" y="1657" on="1"/>
        <pt x="205" y="1658" on="1"/>
        <pt x="423" y="312" on="1"/>
        <pt x="674" y="1633" on="1"/>
        <pt x="803" y="1633" on="1"/>
        <pt x="1058" y="310" on="1"/>
        <pt x="1261" y="1658" on="1"/>
        <pt x="1393" y="1658" on="1"/>
        <pt x="1125" y="0" on="1"/>
        <pt x="1003" y="0" on="1"/>
        <pt x="740" y="1369" on="1"/>
        <pt x="479" y="0" on="1"/>
      </contour>
    </TTGlyph>
    <TTGlyph name="Wacute" xMin="71" yMin="0" xMax="1393" yMax="2198">
      <component glyphName="acutecomb" x="684" y="540" flags="0x1004"/>
      <component glyphName="W" x="0" y="0" flags="0x1204"/>
    </TTGlyph>
    <TTGlyph name="Wcircumflex" xMin="71" yMin="0" xMax="1393" yMax="2161">
      <component glyphName="uni0302" x="398" y="503" flags="0x1004"/>
      <component glyphName="W" x="0" y="0" flags="0x1204"/>
    </TTGlyph>
    <TTGlyph name="Wdieresis" xMin="71" yMin="0" xMax="1393" yMax="1979">
      <component glyphName="uni0308" x="525" y="321" flags="0x1004"/>
      <component glyphName="W" x="0" y="0" flags="0x1204"/>
    </TTGlyph>
    <TTGlyph name="Wgrave" xMin="71" yMin="0" xMax="1393" yMax="2198">
      <component glyphName="gravecomb" x="600" y="540" flags="0x1004"/>
      <component glyphName="W" x="0" y="0" flags="0x1204"/>
    </TTGlyph>
    <TTGlyph name="X" xMin="29" yMin="0" xMax="920" yMax="1659">
      <contour>
        <pt x="29" y="0" on="1"/>
        <pt x="387" y="864" on="1"/>
        <pt x="33" y="1659" on="1"/>
        <pt x="177" y="1659" on="1"/>
        <pt x="475" y="997" on="1"/>
        <pt x="760" y="1659" on="1"/>
        <pt x="910" y="1659" on="1"/>
        <pt x="542" y="845" on="1"/>
        <pt x="920" y="0" on="1"/>
        <pt x="772" y="0" on="1"/>
        <pt x="458" y="700" on="1"/>
        <pt x="179" y="0" on="1"/>
      </contour>
    </TTGlyph>
    <TTGlyph name="Y" xMin="35" yMin="0" xMax="926" yMax="1658">
      <contour>
        <pt x="409" y="0" on="1"/>
        <pt x="409" y="551" on="1"/>
        <pt x="35" y="1658" on="1"/>
        <pt x="188" y="1658" on="1"/>
        <pt x="486" y="737" on="1"/>
        <pt x="773" y="1658" on="1"/>
        <pt x="926" y="1658" on="1"/>
        <pt x="561" y="551" on="1"/>
        <pt x="561" y="0" on="1"/>
      </contour>
    </TTGlyph>
    <TTGlyph name="Yacute" xMin="35" yMin="0" xMax="926" yMax="2198">
      <component glyphName="acutecomb" x="433" y="540" flags="0x1004"/>
      <component glyphName="Y" x="0" y="0" flags="0x1204"/>
    </TTGlyph>
    <TTGlyph name="Ycircumflex" xMin="35" yMin="0" xMax="926" yMax="2161">
      <component glyphName="uni0302" x="146" y="503" flags="0x1004"/>
      <component glyphName="Y" x="0" y="0" flags="0x1204"/>
    </TTGlyph>
    <TTGlyph name="Ydieresis" xMin="35" yMin="0" xMax="926" yMax="1979">
      <component glyphName="uni0308" x="274" y="321" flags="0x1004"/>
      <component glyphName="Y" x="0" y="0" flags="0x1204"/>
    </TTGlyph>
    <TTGlyph name="Ygrave" xMin="35" yMin="0" xMax="926" yMax="2198">
      <component glyphName="gravecomb" x="348" y="540" flags="0x1004"/>
      <component glyphName="Y" x="0" y="0" flags="0x1204"/>
    </TTGlyph>
    <TTGlyph name="Z" xMin="69" yMin="0" xMax="794" yMax="1658">
      <contour>
        <pt x="69" y="0" on="1"/>
        <pt x="69" y="118" on="1"/>
        <pt x="625" y="1541" on="1"/>
        <pt x="114" y="1541" on="1"/>
        <pt x="114" y="1658" on="1"/>
        <pt x="792" y="1658" on="1"/>
        <pt x="792" y="1577" on="1"/>
        <pt x="223" y="117" on="1"/>
        <pt x="794" y="117" on="1"/>
        <pt x="794" y="0" on="1"/>
      </contour>
    </TTGlyph>
    <TTGlyph name="Zacute" xMin="69" yMin="0" xMax="794" yMax="2198">
      <component glyphName="acutecomb" x="384" y="540" flags="0x1004"/>
      <component glyphName="Z" x="0" y="0" flags="0x1204"/>
    </TTGlyph>
    <TTGlyph name="Zcaron" xMin="69" yMin="0" xMax="794" yMax="2137">
      <component glyphName="uni030C" x="386" y="479" flags="0x1004"/>
      <component glyphName="Z" x="0" y="0" flags="0x1204"/>
    </TTGlyph>
    <TTGlyph name="Zdotaccent" xMin="69" yMin="0" xMax="794" yMax="2022">
      <component glyphName="uni0307" x="409" y="364" flags="0x1004"/>
      <component glyphName="Z" x="0" y="0" flags="0x1204"/>
    </TTGlyph>
    <TTGlyph name="a" xMin="81" yMin="-19" xMax="719" yMax="1202">
      <contour>
        <pt x="319" y="-19" on="1"/>
        <pt x="215" y="-19" on="0"/>
        <pt x="81" y="134" on="0"/>
        <pt x="81" y="247" on="1"/>
        <pt x="81" y="306" on="0"/>
        <pt x="101" y="399" on="0"/>
        <pt x="156" y="481" on="0"/>
        <pt x="221" y="544" on="0"/>
        <pt x="341" y="615" on="0"/>
        <pt x="461" y="675" on="0"/>
        <pt x="558" y="718" on="1"/>
        <pt x="558" y="803" on="1"/>
        <pt x="558" y="966" on="0"/>
        <pt x="496" y="1089" on="0"/>
        <pt x="411" y="1089" on="1"/>
        <pt x="247" y="1089" on="0"/>
        <pt x="247" y="886" on="1"/>
        <pt x="247" y="843" on="1"/>
        <pt x="99" y="848" on="1"/>
        <pt x="99" y="877" on="0"/>
        <pt x="100" y="884" on="1"/>
        <pt x="107" y="1051" on="0"/>
        <pt x="267" y="1202" on="0"/>
        <pt x="419" y="1202" on="1"/>
        <pt x="576" y="1202" on="0"/>
        <pt x="708" y="1016" on="0"/>
        <pt x="708" y="811" on="1"/>
        <pt x="708" y="235" on="1"/>
        <pt x="708" y="92" on="0"/>
        <pt x="719" y="0" on="1"/>
        <pt x="586" y="0" on="1"/>
        <pt x="564" y="164" on="1"/>
        <pt x="537" y="86" on="0"/>
        <pt x="408" y="-19" on="0"/>
      </contour>
      <contour>
        <pt x="368" y="110" on="1"/>
        <pt x="428" y="110" on="0"/>
        <pt x="529" y="193" on="0"/>
        <pt x="558" y="250" on="1"/>
        <pt x="558" y="619" on="1"/>
        <pt x="552" y="616" on="0"/>
        <pt x="539" y="609" on="1"/>
        <pt x="490" y="583" on="0"/>
        <pt x="438" y="555" on="0"/>
        <pt x="365" y="513" on="0"/>
        <pt x="329" y="485" on="0"/>
        <pt x="282" y="445" on="0"/>
        <pt x="261" y="410" on="0"/>
        <pt x="239" y="364" on="0"/>
        <pt x="231" y="313" on="0"/>
        <pt x="231" y="282" on="1"/>
        <pt x="231" y="195" on="0"/>
        <pt x="309" y="110" on="0"/>
      </contour>
    </TTGlyph>
    <TTGlyph name="aacute" xMin="81" yMin="-19" xMax="719" yMax="1724">
      <component glyphName="acutecomb" x="352" y="66" flags="0x1004"/>
      <component glyphName="a" x="0" y="0" flags="0x1204"/>
    </TTGlyph>
    <TTGlyph name="abreve" xMin="81" yMin="-19" xMax="719" yMax="1580">
      <component glyphName="uni0306" x="34" y="-78" flags="0x1004"/>
      <component glyphName="a" x="0" y="0" flags="0x1204"/>
    </TTGlyph>
    <TTGlyph name="acircumflex" xMin="81" yMin="-19" xMax="719" yMax="1687">
      <component glyphName="uni0302" x="66" y="29" flags="0x1004"/>
      <component glyphName="a" x="0" y="0" flags="0x1204"/>
    </TTGlyph>
    <TTGlyph name="acute" xMin="97" yMin="1258" xMax="376" yMax="1658">
      <contour>
        <pt x="97" y="1258" on="1"/>
        <pt x="225" y="1658" on="1"/>
        <pt x="376" y="1658" on="1"/>
        <pt x="175" y="1258" on="1"/>
      </contour>
    </TTGlyph>
    <TTGlyph name="acutecomb" xMin="9" yMin="1258" xMax="287" yMax="1658">
      <contour>
        <pt x="9" y="1258" on="1"/>
        <pt x="137" y="1658" on="1"/>
        <pt x="287" y="1658" on="1"/>
        <pt x="86" y="1258" on="1"/>
      </contour>
    </TTGlyph>
    <TTGlyph name="adieresis" xMin="81" yMin="-19" xMax="719" yMax="1505">
      <component glyphName="uni0308" x="193" y="-153" flags="0x1004"/>
      <component glyphName="a" x="0" y="0" flags="0x1204"/>
    </TTGlyph>
    <TTGlyph name="ae" xMin="81" yMin="-19" xMax="1186" yMax="1202">
      <contour>
        <pt x="318" y="-19" on="1"/>
        <pt x="213" y="-15" on="0"/>
        <pt x="81" y="135" on="0"/>
        <pt x="81" y="247" on="1"/>
        <pt x="81" y="381" on="0"/>
        <pt x="216" y="552" on="0"/>
        <pt x="391" y="610" on="1"/>
        <pt x="562" y="665" on="1"/>
        <pt x="562" y="803" on="1"/>
        <pt x="562" y="959" on="0"/>
        <pt x="494" y="1086" on="0"/>
        <pt x="411" y="1086" on="1"/>
        <pt x="333" y="1086" on="0"/>
        <pt x="242" y="982" on="0"/>
        <pt x="242" y="869" on="1"/>
        <pt x="96" y="871" on="1"/>
        <pt x="97" y="1031" on="0"/>
        <pt x="262" y="1202" on="0"/>
        <pt x="412" y="1202" on="1"/>
        <pt x="501" y="1202" on="0"/>
        <pt x="622" y="1111" on="0"/>
        <pt x="637" y="1026" on="1"/>
        <pt x="663" y="1115" on="0"/>
        <pt x="795" y="1202" on="0"/>
        <pt x="883" y="1202" on="1"/>
        <pt x="1025" y="1202" on="0"/>
        <pt x="1177" y="1036" on="0"/>
        <pt x="1177" y="898" on="1"/>
        <pt x="1177" y="802" on="0"/>
        <pt x="1039" y="696" on="0"/>
        <pt x="910" y="661" on="1"/>
        <pt x="713" y="601" on="1"/>
        <pt x="713" y="482" on="1"/>
        <pt x="713" y="289" on="0"/>
        <pt x="785" y="101" on="0"/>
        <pt x="881" y="101" on="1"/>
        <pt x="954" y="101" on="0"/>
        <pt x="1037" y="205" on="0"/>
        <pt x="1037" y="335" on="1"/>
        <pt x="1037" y="405" on="1"/>
        <pt x="1186" y="405" on="1"/>
        <pt x="1186" y="336" on="1"/>
        <pt x="1186" y="166" on="0"/>
        <pt x="1043" y="-19" on="0"/>
        <pt x="880" y="-19" on="1"/>
        <pt x="777" y="-19" on="0"/>
        <pt x="635" y="101" on="0"/>
        <pt x="619" y="222" on="1"/>
        <pt x="582" y="100" on="0"/>
        <pt x="500" y="38" on="1"/>
        <pt x="424" y="-19" on="0"/>
        <pt x="333" y="-19" on="1"/>
        <pt x="325" y="-19" on="0"/>
      </contour>
      <contour>
        <pt x="368" y="99" on="1"/>
        <pt x="449" y="99" on="0"/>
        <pt x="562" y="264" on="0"/>
        <pt x="562" y="440" on="1"/>
        <pt x="562" y="572" on="1"/>
        <pt x="554" y="570" on="0"/>
        <pt x="436" y="524" on="0"/>
        <pt x="433" y="523" on="1"/>
        <pt x="311" y="474" on="0"/>
        <pt x="270" y="418" on="1"/>
        <pt x="230" y="364" on="0"/>
        <pt x="230" y="186" on="0"/>
        <pt x="272" y="142" on="1"/>
        <pt x="312" y="99" on="0"/>
      </contour>
      <contour>
        <pt x="713" y="691" on="1"/>
        <pt x="886" y="746" on="1"/>
        <pt x="972" y="771" on="0"/>
        <pt x="1039" y="841" on="0"/>
        <pt x="1039" y="910" on="1"/>
        <pt x="1039" y="984" on="0"/>
        <pt x="964" y="1081" on="0"/>
        <pt x="883" y="1081" on="1"/>
        <pt x="793" y="1081" on="0"/>
        <pt x="713" y="951" on="0"/>
        <pt x="713" y="797" on="1"/>
      </contour>
    </TTGlyph>
    <TTGlyph name="afii00208" xMin="87" yMin="609" xMax="4009" yMax="727">
      <contour>
        <pt x="87" y="609" on="1"/>
        <pt x="87" y="727" on="1"/>
        <pt x="4009" y="727" on="1"/>
        <pt x="4009" y="609" on="1"/>
      </contour>
    </TTGlyph>
    <TTGlyph name="afii10017" xMin="56" yMin="0" xMax="922" yMax="1658">
      <component glyphName="A" x="0" y="0" flags="0x1204"/>
    </TTGlyph>
    <TTGlyph name="afii10018" xMin="144" yMin="0" xMax="911" yMax="1658">
      <contour>
        <pt x="144" y="0" on="1"/>
        <pt x="144" y="1658" on="1"/>
        <pt x="809" y="1658" on="1"/>
        <pt x="809" y="1542" on="1"/>
        <pt x="301" y="1542" on="1"/>
        <pt x="301" y="963" on="1"/>
        <pt x="434" y="963" on="1"/>
        <pt x="680" y="963" on="0"/>
        <pt x="911" y="733" on="0"/>
        <pt x="911" y="476" on="1"/>
        <pt x="911" y="243" on="0"/>
        <pt x="685" y="0" on="0"/>
        <pt x="441" y="0" on="1"/>
      </contour>
      <contour>
        <pt x="301" y="120" on="1"/>
        <pt x="443" y="120" on="1"/>
        <pt x="613" y="120" on="0"/>
        <pt x="758" y="285" on="0"/>
        <pt x="758" y="478" on="1"/>
        <pt x="758" y="665" on="0"/>
        <pt x="614" y="843" on="0"/>
        <pt x="440" y="843" on="1"/>
        <pt x="301" y="843" on="1"/>
      </contour>
    </TTGlyph>
    <TTGlyph name="afii10019" xMin="144" yMin="0" xMax="946" yMax="1658">
      <contour>
        <pt x="144" y="0" on="1"/>
        <pt x="144" y="1658" on="1"/>
        <pt x="500" y="1658" on="1"/>
        <pt x="717" y="1658" on="0"/>
        <pt x="907" y="1444" on="0"/>
        <pt x="907" y="1245" on="1"/>
        <pt x="907" y="1159" on="0"/>
        <pt x="871" y="1020" on="0"/>
        <pt x="773" y="910" on="0"/>
        <pt x="696" y="894" on="1"/>
        <pt x="766" y="875" on="0"/>
        <pt x="867" y="791" on="0"/>
        <pt x="922" y="676" on="0"/>
        <pt x="946" y="552" on="0"/>
        <pt x="946" y="480" on="1"/>
        <pt x="946" y="396" on="0"/>
        <pt x="925" y="260" on="0"/>
        <pt x="871" y="135" on="0"/>
        <pt x="784" y="50" on="0"/>
        <pt x="646" y="0" on="0"/>
        <pt x="555" y="0" on="1"/>
      </contour>
      <contour>
        <pt x="301" y="117" on="1"/>
        <pt x="526" y="117" on="1"/>
        <pt x="681" y="117" on="0"/>
        <pt x="795" y="285" on="0"/>
        <pt x="795" y="479" on="1"/>
        <pt x="795" y="823" on="0"/>
        <pt x="528" y="823" on="1"/>
        <pt x="301" y="823" on="1"/>
      </contour>
      <contour>
        <pt x="301" y="944" on="1"/>
        <pt x="527" y="944" on="1"/>
        <pt x="660" y="944" on="0"/>
        <pt x="766" y="1098" on="0"/>
        <pt x="766" y="1245" on="1"/>
        <pt x="766" y="1402" on="0"/>
        <pt x="631" y="1538" on="0"/>
        <pt x="450" y="1538" on="1"/>
        <pt x="301" y="1538" on="1"/>
      </contour>
    </TTGlyph>
    <TTGlyph name="afii10020" xMin="144" yMin="0" xMax="733" yMax="1658">
      <contour>
        <pt x="144" y="0" on="1"/>
        <pt x="144" y="1658" on="1"/>
        <pt x="733" y="1658" on="1"/>
        <pt x="733" y="1538" on="1"/>
        <pt x="301" y="1538" on="1"/>
        <pt x="301" y="0" on="1"/>
      </contour>
    </TTGlyph>
    <TTGlyph name="afii10021" xMin="20" yMin="-285" xMax="1150" yMax="1658">
      <contour>
        <pt x="20" y="-285" on="1"/>
        <pt x="20" y="117" on="1"/>
        <pt x="85" y="117" on="1"/>
        <pt x="119" y="141" on="0"/>
        <pt x="158" y="174" on="0"/>
        <pt x="212" y="243" on="0"/>
        <pt x="244" y="329" on="0"/>
        <pt x="285" y="474" on="0"/>
        <pt x="312" y="668" on="0"/>
        <pt x="341" y="944" on="0"/>
        <pt x="353" y="1122" on="1"/>
        <pt x="389" y="1658" on="1"/>
        <pt x="1014" y="1658" on="1"/>
        <pt x="1014" y="117" on="1"/>
        <pt x="1150" y="117" on="1"/>
        <pt x="1150" y="-285" on="1"/>
        <pt x="1027" y="-285" on="1"/>
        <pt x="1012" y="0" on="1"/>
        <pt x="157" y="0" on="1"/>
        <pt x="143" y="-285" on="1"/>
      </contour>
      <contour>
        <pt x="244" y="117" on="1"/>
        <pt x="857" y="117" on="1"/>
        <pt x="857" y="1540" on="1"/>
        <pt x="527" y="1540" on="1"/>
        <pt x="496" y="1088" on="1"/>
        <pt x="474" y="746" on="0"/>
        <pt x="442" y="546" on="1"/>
        <pt x="402" y="291" on="0"/>
        <pt x="330" y="197" on="1"/>
        <pt x="305" y="164" on="0"/>
      </contour>
    </TTGlyph>
    <TTGlyph name="afii10022" xMin="144" yMin="0" xMax="748" yMax="1658">
      <component glyphName="E" x="0" y="0" flags="0x1204"/>
    </TTGlyph>
    <TTGlyph name="afii10023" xMin="144" yMin="0" xMax="748" yMax="1979">
      <component glyphName="uni0308" x="239" y="321" flags="0x1004"/>
      <component glyphName="afii10022" x="0" y="0" flags="0x1204"/>
    </TTGlyph>
    <TTGlyph name="afii10024" xMin="30" yMin="0" xMax="1276" yMax="1658">
      <contour>
        <pt x="30" y="0" on="1"/>
        <pt x="442" y="859" on="1"/>
        <pt x="69" y="1658" on="1"/>
        <pt x="220" y="1658" on="1"/>
        <pt x="570" y="868" on="1"/>
        <pt x="584" y="868" on="1"/>
        <pt x="584" y="1658" on="1"/>
        <pt x="722" y="1658" on="1"/>
        <pt x="722" y="868" on="1"/>
        <pt x="736" y="868" on="1"/>
        <pt x="1086" y="1658" on="1"/>
        <pt x="1237" y="1658" on="1"/>
        <pt x="864" y="859" on="1"/>
        <pt x="1276" y="0" on="1"/>
        <pt x="1122" y="0" on="1"/>
        <pt x="741" y="839" on="1"/>
        <pt x="722" y="839" on="1"/>
        <pt x="722" y="0" on="1"/>
        <pt x="584" y="0" on="1"/>
        <pt x="584" y="839" on="1"/>
        <pt x="565" y="839" on="1"/>
        <pt x="184" y="0" on="1"/>
      </contour>
    </TTGlyph>
    <TTGlyph name="afii10025" xMin="98" yMin="-21" xMax="883" yMax="1676">
      <contour>
        <pt x="489" y="-21" on="1"/>
        <pt x="302" y="-21" on="0"/>
        <pt x="119" y="192" on="0"/>
        <pt x="119" y="383" on="1"/>
        <pt x="119" y="423" on="1"/>
        <pt x="265" y="423" on="1"/>
        <pt x="265" y="387" on="0"/>
        <pt x="266" y="377" on="1"/>
        <pt x="268" y="243" on="0"/>
        <pt x="373" y="103" on="0"/>
        <pt x="489" y="103" on="1"/>
        <pt x="609" y="103" on="0"/>
        <pt x="730" y="266" on="0"/>
        <pt x="730" y="450" on="1"/>
        <pt x="730" y="793" on="0"/>
        <pt x="447" y="805" on="1"/>
        <pt x="438" y="806" on="0"/>
        <pt x="359" y="806" on="1"/>
        <pt x="359" y="924" on="1"/>
        <pt x="445" y="924" on="1"/>
        <pt x="600" y="929" on="0"/>
        <pt x="730" y="1092" on="0"/>
        <pt x="730" y="1261" on="1"/>
        <pt x="730" y="1554" on="0"/>
        <pt x="496" y="1554" on="1"/>
        <pt x="371" y="1554" on="0"/>
        <pt x="249" y="1419" on="0"/>
        <pt x="245" y="1276" on="1"/>
        <pt x="244" y="1267" on="0"/>
        <pt x="244" y="1238" on="1"/>
        <pt x="98" y="1238" on="1"/>
        <pt x="98" y="1276" on="1"/>
        <pt x="98" y="1465" on="0"/>
        <pt x="291" y="1676" on="0"/>
        <pt x="491" y="1676" on="1"/>
        <pt x="681" y="1676" on="0"/>
        <pt x="883" y="1449" on="0"/>
        <pt x="883" y="1260" on="1"/>
        <pt x="883" y="1092" on="0"/>
        <pt x="751" y="893" on="0"/>
        <pt x="643" y="868" on="1"/>
        <pt x="691" y="855" on="0"/>
        <pt x="773" y="795" on="0"/>
        <pt x="843" y="698" on="0"/>
        <pt x="883" y="547" on="0"/>
        <pt x="883" y="452" on="1"/>
        <pt x="883" y="344" on="0"/>
        <pt x="839" y="174" on="0"/>
        <pt x="746" y="47" on="0"/>
        <pt x="593" y="-21" on="0"/>
      </contour>
    </TTGlyph>
    <TTGlyph name="afii10026" xMin="144" yMin="0" xMax="940" yMax="1658">
      <contour>
        <pt x="144" y="0" on="1"/>
        <pt x="144" y="1658" on="1"/>
        <pt x="283" y="1658" on="1"/>
        <pt x="283" y="344" on="1"/>
        <pt x="820" y="1658" on="1"/>
        <pt x="940" y="1658" on="1"/>
        <pt x="940" y="0" on="1"/>
        <pt x="801" y="0" on="1"/>
        <pt x="801" y="1321" on="1"/>
        <pt x="267" y="0" on="1"/>
      </contour>
    </TTGlyph>
    <TTGlyph name="afii10027" xMin="144" yMin="0" xMax="940" yMax="2054">
      <component glyphName="uni0306" x="176" y="396" flags="0x1004"/>
      <component glyphName="afii10026" x="0" y="0" flags="0x1204"/>
    </TTGlyph>
    <TTGlyph name="afii10028" xMin="144" yMin="0" xMax="971" yMax="1658">
      <contour>
        <pt x="144" y="0" on="1"/>
        <pt x="144" y="1658" on="1"/>
        <pt x="301" y="1658" on="1"/>
        <pt x="301" y="897" on="1"/>
        <pt x="419" y="897" on="1"/>
        <pt x="757" y="1658" on="1"/>
        <pt x="916" y="1658" on="1"/>
        <pt x="556" y="860" on="1"/>
        <pt x="971" y="0" on="1"/>
        <pt x="813" y="0" on="1"/>
        <pt x="420" y="813" on="1"/>
        <pt x="301" y="813" on="1"/>
        <pt x="301" y="0" on="1"/>
      </contour>
    </TTGlyph>
    <TTGlyph name="afii10029" xMin="34" yMin="-4" xMax="1016" yMax="1658">
      <contour>
        <pt x="34" y="-4" on="1"/>
        <pt x="34" y="117" on="1"/>
        <pt x="69" y="118" on="0"/>
        <pt x="107" y="122" on="0"/>
        <pt x="157" y="136" on="0"/>
        <pt x="183" y="157" on="0"/>
        <pt x="219" y="203" on="0"/>
        <pt x="237" y="260" on="0"/>
        <pt x="262" y="356" on="0"/>
        <pt x="277" y="468" on="0"/>
        <pt x="297" y="632" on="0"/>
        <pt x="312" y="817" on="0"/>
        <pt x="322" y="942" on="1"/>
        <pt x="371" y="1658" on="1"/>
        <pt x="1016" y="1658" on="1"/>
        <pt x="1016" y="0" on="1"/>
        <pt x="859" y="0" on="1"/>
        <pt x="859" y="1540" on="1"/>
        <pt x="511" y="1540" on="1"/>
        <pt x="471" y="941" on="1"/>
        <pt x="458" y="771" on="0"/>
        <pt x="440" y="576" on="0"/>
        <pt x="411" y="352" on="0"/>
        <pt x="383" y="238" on="0"/>
        <pt x="336" y="111" on="0"/>
        <pt x="282" y="58" on="0"/>
        <pt x="199" y="8" on="0"/>
        <pt x="150" y="2" on="1"/>
        <pt x="108" y="-4" on="0"/>
        <pt x="52" y="-4" on="1"/>
        <pt x="43" y="-4" on="0"/>
      </contour>
    </TTGlyph>
    <TTGlyph name="afii10030" xMin="130" yMin="0" xMax="1186" yMax="1658">
      <contour>
        <pt x="130" y="0" on="1"/>
        <pt x="173" y="1658" on="1"/>
        <pt x="316" y="1658" on="1"/>
        <pt x="656" y="256" on="1"/>
        <pt x="998" y="1658" on="1"/>
        <pt x="1145" y="1658" on="1"/>
        <pt x="1186" y="0" on="1"/>
        <pt x="1058" y="0" on="1"/>
        <pt x="1029" y="1273" on="1"/>
        <pt x="707" y="0" on="1"/>
        <pt x="607" y="0" on="1"/>
        <pt x="288" y="1270" on="1"/>
        <pt x="259" y="0" on="1"/>
      </contour>
    </TTGlyph>
    <TTGlyph name="afii10031" xMin="144" yMin="0" xMax="980" yMax="1658">
      <component glyphName="H" x="0" y="0" flags="0x1204"/>
    </TTGlyph>
    <TTGlyph name="afii10032" xMin="111" yMin="-21" xMax="963" yMax="1676">
      <component glyphName="O" x="0" y="0" flags="0x1204"/>
    </TTGlyph>
    <TTGlyph name="afii10033" xMin="144" yMin="0" xMax="993" yMax="1658">
      <contour>
        <pt x="144" y="0" on="1"/>
        <pt x="144" y="1658" on="1"/>
        <pt x="993" y="1658" on="1"/>
        <pt x="993" y="0" on="1"/>
        <pt x="836" y="0" on="1"/>
        <pt x="836" y="1543" on="1"/>
        <pt x="301" y="1543" on="1"/>
        <pt x="301" y="0" on="1"/>
      </contour>
    </TTGlyph>
    <TTGlyph name="afii10034" xMin="144" yMin="0" xMax="937" yMax="1658">
      <contour>
        <pt x="144" y="0" on="1"/>
        <pt x="144" y="1658" on="1"/>
        <pt x="542" y="1658" on="1"/>
        <pt x="651" y="1658" on="0"/>
        <pt x="807" y="1596" on="0"/>
        <pt x="897" y="1477" on="0"/>
        <pt x="937" y="1321" on="0"/>
        <pt x="937" y="1219" on="1"/>
        <pt x="937" y="1127" on="0"/>
        <pt x="894" y="974" on="0"/>
        <pt x="803" y="853" on="0"/>
        <pt x="648" y="785" on="0"/>
        <pt x="544" y="785" on="1"/>
        <pt x="301" y="785" on="1"/>
        <pt x="301" y="0" on="1"/>
      </contour>
      <contour>
        <pt x="301" y="901" on="1"/>
        <pt x="500" y="901" on="1"/>
        <pt x="653" y="901" on="0"/>
        <pt x="784" y="1042" on="0"/>
        <pt x="784" y="1218" on="1"/>
        <pt x="784" y="1409" on="0"/>
        <pt x="668" y="1542" on="0"/>
        <pt x="502" y="1542" on="1"/>
        <pt x="301" y="1542" on="1"/>
      </contour>
    </TTGlyph>
    <TTGlyph name="afii10035" xMin="111" yMin="-21" xMax="924" yMax="1676">
      <component glyphName="C" x="0" y="0" flags="0x1204"/>
    </TTGlyph>
    <TTGlyph name="afii10036" xMin="-10" yMin="0" xMax="805" yMax="1658">
      <component glyphName="T" x="0" y="0" flags="0x1204"/>
    </TTGlyph>
    <TTGlyph name="afii10037" xMin="57" yMin="-215" xMax="890" yMax="1658">
      <contour>
        <pt x="119" y="-213" on="1"/>
        <pt x="120" y="-91" on="1"/>
        <pt x="160" y="-93" on="0"/>
        <pt x="192" y="-93" on="1"/>
        <pt x="216" y="-93" on="0"/>
        <pt x="236" y="-92" on="1"/>
        <pt x="282" y="-89" on="0"/>
        <pt x="349" y="-57" on="0"/>
        <pt x="384" y="-22" on="0"/>
        <pt x="404" y="61" on="0"/>
        <pt x="410" y="137" on="0"/>
        <pt x="411" y="209" on="1"/>
        <pt x="57" y="1658" on="1"/>
        <pt x="208" y="1658" on="1"/>
        <pt x="379" y="914" on="1"/>
        <pt x="489" y="381" on="1"/>
        <pt x="586" y="916" on="1"/>
        <pt x="737" y="1658" on="1"/>
        <pt x="890" y="1658" on="1"/>
        <pt x="573" y="202" on="1"/>
        <pt x="569" y="183" on="0"/>
        <pt x="562" y="146" on="1"/>
        <pt x="546" y="68" on="0"/>
        <pt x="522" y="-31" on="0"/>
        <pt x="483" y="-122" on="0"/>
        <pt x="429" y="-171" on="0"/>
        <pt x="338" y="-207" on="0"/>
        <pt x="275" y="-212" on="1"/>
        <pt x="240" y="-215" on="0"/>
        <pt x="196" y="-215" on="1"/>
        <pt x="160" y="-215" on="0"/>
      </contour>
    </TTGlyph>
    <TTGlyph name="afii10038" xMin="111" yMin="-99" xMax="1157" yMax="1808">
      <contour>
        <pt x="553" y="-99" on="1"/>
        <pt x="553" y="192" on="1"/>
        <pt x="515" y="188" on="0"/>
        <pt x="464" y="188" on="1"/>
        <pt x="450" y="187" on="0"/>
        <pt x="436" y="187" on="1"/>
        <pt x="282" y="186" on="0"/>
        <pt x="200" y="282" on="1"/>
        <pt x="112" y="386" on="0"/>
        <pt x="111" y="611" on="1"/>
        <pt x="111" y="1069" on="1"/>
        <pt x="111" y="1296" on="0"/>
        <pt x="203" y="1404" on="1"/>
        <pt x="290" y="1506" on="0"/>
        <pt x="458" y="1506" on="1"/>
        <pt x="467" y="1506" on="0"/>
        <pt x="477" y="1506" on="1"/>
        <pt x="523" y="1506" on="0"/>
        <pt x="553" y="1504" on="1"/>
        <pt x="553" y="1808" on="1"/>
        <pt x="710" y="1808" on="1"/>
        <pt x="710" y="1504" on="1"/>
        <pt x="736" y="1507" on="0"/>
        <pt x="798" y="1507" on="1"/>
        <pt x="807" y="1507" on="0"/>
        <pt x="817" y="1507" on="1"/>
        <pt x="982" y="1507" on="0"/>
        <pt x="1067" y="1405" on="1"/>
        <pt x="1157" y="1297" on="0"/>
        <pt x="1157" y="1069" on="1"/>
        <pt x="1157" y="611" on="1"/>
        <pt x="1156" y="387" on="0"/>
        <pt x="1068" y="283" on="1"/>
        <pt x="987" y="187" on="0"/>
        <pt x="831" y="187" on="1"/>
        <pt x="817" y="187" on="0"/>
        <pt x="803" y="188" on="1"/>
        <pt x="748" y="188" on="0"/>
        <pt x="710" y="192" on="1"/>
        <pt x="710" y="-99" on="1"/>
      </contour>
      <contour>
        <pt x="489" y="288" on="1"/>
        <pt x="526" y="288" on="0"/>
        <pt x="553" y="291" on="1"/>
        <pt x="553" y="1404" on="1"/>
        <pt x="529" y="1407" on="0"/>
        <pt x="494" y="1407" on="1"/>
        <pt x="487" y="1407" on="0"/>
        <pt x="481" y="1407" on="1"/>
        <pt x="356" y="1407" on="0"/>
        <pt x="308" y="1332" on="1"/>
        <pt x="258" y="1253" on="0"/>
        <pt x="257" y="1069" on="1"/>
        <pt x="257" y="611" on="1"/>
        <pt x="258" y="430" on="0"/>
        <pt x="306" y="357" on="1"/>
        <pt x="352" y="288" on="0"/>
        <pt x="475" y="288" on="1"/>
        <pt x="482" y="288" on="0"/>
      </contour>
      <contour>
        <pt x="780" y="288" on="1"/>
        <pt x="787" y="288" on="0"/>
        <pt x="794" y="288" on="1"/>
        <pt x="917" y="288" on="0"/>
        <pt x="963" y="357" on="1"/>
        <pt x="1012" y="430" on="0"/>
        <pt x="1012" y="611" on="1"/>
        <pt x="1012" y="1069" on="1"/>
        <pt x="1012" y="1253" on="0"/>
        <pt x="962" y="1332" on="1"/>
        <pt x="914" y="1407" on="0"/>
        <pt x="787" y="1407" on="1"/>
        <pt x="781" y="1407" on="0"/>
        <pt x="774" y="1407" on="1"/>
        <pt x="758" y="1407" on="0"/>
        <pt x="710" y="1404" on="1"/>
        <pt x="710" y="291" on="1"/>
        <pt x="737" y="288" on="0"/>
      </contour>
    </TTGlyph>
    <TTGlyph name="afii10039" xMin="29" yMin="0" xMax="920" yMax="1659">
      <component glyphName="X" x="0" y="0" flags="0x1204"/>
    </TTGlyph>
    <TTGlyph name="afii10040" xMin="144" yMin="-285" xMax="1134" yMax="1658">
      <contour>
        <pt x="1010" y="-285" on="1"/>
        <pt x="995" y="0" on="1"/>
        <pt x="144" y="0" on="1"/>
        <pt x="144" y="1658" on="1"/>
        <pt x="301" y="1658" on="1"/>
        <pt x="301" y="115" on="1"/>
        <pt x="846" y="115" on="1"/>
        <pt x="846" y="1658" on="1"/>
        <pt x="1003" y="1658" on="1"/>
        <pt x="1003" y="115" on="1"/>
        <pt x="1134" y="115" on="1"/>
        <pt x="1134" y="-285" on="1"/>
      </contour>
    </TTGlyph>
    <TTGlyph name="afii10041" xMin="108" yMin="0" xMax="915" yMax="1658">
      <contour>
        <pt x="758" y="0" on="1"/>
        <pt x="758" y="768" on="1"/>
        <pt x="624" y="735" on="0"/>
        <pt x="514" y="735" on="1"/>
        <pt x="108" y="735" on="0"/>
        <pt x="108" y="1102" on="1"/>
        <pt x="108" y="1658" on="1"/>
        <pt x="253" y="1658" on="1"/>
        <pt x="253" y="1103" on="1"/>
        <pt x="253" y="960" on="0"/>
        <pt x="400" y="843" on="0"/>
        <pt x="541" y="843" on="1"/>
        <pt x="652" y="843" on="0"/>
        <pt x="758" y="875" on="1"/>
        <pt x="758" y="1658" on="1"/>
        <pt x="915" y="1658" on="1"/>
        <pt x="915" y="0" on="1"/>
      </contour>
    </TTGlyph>
    <TTGlyph name="afii10042" xMin="144" yMin="0" xMax="1330" yMax="1658">
      <contour>
        <pt x="144" y="0" on="1"/>
        <pt x="144" y="1658" on="1"/>
        <pt x="301" y="1658" on="1"/>
        <pt x="301" y="116" on="1"/>
        <pt x="666" y="116" on="1"/>
        <pt x="666" y="1658" on="1"/>
        <pt x="823" y="1658" on="1"/>
        <pt x="823" y="116" on="1"/>
        <pt x="1173" y="116" on="1"/>
        <pt x="1173" y="1658" on="1"/>
        <pt x="1330" y="1658" on="1"/>
        <pt x="1330" y="0" on="1"/>
      </contour>
    </TTGlyph>
    <TTGlyph name="afii10043" xMin="144" yMin="-285" xMax="1464" yMax="1658">
      <contour>
        <pt x="1340" y="-285" on="1"/>
        <pt x="1325" y="0" on="1"/>
        <pt x="144" y="0" on="1"/>
        <pt x="144" y="1658" on="1"/>
        <pt x="301" y="1658" on="1"/>
        <pt x="301" y="115" on="1"/>
        <pt x="666" y="115" on="1"/>
        <pt x="666" y="1658" on="1"/>
        <pt x="823" y="1658" on="1"/>
        <pt x="823" y="115" on="1"/>
        <pt x="1174" y="115" on="1"/>
        <pt x="1174" y="1658" on="1"/>
        <pt x="1331" y="1658" on="1"/>
        <pt x="1331" y="115" on="1"/>
        <pt x="1464" y="115" on="1"/>
        <pt x="1464" y="-285" on="1"/>
      </contour>
    </TTGlyph>
    <TTGlyph name="afii10044" xMin="12" yMin="0" xMax="1077" yMax="1658">
      <contour>
        <pt x="303" y="0" on="1"/>
        <pt x="303" y="1537" on="1"/>
        <pt x="12" y="1537" on="1"/>
        <pt x="12" y="1658" on="1"/>
        <pt x="460" y="1658" on="1"/>
        <pt x="460" y="963" on="1"/>
        <pt x="600" y="963" on="1"/>
        <pt x="847" y="963" on="0"/>
        <pt x="1077" y="733" on="0"/>
        <pt x="1077" y="476" on="1"/>
        <pt x="1077" y="243" on="0"/>
        <pt x="851" y="0" on="0"/>
        <pt x="607" y="0" on="1"/>
      </contour>
      <contour>
        <pt x="460" y="120" on="1"/>
        <pt x="609" y="120" on="1"/>
        <pt x="780" y="120" on="0"/>
        <pt x="925" y="285" on="0"/>
        <pt x="925" y="478" on="1"/>
        <pt x="925" y="664" on="0"/>
        <pt x="781" y="843" on="0"/>
        <pt x="607" y="843" on="1"/>
        <pt x="460" y="843" on="1"/>
      </contour>
    </TTGlyph>
    <TTGlyph name="afii10045" xMin="144" yMin="0" xMax="1272" yMax="1658">
      <contour>
        <pt x="144" y="0" on="1"/>
        <pt x="144" y="1658" on="1"/>
        <pt x="301" y="1658" on="1"/>
        <pt x="301" y="963" on="1"/>
        <pt x="441" y="963" on="1"/>
        <pt x="687" y="963" on="0"/>
        <pt x="918" y="733" on="0"/>
        <pt x="918" y="476" on="1"/>
        <pt x="918" y="243" on="0"/>
        <pt x="692" y="0" on="0"/>
        <pt x="448" y="0" on="1"/>
      </contour>
      <contour>
        <pt x="301" y="120" on="1"/>
        <pt x="450" y="120" on="1"/>
        <pt x="620" y="120" on="0"/>
        <pt x="765" y="285" on="0"/>
        <pt x="765" y="478" on="1"/>
        <pt x="765" y="665" on="0"/>
        <pt x="621" y="843" on="0"/>
        <pt x="447" y="843" on="1"/>
        <pt x="301" y="843" on="1"/>
      </contour>
      <contour>
        <pt x="1115" y="0" on="1"/>
        <pt x="1115" y="1658" on="1"/>
        <pt x="1272" y="1658" on="1"/>
        <pt x="1272" y="0" on="1"/>
      </contour>
    </TTGlyph>
    <TTGlyph name="afii10046" xMin="144" yMin="0" xMax="918" yMax="1658">
      <contour>
        <pt x="144" y="0" on="1"/>
        <pt x="144" y="1658" on="1"/>
        <pt x="301" y="1658" on="1"/>
        <pt x="301" y="963" on="1"/>
        <pt x="441" y="963" on="1"/>
        <pt x="688" y="963" on="0"/>
        <pt x="918" y="733" on="0"/>
        <pt x="918" y="476" on="1"/>
        <pt x="918" y="243" on="0"/>
        <pt x="692" y="0" on="0"/>
        <pt x="448" y="0" on="1"/>
      </contour>
      <contour>
        <pt x="301" y="120" on="1"/>
        <pt x="450" y="120" on="1"/>
        <pt x="621" y="120" on="0"/>
        <pt x="766" y="285" on="0"/>
        <pt x="766" y="478" on="1"/>
        <pt x="766" y="664" on="0"/>
        <pt x="622" y="843" on="0"/>
        <pt x="448" y="843" on="1"/>
        <pt x="301" y="843" on="1"/>
      </contour>
    </TTGlyph>
    <TTGlyph name="afii10047" xMin="112" yMin="-8" xMax="925" yMax="1689">
      <contour>
        <pt x="506" y="-8" on="1"/>
        <pt x="397" y="-8" on="0"/>
        <pt x="242" y="57" on="0"/>
        <pt x="152" y="183" on="0"/>
        <pt x="112" y="351" on="0"/>
        <pt x="112" y="463" on="1"/>
        <pt x="112" y="538" on="1"/>
        <pt x="261" y="538" on="1"/>
        <pt x="261" y="468" on="1"/>
        <pt x="261" y="398" on="0"/>
        <pt x="271" y="298" on="0"/>
        <pt x="302" y="206" on="0"/>
        <pt x="355" y="150" on="0"/>
        <pt x="443" y="117" on="0"/>
        <pt x="505" y="117" on="1"/>
        <pt x="571" y="117" on="0"/>
        <pt x="666" y="153" on="0"/>
        <pt x="723" y="214" on="0"/>
        <pt x="756" y="312" on="0"/>
        <pt x="767" y="417" on="0"/>
        <pt x="767" y="490" on="1"/>
        <pt x="767" y="806" on="1"/>
        <pt x="413" y="806" on="1"/>
        <pt x="413" y="914" on="1"/>
        <pt x="767" y="914" on="1"/>
        <pt x="767" y="1195" on="1"/>
        <pt x="767" y="1387" on="0"/>
        <pt x="652" y="1563" on="0"/>
        <pt x="505" y="1563" on="1"/>
        <pt x="429" y="1563" on="0"/>
        <pt x="330" y="1514" on="0"/>
        <pt x="279" y="1412" on="0"/>
        <pt x="261" y="1293" on="0"/>
        <pt x="261" y="1204" on="1"/>
        <pt x="261" y="1125" on="1"/>
        <pt x="112" y="1125" on="1"/>
        <pt x="112" y="1193" on="1"/>
        <pt x="112" y="1284" on="0"/>
        <pt x="134" y="1429" on="0"/>
        <pt x="189" y="1557" on="0"/>
        <pt x="277" y="1641" on="0"/>
        <pt x="415" y="1689" on="0"/>
        <pt x="506" y="1689" on="1"/>
        <pt x="604" y="1689" on="0"/>
        <pt x="753" y="1636" on="0"/>
        <pt x="846" y="1545" on="0"/>
        <pt x="903" y="1410" on="0"/>
        <pt x="925" y="1262" on="0"/>
        <pt x="925" y="1170" on="1"/>
        <pt x="925" y="511" on="1"/>
        <pt x="925" y="415" on="0"/>
        <pt x="902" y="264" on="0"/>
        <pt x="844" y="130" on="0"/>
        <pt x="750" y="42" on="0"/>
        <pt x="603" y="-8" on="0"/>
      </contour>
    </TTGlyph>
    <TTGlyph name="afii10048" xMin="144" yMin="-21" xMax="1297" yMax="1676">
      <contour>
        <pt x="885" y="-21" on="1"/>
        <pt x="791" y="-21" on="0"/>
        <pt x="648" y="29" on="0"/>
        <pt x="555" y="117" on="0"/>
        <pt x="497" y="248" on="0"/>
        <pt x="473" y="399" on="0"/>
        <pt x="473" y="493" on="1"/>
        <pt x="473" y="780" on="1"/>
        <pt x="293" y="780" on="1"/>
        <pt x="293" y="0" on="1"/>
        <pt x="144" y="0" on="1"/>
        <pt x="144" y="1658" on="1"/>
        <pt x="293" y="1658" on="1"/>
        <pt x="293" y="902" on="1"/>
        <pt x="473" y="902" on="1"/>
        <pt x="473" y="1174" on="1"/>
        <pt x="473" y="1292" on="0"/>
        <pt x="515" y="1469" on="0"/>
        <pt x="608" y="1606" on="0"/>
        <pt x="770" y="1676" on="0"/>
        <pt x="885" y="1676" on="1"/>
        <pt x="999" y="1676" on="0"/>
        <pt x="1162" y="1604" on="0"/>
        <pt x="1255" y="1467" on="0"/>
        <pt x="1297" y="1289" on="0"/>
        <pt x="1297" y="1173" on="1"/>
        <pt x="1297" y="491" on="1"/>
        <pt x="1297" y="373" on="0"/>
        <pt x="1257" y="195" on="0"/>
        <pt x="1165" y="53" on="0"/>
        <pt x="1001" y="-21" on="0"/>
      </contour>
      <contour>
        <pt x="887" y="105" on="1"/>
        <pt x="965" y="105" on="0"/>
        <pt x="1071" y="154" on="0"/>
        <pt x="1129" y="251" on="0"/>
        <pt x="1153" y="372" on="0"/>
        <pt x="1153" y="456" on="1"/>
        <pt x="1153" y="1206" on="1"/>
        <pt x="1153" y="1289" on="0"/>
        <pt x="1129" y="1409" on="0"/>
        <pt x="1070" y="1504" on="0"/>
        <pt x="963" y="1552" on="0"/>
        <pt x="807" y="1552" on="0"/>
        <pt x="700" y="1504" on="0"/>
        <pt x="641" y="1409" on="0"/>
        <pt x="617" y="1289" on="0"/>
        <pt x="617" y="1206" on="1"/>
        <pt x="617" y="456" on="1"/>
        <pt x="617" y="372" on="0"/>
        <pt x="641" y="251" on="0"/>
        <pt x="700" y="154" on="0"/>
        <pt x="808" y="105" on="0"/>
      </contour>
    </TTGlyph>
    <TTGlyph name="afii10049" xMin="40" yMin="0" xMax="950" yMax="1658">
      <contour>
        <pt x="40" y="0" on="1"/>
        <pt x="376" y="752" on="1"/>
        <pt x="259" y="798" on="0"/>
        <pt x="138" y="1037" on="0"/>
        <pt x="138" y="1210" on="1"/>
        <pt x="138" y="1307" on="0"/>
        <pt x="184" y="1463" on="0"/>
        <pt x="287" y="1589" on="0"/>
        <pt x="471" y="1658" on="0"/>
        <pt x="598" y="1658" on="1"/>
        <pt x="950" y="1658" on="1"/>
        <pt x="950" y="0" on="1"/>
        <pt x="793" y="0" on="1"/>
        <pt x="793" y="710" on="1"/>
        <pt x="584" y="710" on="1"/>
        <pt x="545" y="710" on="0"/>
        <pt x="513" y="714" on="1"/>
        <pt x="214" y="0" on="1"/>
      </contour>
      <contour>
        <pt x="609" y="826" on="1"/>
        <pt x="793" y="826" on="1"/>
        <pt x="793" y="1542" on="1"/>
        <pt x="605" y="1542" on="1"/>
        <pt x="447" y="1542" on="0"/>
        <pt x="289" y="1384" on="0"/>
        <pt x="289" y="1210" on="1"/>
        <pt x="289" y="1013" on="0"/>
        <pt x="437" y="826" on="0"/>
      </contour>
    </TTGlyph>
    <TTGlyph name="afii10050" xMin="144" yMin="0" xMax="740" yMax="1854">
      <contour>
        <pt x="144" y="0" on="1"/>
        <pt x="144" y="1658" on="1"/>
        <pt x="639" y="1658" on="1"/>
        <pt x="639" y="1854" on="1"/>
        <pt x="740" y="1854" on="1"/>
        <pt x="740" y="1540" on="1"/>
        <pt x="301" y="1540" on="1"/>
        <pt x="301" y="0" on="1"/>
      </contour>
    </TTGlyph>
    <TTGlyph name="afii10051" xMin="-26" yMin="0" xMax="948" yMax="1658">
      <contour>
        <pt x="546" y="0" on="1"/>
        <pt x="546" y="116" on="1"/>
        <pt x="687" y="116" on="0"/>
        <pt x="798" y="260" on="0"/>
        <pt x="798" y="401" on="1"/>
        <pt x="798" y="654" on="1"/>
        <pt x="798" y="751" on="0"/>
        <pt x="690" y="865" on="0"/>
        <pt x="600" y="865" on="1"/>
        <pt x="502" y="865" on="0"/>
        <pt x="407" y="802" on="1"/>
        <pt x="407" y="0" on="1"/>
        <pt x="253" y="0" on="1"/>
        <pt x="253" y="1538" on="1"/>
        <pt x="-26" y="1538" on="1"/>
        <pt x="-26" y="1658" on="1"/>
        <pt x="707" y="1658" on="1"/>
        <pt x="707" y="1538" on="1"/>
        <pt x="407" y="1538" on="1"/>
        <pt x="407" y="897" on="1"/>
        <pt x="444" y="933" on="0"/>
        <pt x="564" y="975" on="0"/>
        <pt x="630" y="975" on="1"/>
        <pt x="690" y="975" on="0"/>
        <pt x="800" y="938" on="0"/>
        <pt x="893" y="864" on="0"/>
        <pt x="948" y="737" on="0"/>
        <pt x="948" y="654" on="1"/>
        <pt x="948" y="400" on="1"/>
        <pt x="948" y="194" on="0"/>
        <pt x="760" y="0" on="0"/>
        <pt x="572" y="0" on="1"/>
      </contour>
    </TTGlyph>
    <TTGlyph name="afii10052" xMin="144" yMin="0" xMax="733" yMax="2198">
      <component glyphName="acutecomb" x="391" y="540" flags="0x1004"/>
      <component glyphName="afii10020" x="0" y="0" flags="0x1204"/>
    </TTGlyph>
    <TTGlyph name="afii10053" xMin="111" yMin="-21" xMax="924" yMax="1676">
      <contour>
        <pt x="531" y="-21" on="1"/>
        <pt x="433" y="-21" on="0"/>
        <pt x="284" y="33" on="0"/>
        <pt x="191" y="123" on="0"/>
        <pt x="133" y="259" on="0"/>
        <pt x="111" y="407" on="0"/>
        <pt x="111" y="499" on="1"/>
        <pt x="111" y="1158" on="1"/>
        <pt x="111" y="1254" on="0"/>
        <pt x="134" y="1405" on="0"/>
        <pt x="193" y="1538" on="0"/>
        <pt x="287" y="1626" on="0"/>
        <pt x="434" y="1676" on="0"/>
        <pt x="531" y="1676" on="1"/>
        <pt x="640" y="1676" on="0"/>
        <pt x="794" y="1611" on="0"/>
        <pt x="884" y="1485" on="0"/>
        <pt x="924" y="1317" on="0"/>
        <pt x="924" y="1205" on="1"/>
        <pt x="924" y="1143" on="1"/>
        <pt x="776" y="1143" on="1"/>
        <pt x="776" y="1200" on="1"/>
        <pt x="776" y="1288" on="0"/>
        <pt x="758" y="1406" on="0"/>
        <pt x="707" y="1505" on="0"/>
        <pt x="608" y="1552" on="0"/>
        <pt x="532" y="1552" on="1"/>
        <pt x="450" y="1552" on="0"/>
        <pt x="343" y="1500" on="0"/>
        <pt x="289" y="1394" on="0"/>
        <pt x="269" y="1269" on="0"/>
        <pt x="269" y="1178" on="1"/>
        <pt x="269" y="927" on="1"/>
        <pt x="690" y="927" on="1"/>
        <pt x="690" y="814" on="1"/>
        <pt x="269" y="814" on="1"/>
        <pt x="269" y="474" on="1"/>
        <pt x="269" y="281" on="0"/>
        <pt x="384" y="105" on="0"/>
        <pt x="532" y="105" on="1"/>
        <pt x="593" y="105" on="0"/>
        <pt x="681" y="140" on="0"/>
        <pt x="734" y="198" on="0"/>
        <pt x="765" y="293" on="0"/>
        <pt x="776" y="394" on="0"/>
        <pt x="776" y="464" on="1"/>
        <pt x="776" y="542" on="1"/>
        <pt x="924" y="542" on="1"/>
        <pt x="924" y="475" on="1"/>
        <pt x="924" y="384" on="0"/>
        <pt x="902" y="239" on="0"/>
        <pt x="847" y="111" on="0"/>
        <pt x="759" y="27" on="0"/>
        <pt x="622" y="-21" on="0"/>
      </contour>
    </TTGlyph>
    <TTGlyph name="afii10054" xMin="83" yMin="-20" xMax="880" yMax="1676">
      <component glyphName="S" x="0" y="0" flags="0x1204"/>
    </TTGlyph>
    <TTGlyph name="afii10055" xMin="151" yMin="0" xMax="305" yMax="1658">
      <contour>
        <pt x="151" y="0" on="1"/>
        <pt x="151" y="1658" on="1"/>
        <pt x="305" y="1658" on="1"/>
        <pt x="305" y="0" on="1"/>
      </contour>
    </TTGlyph>
    <TTGlyph name="afii10056" xMin="-17" yMin="0" xMax="473" yMax="1979">
      <component glyphName="uni0308" x="21" y="321" flags="0x1004"/>
      <component glyphName="afii10055" x="0" y="0" flags="0x1204"/>
    </TTGlyph>
    <TTGlyph name="afii10057" xMin="16" yMin="-73" xMax="426" yMax="1658">
      <contour>
        <pt x="16" y="-73" on="1"/>
        <pt x="16" y="45" on="1"/>
        <pt x="75" y="45" on="0"/>
        <pt x="152" y="53" on="0"/>
        <pt x="212" y="80" on="0"/>
        <pt x="244" y="116" on="0"/>
        <pt x="264" y="187" on="0"/>
        <pt x="269" y="268" on="0"/>
        <pt x="269" y="334" on="1"/>
        <pt x="269" y="1658" on="1"/>
        <pt x="426" y="1658" on="1"/>
        <pt x="426" y="324" on="1"/>
        <pt x="426" y="237" on="0"/>
        <pt x="410" y="119" on="0"/>
        <pt x="369" y="17" on="0"/>
        <pt x="295" y="-41" on="0"/>
        <pt x="177" y="-73" on="0"/>
        <pt x="93" y="-73" on="1"/>
      </contour>
    </TTGlyph>
    <TTGlyph name="afii10058" xMin="38" yMin="-5" xMax="1618" yMax="1658">
      <contour>
        <pt x="38" y="-4" on="1"/>
        <pt x="38" y="117" on="1"/>
        <pt x="47" y="117" on="0"/>
        <pt x="56" y="117" on="1"/>
        <pt x="96" y="117" on="0"/>
        <pt x="126" y="124" on="1"/>
        <pt x="162" y="133" on="0"/>
        <pt x="218" y="191" on="0"/>
        <pt x="253" y="270" on="0"/>
        <pt x="281" y="420" on="0"/>
        <pt x="299" y="587" on="0"/>
        <pt x="309" y="720" on="1"/>
        <pt x="374" y="1658" on="1"/>
        <pt x="1019" y="1658" on="1"/>
        <pt x="1019" y="963" on="1"/>
        <pt x="1141" y="963" on="1"/>
        <pt x="1388" y="963" on="0"/>
        <pt x="1618" y="733" on="0"/>
        <pt x="1618" y="476" on="1"/>
        <pt x="1618" y="243" on="0"/>
        <pt x="1392" y="0" on="0"/>
        <pt x="1148" y="0" on="1"/>
        <pt x="862" y="0" on="1"/>
        <pt x="862" y="1540" on="1"/>
        <pt x="515" y="1540" on="1"/>
        <pt x="455" y="720" on="1"/>
        <pt x="446" y="600" on="0"/>
        <pt x="428" y="430" on="0"/>
        <pt x="399" y="266" on="0"/>
        <pt x="360" y="160" on="0"/>
        <pt x="305" y="69" on="0"/>
        <pt x="268" y="44" on="1"/>
        <pt x="230" y="20" on="0"/>
        <pt x="182" y="7" on="1"/>
        <pt x="137" y="-5" on="0"/>
        <pt x="80" y="-5" on="1"/>
        <pt x="76" y="-5" on="0"/>
        <pt x="71" y="-5" on="1"/>
      </contour>
      <contour>
        <pt x="1019" y="120" on="1"/>
        <pt x="1150" y="120" on="1"/>
        <pt x="1321" y="120" on="0"/>
        <pt x="1466" y="285" on="0"/>
        <pt x="1466" y="478" on="1"/>
        <pt x="1466" y="664" on="0"/>
        <pt x="1322" y="843" on="0"/>
        <pt x="1148" y="843" on="1"/>
        <pt x="1019" y="843" on="1"/>
      </contour>
    </TTGlyph>
    <TTGlyph name="afii10059" xMin="144" yMin="0" xMax="1506" yMax="1660">
      <contour>
        <pt x="1036" y="0" on="1"/>
        <pt x="750" y="1" on="1"/>
        <pt x="750" y="843" on="1"/>
        <pt x="301" y="843" on="1"/>
        <pt x="301" y="1" on="1"/>
        <pt x="144" y="1" on="1"/>
        <pt x="144" y="1660" on="1"/>
        <pt x="301" y="1660" on="1"/>
        <pt x="301" y="959" on="1"/>
        <pt x="750" y="959" on="1"/>
        <pt x="750" y="1660" on="1"/>
        <pt x="907" y="1660" on="1"/>
        <pt x="907" y="963" on="1"/>
        <pt x="1029" y="963" on="1"/>
        <pt x="1276" y="963" on="0"/>
        <pt x="1506" y="733" on="0"/>
        <pt x="1506" y="476" on="1"/>
        <pt x="1506" y="243" on="0"/>
        <pt x="1280" y="0" on="0"/>
      </contour>
      <contour>
        <pt x="907" y="120" on="1"/>
        <pt x="1038" y="120" on="1"/>
        <pt x="1209" y="120" on="0"/>
        <pt x="1354" y="285" on="0"/>
        <pt x="1354" y="478" on="1"/>
        <pt x="1354" y="664" on="0"/>
        <pt x="1210" y="843" on="0"/>
        <pt x="1036" y="843" on="1"/>
        <pt x="907" y="843" on="1"/>
      </contour>
    </TTGlyph>
    <TTGlyph name="afii10060" xMin="-76" yMin="0" xMax="839" yMax="1658">
      <contour>
        <pt x="223" y="0" on="1"/>
        <pt x="223" y="1538" on="1"/>
        <pt x="-76" y="1538" on="1"/>
        <pt x="-76" y="1658" on="1"/>
        <pt x="688" y="1658" on="1"/>
        <pt x="688" y="1538" on="1"/>
        <pt x="377" y="1538" on="1"/>
        <pt x="377" y="896" on="1"/>
        <pt x="408" y="924" on="0"/>
        <pt x="530" y="974" on="0"/>
        <pt x="608" y="974" on="1"/>
        <pt x="706" y="974" on="0"/>
        <pt x="839" y="872" on="0"/>
        <pt x="839" y="769" on="1"/>
        <pt x="839" y="0" on="1"/>
        <pt x="688" y="0" on="1"/>
        <pt x="688" y="744" on="1"/>
        <pt x="688" y="879" on="0"/>
        <pt x="566" y="879" on="1"/>
        <pt x="463" y="879" on="0"/>
        <pt x="377" y="800" on="1"/>
        <pt x="377" y="0" on="1"/>
      </contour>
    </TTGlyph>
    <TTGlyph name="afii10061" xMin="144" yMin="0" xMax="971" yMax="2198">
      <component glyphName="acutecomb" x="510" y="540" flags="0x1004"/>
      <component glyphName="afii10028" x="0" y="0" flags="0x1204"/>
    </TTGlyph>
    <TTGlyph name="afii10062" xMin="57" yMin="-215" xMax="890" yMax="2054">
      <component glyphName="uni0306" x="108" y="396" flags="0x1004"/>
      <component glyphName="afii10037" x="0" y="0" flags="0x1204"/>
    </TTGlyph>
    <TTGlyph name="afii10065" xMin="81" yMin="-19" xMax="719" yMax="1202">
      <component glyphName="a" x="0" y="0" flags="0x1204"/>
    </TTGlyph>
    <TTGlyph name="afii10066" xMin="119" yMin="-19" xMax="804" yMax="1704">
      <contour>
        <pt x="454" y="-19" on="1"/>
        <pt x="451" y="-19" on="0"/>
        <pt x="448" y="-19" on="1"/>
        <pt x="306" y="-18" on="0"/>
        <pt x="214" y="80" on="1"/>
        <pt x="120" y="180" on="0"/>
        <pt x="119" y="375" on="1"/>
        <pt x="119" y="1073" on="1"/>
        <pt x="119" y="1194" on="0"/>
        <pt x="138" y="1368" on="0"/>
        <pt x="171" y="1481" on="0"/>
        <pt x="231" y="1555" on="0"/>
        <pt x="296" y="1593" on="0"/>
        <pt x="397" y="1622" on="0"/>
        <pt x="492" y="1640" on="0"/>
        <pt x="634" y="1678" on="0"/>
        <pt x="698" y="1704" on="1"/>
        <pt x="728" y="1576" on="1"/>
        <pt x="667" y="1551" on="0"/>
        <pt x="537" y="1518" on="0"/>
        <pt x="454" y="1506" on="0"/>
        <pt x="371" y="1484" on="0"/>
        <pt x="324" y="1448" on="0"/>
        <pt x="285" y="1374" on="0"/>
        <pt x="269" y="1250" on="0"/>
        <pt x="269" y="1155" on="1"/>
        <pt x="269" y="1008" on="1"/>
        <pt x="310" y="1044" on="0"/>
        <pt x="459" y="1101" on="0"/>
        <pt x="525" y="1102" on="1"/>
        <pt x="662" y="1102" on="0"/>
        <pt x="804" y="893" on="0"/>
        <pt x="804" y="650" on="1"/>
        <pt x="804" y="442" on="1"/>
        <pt x="804" y="308" on="0"/>
        <pt x="756" y="125" on="0"/>
        <pt x="660" y="25" on="0"/>
        <pt x="539" y="-17" on="0"/>
      </contour>
      <contour>
        <pt x="465" y="94" on="1"/>
        <pt x="564" y="96" on="0"/>
        <pt x="653" y="230" on="0"/>
        <pt x="653" y="403" on="1"/>
        <pt x="653" y="687" on="1"/>
        <pt x="653" y="860" on="0"/>
        <pt x="582" y="996" on="0"/>
        <pt x="494" y="996" on="1"/>
        <pt x="443" y="996" on="0"/>
        <pt x="310" y="939" on="0"/>
        <pt x="269" y="904" on="1"/>
        <pt x="269" y="371" on="1"/>
        <pt x="270" y="228" on="0"/>
        <pt x="322" y="160" on="1"/>
        <pt x="373" y="94" on="0"/>
        <pt x="460" y="94" on="1"/>
        <pt x="462" y="94" on="0"/>
      </contour>
    </TTGlyph>
    <TTGlyph name="afii10067" xMin="114" yMin="0" xMax="731" yMax="1184">
      <contour>
        <pt x="114" y="0" on="1"/>
        <pt x="114" y="1184" on="1"/>
        <pt x="402" y="1184" on="1"/>
        <pt x="485" y="1184" on="0"/>
        <pt x="606" y="1137" on="0"/>
        <pt x="673" y="1055" on="0"/>
        <pt x="703" y="958" on="0"/>
        <pt x="704" y="899" on="1"/>
        <pt x="704" y="896" on="0"/>
        <pt x="704" y="894" on="1"/>
        <pt x="704" y="697" on="0"/>
        <pt x="554" y="642" on="1"/>
        <pt x="731" y="595" on="0"/>
        <pt x="731" y="344" on="1"/>
        <pt x="731" y="262" on="0"/>
        <pt x="703" y="144" on="0"/>
        <pt x="636" y="48" on="0"/>
        <pt x="510" y="0" on="0"/>
        <pt x="418" y="0" on="1"/>
      </contour>
      <contour>
        <pt x="261" y="115" on="1"/>
        <pt x="392" y="115" on="1"/>
        <pt x="492" y="115" on="0"/>
        <pt x="583" y="230" on="0"/>
        <pt x="583" y="348" on="1"/>
        <pt x="583" y="478" on="0"/>
        <pt x="491" y="574" on="0"/>
        <pt x="402" y="574" on="1"/>
        <pt x="261" y="574" on="1"/>
      </contour>
      <contour>
        <pt x="261" y="685" on="1"/>
        <pt x="411" y="685" on="1"/>
        <pt x="483" y="685" on="0"/>
        <pt x="569" y="788" on="0"/>
        <pt x="569" y="884" on="1"/>
        <pt x="569" y="975" on="0"/>
        <pt x="476" y="1069" on="0"/>
        <pt x="386" y="1069" on="1"/>
        <pt x="261" y="1069" on="1"/>
      </contour>
    </TTGlyph>
    <TTGlyph name="afii10068" xMin="114" yMin="0" xMax="551" yMax="1184">
      <contour>
        <pt x="114" y="0" on="1"/>
        <pt x="114" y="1184" on="1"/>
        <pt x="551" y="1184" on="1"/>
        <pt x="551" y="1072" on="1"/>
        <pt x="264" y="1072" on="1"/>
        <pt x="264" y="0" on="1"/>
      </contour>
    </TTGlyph>
    <TTGlyph name="afii10069" xMin="20" yMin="-285" xMax="900" yMax="1184">
      <contour>
        <pt x="20" y="-285" on="1"/>
        <pt x="20" y="103" on="1"/>
        <pt x="96" y="151" on="0"/>
        <pt x="190" y="311" on="0"/>
        <pt x="257" y="643" on="0"/>
        <pt x="268" y="907" on="1"/>
        <pt x="287" y="1184" on="1"/>
        <pt x="781" y="1184" on="1"/>
        <pt x="781" y="108" on="1"/>
        <pt x="900" y="108" on="1"/>
        <pt x="900" y="-285" on="1"/>
        <pt x="786" y="-285" on="1"/>
        <pt x="773" y="0" on="1"/>
        <pt x="146" y="0" on="1"/>
        <pt x="133" y="-285" on="1"/>
      </contour>
      <contour>
        <pt x="176" y="108" on="1"/>
        <pt x="635" y="108" on="1"/>
        <pt x="635" y="1073" on="1"/>
        <pt x="407" y="1073" on="1"/>
        <pt x="389" y="877" on="1"/>
        <pt x="379" y="620" on="0"/>
        <pt x="325" y="308" on="0"/>
        <pt x="244" y="153" on="0"/>
      </contour>
    </TTGlyph>
    <TTGlyph name="afii10070" xMin="92" yMin="-19" xMax="721" yMax="1202">
      <component glyphName="e" x="0" y="0" flags="0x1204"/>
    </TTGlyph>
    <TTGlyph name="afii10071" xMin="92" yMin="-19" xMax="721" yMax="1505">
      <component glyphName="uni0308" x="200" y="-153" flags="0x1004"/>
      <component glyphName="afii10070" x="0" y="0" flags="0x1204"/>
    </TTGlyph>
    <TTGlyph name="afii10072" xMin="8" yMin="0" xMax="1085" yMax="1184">
      <contour>
        <pt x="8" y="0" on="1"/>
        <pt x="343" y="606" on="1"/>
        <pt x="26" y="1184" on="1"/>
        <pt x="169" y="1184" on="1"/>
        <pt x="467" y="616" on="1"/>
        <pt x="485" y="616" on="1"/>
        <pt x="485" y="1184" on="1"/>
        <pt x="610" y="1184" on="1"/>
        <pt x="610" y="616" on="1"/>
        <pt x="628" y="616" on="1"/>
        <pt x="924" y="1184" on="1"/>
        <pt x="1067" y="1184" on="1"/>
        <pt x="751" y="606" on="1"/>
        <pt x="1085" y="0" on="1"/>
        <pt x="944" y="0" on="1"/>
        <pt x="629" y="587" on="1"/>
        <pt x="610" y="587" on="1"/>
        <pt x="610" y="0" on="1"/>
        <pt x="485" y="0" on="1"/>
        <pt x="485" y="587" on="1"/>
        <pt x="465" y="587" on="1"/>
        <pt x="149" y="0" on="1"/>
      </contour>
    </TTGlyph>
    <TTGlyph name="afii10073" xMin="72" yMin="-20" xMax="676" yMax="1202">
      <contour>
        <pt x="376" y="-20" on="1"/>
        <pt x="80" y="-19" on="0"/>
        <pt x="80" y="333" on="1"/>
        <pt x="213" y="333" on="1"/>
        <pt x="213" y="90" on="0"/>
        <pt x="378" y="89" on="1"/>
        <pt x="379" y="89" on="0"/>
        <pt x="381" y="89" on="1"/>
        <pt x="467" y="89" on="0"/>
        <pt x="504" y="152" on="1"/>
        <pt x="540" y="213" on="0"/>
        <pt x="540" y="325" on="1"/>
        <pt x="540" y="331" on="0"/>
        <pt x="540" y="337" on="1"/>
        <pt x="538" y="453" on="0"/>
        <pt x="426" y="559" on="0"/>
        <pt x="292" y="559" on="1"/>
        <pt x="292" y="670" on="1"/>
        <pt x="428" y="670" on="0"/>
        <pt x="535" y="768" on="0"/>
        <pt x="538" y="872" on="1"/>
        <pt x="538" y="880" on="0"/>
        <pt x="538" y="888" on="1"/>
        <pt x="538" y="974" on="0"/>
        <pt x="498" y="1030" on="1"/>
        <pt x="454" y="1090" on="0"/>
        <pt x="376" y="1090" on="1"/>
        <pt x="204" y="1090" on="0"/>
        <pt x="204" y="874" on="1"/>
        <pt x="72" y="874" on="1"/>
        <pt x="72" y="1202" on="0"/>
        <pt x="380" y="1202" on="1"/>
        <pt x="455" y="1202" on="0"/>
        <pt x="571" y="1149" on="0"/>
        <pt x="640" y="1058" on="0"/>
        <pt x="657" y="1002" on="1"/>
        <pt x="673" y="949" on="0"/>
        <pt x="673" y="887" on="1"/>
        <pt x="673" y="883" on="0"/>
        <pt x="673" y="880" on="1"/>
        <pt x="671" y="759" on="0"/>
        <pt x="557" y="630" on="0"/>
        <pt x="472" y="617" on="1"/>
        <pt x="516" y="605" on="0"/>
        <pt x="580" y="570" on="0"/>
        <pt x="642" y="505" on="0"/>
        <pt x="675" y="396" on="0"/>
        <pt x="676" y="320" on="1"/>
        <pt x="676" y="316" on="0"/>
        <pt x="676" y="312" on="1"/>
        <pt x="676" y="155" on="0"/>
        <pt x="600" y="68" on="1"/>
        <pt x="523" y="-20" on="0"/>
        <pt x="379" y="-20" on="1"/>
        <pt x="378" y="-20" on="0"/>
      </contour>
    </TTGlyph>
    <TTGlyph name="afii10074" xMin="114" yMin="0" xMax="758" yMax="1184">
      <contour>
        <pt x="114" y="0" on="1"/>
        <pt x="114" y="1184" on="1"/>
        <pt x="242" y="1184" on="1"/>
        <pt x="242" y="272" on="1"/>
        <pt x="637" y="1184" on="1"/>
        <pt x="758" y="1184" on="1"/>
        <pt x="758" y="0" on="1"/>
        <pt x="632" y="0" on="1"/>
        <pt x="632" y="909" on="1"/>
        <pt x="238" y="0" on="1"/>
      </contour>
    </TTGlyph>
    <TTGlyph name="afii10075" xMin="114" yMin="0" xMax="758" yMax="1580">
      <component glyphName="uni0306" x="70" y="-78" flags="0x1004"/>
      <component glyphName="afii10074" x="0" y="0" flags="0x1204"/>
    </TTGlyph>
    <TTGlyph name="afii10076" xMin="114" yMin="0" xMax="783" yMax="1184">
      <contour>
        <pt x="114" y="0" on="1"/>
        <pt x="114" y="1184" on="1"/>
        <pt x="264" y="1184" on="1"/>
        <pt x="264" y="663" on="1"/>
        <pt x="350" y="663" on="1"/>
        <pt x="618" y="1184" on="1"/>
        <pt x="774" y="1184" on="1"/>
        <pt x="486" y="613" on="1"/>
        <pt x="783" y="0" on="1"/>
        <pt x="626" y="0" on="1"/>
        <pt x="349" y="569" on="1"/>
        <pt x="264" y="569" on="1"/>
        <pt x="264" y="0" on="1"/>
      </contour>
    </TTGlyph>
    <TTGlyph name="afii10077" xMin="23" yMin="-10" xMax="825" yMax="1184">
      <contour>
        <pt x="23" y="-10" on="1"/>
        <pt x="23" y="104" on="1"/>
        <pt x="72" y="105" on="0"/>
        <pt x="136" y="135" on="0"/>
        <pt x="185" y="200" on="0"/>
        <pt x="216" y="334" on="0"/>
        <pt x="238" y="511" on="0"/>
        <pt x="248" y="654" on="1"/>
        <pt x="285" y="1184" on="1"/>
        <pt x="825" y="1184" on="1"/>
        <pt x="825" y="0" on="1"/>
        <pt x="675" y="0" on="1"/>
        <pt x="675" y="1068" on="1"/>
        <pt x="416" y="1068" on="1"/>
        <pt x="386" y="654" on="1"/>
        <pt x="377" y="516" on="0"/>
        <pt x="354" y="325" on="0"/>
        <pt x="318" y="169" on="0"/>
        <pt x="270" y="76" on="0"/>
        <pt x="197" y="14" on="0"/>
        <pt x="107" y="-10" on="0"/>
        <pt x="44" y="-10" on="1"/>
      </contour>
    </TTGlyph>
    <TTGlyph name="afii10078" xMin="106" yMin="0" xMax="909" yMax="1184">
      <contour>
        <pt x="106" y="0" on="1"/>
        <pt x="117" y="1184" on="1"/>
        <pt x="230" y="1184" on="1"/>
        <pt x="507" y="370" on="1"/>
        <pt x="783" y="1184" on="1"/>
        <pt x="899" y="1184" on="1"/>
        <pt x="909" y="0" on="1"/>
        <pt x="781" y="0" on="1"/>
        <pt x="778" y="832" on="1"/>
        <pt x="530" y="122" on="1"/>
        <pt x="483" y="122" on="1"/>
        <pt x="237" y="829" on="1"/>
        <pt x="234" y="0" on="1"/>
      </contour>
    </TTGlyph>
    <TTGlyph name="afii10079" xMin="114" yMin="0" xMax="784" yMax="1184">
      <contour>
        <pt x="114" y="0" on="1"/>
        <pt x="114" y="1184" on="1"/>
        <pt x="264" y="1184" on="1"/>
        <pt x="264" y="669" on="1"/>
        <pt x="634" y="669" on="1"/>
        <pt x="634" y="1184" on="1"/>
        <pt x="784" y="1184" on="1"/>
        <pt x="784" y="0" on="1"/>
        <pt x="634" y="0" on="1"/>
        <pt x="634" y="556" on="1"/>
        <pt x="264" y="556" on="1"/>
        <pt x="264" y="0" on="1"/>
      </contour>
    </TTGlyph>
    <TTGlyph name="afii10080" xMin="92" yMin="-19" xMax="724" yMax="1202">
      <component glyphName="o" x="0" y="0" flags="0x1204"/>
    </TTGlyph>
    <TTGlyph name="afii10081" xMin="114" yMin="0" xMax="747" yMax="1184">
      <contour>
        <pt x="114" y="0" on="1"/>
        <pt x="114" y="1184" on="1"/>
        <pt x="747" y="1184" on="1"/>
        <pt x="747" y="0" on="1"/>
        <pt x="597" y="0" on="1"/>
        <pt x="597" y="1067" on="1"/>
        <pt x="264" y="1067" on="1"/>
        <pt x="264" y="0" on="1"/>
      </contour>
    </TTGlyph>
    <TTGlyph name="afii10082" xMin="115" yMin="-390" xMax="760" yMax="1202">
      <component glyphName="p" x="0" y="0" flags="0x1204"/>
    </TTGlyph>
    <TTGlyph name="afii10083" xMin="92" yMin="-19" xMax="711" yMax="1202">
      <component glyphName="c" x="0" y="0" flags="0x1204"/>
    </TTGlyph>
    <TTGlyph name="afii10084" xMin="14" yMin="0" xMax="672" yMax="1184">
      <contour>
        <pt x="270" y="0" on="1"/>
        <pt x="270" y="1070" on="1"/>
        <pt x="14" y="1070" on="1"/>
        <pt x="14" y="1184" on="1"/>
        <pt x="672" y="1184" on="1"/>
        <pt x="672" y="1070" on="1"/>
        <pt x="420" y="1070" on="1"/>
        <pt x="420" y="0" on="1"/>
      </contour>
    </TTGlyph>
    <TTGlyph name="afii10085" xMin="50" yMin="-300" xMax="739" yMax="1184">
      <contour>
        <pt x="87" y="-300" on="1"/>
        <pt x="87" y="-175" on="1"/>
        <pt x="196" y="-174" on="0"/>
        <pt x="308" y="-110" on="0"/>
        <pt x="316" y="-51" on="1"/>
        <pt x="318" y="-34" on="0"/>
        <pt x="318" y="-14" on="1"/>
        <pt x="318" y="33" on="0"/>
        <pt x="305" y="92" on="1"/>
        <pt x="50" y="1184" on="1"/>
        <pt x="193" y="1184" on="1"/>
        <pt x="322" y="562" on="1"/>
        <pt x="403" y="153" on="1"/>
        <pt x="475" y="557" on="1"/>
        <pt x="593" y="1184" on="1"/>
        <pt x="739" y="1184" on="1"/>
        <pt x="467" y="-37" on="1"/>
        <pt x="449" y="-117" on="0"/>
        <pt x="387" y="-220" on="0"/>
        <pt x="285" y="-275" on="0"/>
        <pt x="174" y="-296" on="0"/>
      </contour>
    </TTGlyph>
    <TTGlyph name="afii10086" xMin="92" yMin="-390" xMax="1056" yMax="1658">
      <contour>
        <pt x="504" y="-390" on="1"/>
        <pt x="504" y="81" on="1"/>
        <pt x="460" y="81" on="1"/>
        <pt x="418" y="81" on="0"/>
        <pt x="348" y="89" on="0"/>
        <pt x="271" y="113" on="0"/>
        <pt x="210" y="152" on="0"/>
        <pt x="152" y="218" on="0"/>
        <pt x="115" y="307" on="0"/>
        <pt x="92" y="435" on="0"/>
        <pt x="92" y="513" on="1"/>
        <pt x="92" y="726" on="1"/>
        <pt x="92" y="846" on="0"/>
        <pt x="144" y="1015" on="0"/>
        <pt x="243" y="1109" on="0"/>
        <pt x="366" y="1150" on="0"/>
        <pt x="446" y="1150" on="1"/>
        <pt x="504" y="1150" on="1"/>
        <pt x="504" y="1658" on="1"/>
        <pt x="642" y="1658" on="1"/>
        <pt x="642" y="1150" on="1"/>
        <pt x="706" y="1150" on="1"/>
        <pt x="785" y="1150" on="0"/>
        <pt x="907" y="1109" on="0"/>
        <pt x="1004" y="1015" on="0"/>
        <pt x="1056" y="846" on="0"/>
        <pt x="1056" y="726" on="1"/>
        <pt x="1056" y="513" on="1"/>
        <pt x="1056" y="404" on="0"/>
        <pt x="1013" y="244" on="0"/>
        <pt x="946" y="152" on="0"/>
        <pt x="846" y="98" on="0"/>
        <pt x="751" y="81" on="0"/>
        <pt x="691" y="81" on="1"/>
        <pt x="642" y="81" on="1"/>
        <pt x="642" y="-390" on="1"/>
      </contour>
      <contour>
        <pt x="464" y="188" on="1"/>
        <pt x="504" y="188" on="1"/>
        <pt x="504" y="1049" on="1"/>
        <pt x="450" y="1049" on="1"/>
        <pt x="405" y="1049" on="0"/>
        <pt x="342" y="1036" on="0"/>
        <pt x="283" y="999" on="0"/>
        <pt x="248" y="932" on="0"/>
        <pt x="227" y="822" on="0"/>
        <pt x="227" y="744" on="1"/>
        <pt x="227" y="512" on="1"/>
        <pt x="227" y="429" on="0"/>
        <pt x="250" y="311" on="0"/>
        <pt x="288" y="241" on="0"/>
        <pt x="351" y="201" on="0"/>
        <pt x="417" y="188" on="0"/>
      </contour>
      <contour>
        <pt x="683" y="188" on="1"/>
        <pt x="730" y="188" on="0"/>
        <pt x="796" y="201" on="0"/>
        <pt x="860" y="241" on="0"/>
        <pt x="899" y="311" on="0"/>
        <pt x="922" y="429" on="0"/>
        <pt x="922" y="512" on="1"/>
        <pt x="922" y="744" on="1"/>
        <pt x="922" y="840" on="0"/>
        <pt x="892" y="965" on="0"/>
        <pt x="828" y="1027" on="0"/>
        <pt x="754" y="1049" on="0"/>
        <pt x="697" y="1049" on="1"/>
        <pt x="642" y="1049" on="1"/>
        <pt x="642" y="188" on="1"/>
      </contour>
    </TTGlyph>
    <TTGlyph name="afii10087" xMin="33" yMin="0" xMax="748" yMax="1184">
      <component glyphName="x" x="0" y="0" flags="0x1204"/>
    </TTGlyph>
    <TTGlyph name="afii10088" xMin="114" yMin="-285" xMax="873" yMax="1184">
      <contour>
        <pt x="762" y="-285" on="1"/>
        <pt x="749" y="0" on="1"/>
        <pt x="114" y="0" on="1"/>
        <pt x="114" y="1184" on="1"/>
        <pt x="264" y="1184" on="1"/>
        <pt x="264" y="106" on="1"/>
        <pt x="605" y="106" on="1"/>
        <pt x="605" y="1184" on="1"/>
        <pt x="755" y="1184" on="1"/>
        <pt x="755" y="106" on="1"/>
        <pt x="873" y="106" on="1"/>
        <pt x="873" y="-285" on="1"/>
      </contour>
    </TTGlyph>
    <TTGlyph name="afii10089" xMin="81" yMin="0" xMax="698" yMax="1184">
      <contour>
        <pt x="548" y="0" on="1"/>
        <pt x="548" y="494" on="1"/>
        <pt x="435" y="473" on="0"/>
        <pt x="374" y="473" on="1"/>
        <pt x="239" y="473" on="0"/>
        <pt x="81" y="602" on="0"/>
        <pt x="81" y="746" on="1"/>
        <pt x="81" y="1184" on="1"/>
        <pt x="231" y="1184" on="1"/>
        <pt x="231" y="743" on="1"/>
        <pt x="231" y="662" on="0"/>
        <pt x="316" y="582" on="0"/>
        <pt x="406" y="582" on="1"/>
        <pt x="471" y="582" on="0"/>
        <pt x="548" y="600" on="1"/>
        <pt x="548" y="1184" on="1"/>
        <pt x="698" y="1184" on="1"/>
        <pt x="698" y="0" on="1"/>
      </contour>
    </TTGlyph>
    <TTGlyph name="afii10090" xMin="114" yMin="0" xMax="1071" yMax="1184">
      <contour>
        <pt x="114" y="0" on="1"/>
        <pt x="114" y="1184" on="1"/>
        <pt x="260" y="1184" on="1"/>
        <pt x="260" y="106" on="1"/>
        <pt x="520" y="106" on="1"/>
        <pt x="520" y="1184" on="1"/>
        <pt x="666" y="1184" on="1"/>
        <pt x="666" y="106" on="1"/>
        <pt x="925" y="106" on="1"/>
        <pt x="925" y="1184" on="1"/>
        <pt x="1071" y="1184" on="1"/>
        <pt x="1071" y="0" on="1"/>
      </contour>
    </TTGlyph>
    <TTGlyph name="afii10091" xMin="114" yMin="-285" xMax="1196" yMax="1184">
      <contour>
        <pt x="1086" y="-285" on="1"/>
        <pt x="1071" y="0" on="1"/>
        <pt x="114" y="0" on="1"/>
        <pt x="114" y="1184" on="1"/>
        <pt x="259" y="1184" on="1"/>
        <pt x="259" y="106" on="1"/>
        <pt x="524" y="106" on="1"/>
        <pt x="524" y="1184" on="1"/>
        <pt x="669" y="1184" on="1"/>
        <pt x="669" y="106" on="1"/>
        <pt x="932" y="106" on="1"/>
        <pt x="932" y="1184" on="1"/>
        <pt x="1077" y="1184" on="1"/>
        <pt x="1077" y="106" on="1"/>
        <pt x="1196" y="106" on="1"/>
        <pt x="1196" y="-285" on="1"/>
      </contour>
    </TTGlyph>
    <TTGlyph name="afii10092" xMin="-5" yMin="0" xMax="873" yMax="1184">
      <contour>
        <pt x="248" y="0" on="1"/>
        <pt x="248" y="1072" on="1"/>
        <pt x="-5" y="1072" on="1"/>
        <pt x="-5" y="1184" on="1"/>
        <pt x="398" y="1184" on="1"/>
        <pt x="398" y="703" on="1"/>
        <pt x="471" y="703" on="1"/>
        <pt x="565" y="703" on="0"/>
        <pt x="706" y="669" on="0"/>
        <pt x="796" y="610" on="0"/>
        <pt x="851" y="519" on="0"/>
        <pt x="873" y="415" on="0"/>
        <pt x="873" y="348" on="1"/>
        <pt x="873" y="267" on="0"/>
        <pt x="836" y="147" on="0"/>
        <pt x="746" y="50" on="0"/>
        <pt x="580" y="0" on="0"/>
        <pt x="459" y="0" on="1"/>
      </contour>
      <contour>
        <pt x="398" y="95" on="1"/>
        <pt x="459" y="95" on="1"/>
        <pt x="542" y="95" on="0"/>
        <pt x="652" y="129" on="0"/>
        <pt x="712" y="198" on="0"/>
        <pt x="735" y="286" on="0"/>
        <pt x="735" y="349" on="1"/>
        <pt x="735" y="397" on="0"/>
        <pt x="723" y="469" on="0"/>
        <pt x="688" y="537" on="0"/>
        <pt x="629" y="581" on="0"/>
        <pt x="531" y="608" on="0"/>
        <pt x="464" y="608" on="1"/>
        <pt x="398" y="608" on="1"/>
      </contour>
    </TTGlyph>
    <TTGlyph name="afii10093" xMin="114" yMin="0" xMax="1039" yMax="1184">
      <contour>
        <pt x="114" y="0" on="1"/>
        <pt x="114" y="1184" on="1"/>
        <pt x="264" y="1184" on="1"/>
        <pt x="264" y="703" on="1"/>
        <pt x="337" y="703" on="1"/>
        <pt x="454" y="702" on="0"/>
        <pt x="615" y="653" on="0"/>
        <pt x="702" y="555" on="0"/>
        <pt x="739" y="433" on="0"/>
        <pt x="739" y="348" on="1"/>
        <pt x="739" y="267" on="0"/>
        <pt x="702" y="147" on="0"/>
        <pt x="612" y="50" on="0"/>
        <pt x="446" y="0" on="0"/>
        <pt x="325" y="0" on="1"/>
      </contour>
      <contour>
        <pt x="264" y="95" on="1"/>
        <pt x="325" y="95" on="1"/>
        <pt x="408" y="95" on="0"/>
        <pt x="518" y="129" on="0"/>
        <pt x="578" y="198" on="0"/>
        <pt x="601" y="286" on="0"/>
        <pt x="601" y="349" on="1"/>
        <pt x="601" y="397" on="0"/>
        <pt x="589" y="469" on="0"/>
        <pt x="554" y="537" on="0"/>
        <pt x="495" y="581" on="0"/>
        <pt x="397" y="608" on="0"/>
        <pt x="330" y="608" on="1"/>
        <pt x="264" y="608" on="1"/>
      </contour>
      <contour>
        <pt x="889" y="0" on="1"/>
        <pt x="889" y="1184" on="1"/>
        <pt x="1039" y="1184" on="1"/>
        <pt x="1039" y="0" on="1"/>
      </contour>
    </TTGlyph>
    <TTGlyph name="afii10094" xMin="114" yMin="0" xMax="739" yMax="1184">
      <contour>
        <pt x="114" y="0" on="1"/>
        <pt x="114" y="1184" on="1"/>
        <pt x="264" y="1184" on="1"/>
        <pt x="264" y="703" on="1"/>
        <pt x="337" y="703" on="1"/>
        <pt x="454" y="702" on="0"/>
        <pt x="615" y="653" on="0"/>
        <pt x="702" y="555" on="0"/>
        <pt x="739" y="433" on="0"/>
        <pt x="739" y="348" on="1"/>
        <pt x="739" y="267" on="0"/>
        <pt x="702" y="147" on="0"/>
        <pt x="612" y="50" on="0"/>
        <pt x="446" y="0" on="0"/>
        <pt x="325" y="0" on="1"/>
      </contour>
      <contour>
        <pt x="264" y="95" on="1"/>
        <pt x="325" y="95" on="1"/>
        <pt x="408" y="95" on="0"/>
        <pt x="518" y="129" on="0"/>
        <pt x="578" y="198" on="0"/>
        <pt x="601" y="286" on="0"/>
        <pt x="601" y="349" on="1"/>
        <pt x="601" y="397" on="0"/>
        <pt x="589" y="469" on="0"/>
        <pt x="554" y="537" on="0"/>
        <pt x="495" y="581" on="0"/>
        <pt x="397" y="608" on="0"/>
        <pt x="330" y="608" on="1"/>
        <pt x="264" y="608" on="1"/>
      </contour>
    </TTGlyph>
    <TTGlyph name="afii10095" xMin="101" yMin="-19" xMax="719" yMax="1192">
      <contour>
        <pt x="404" y="-19" on="1"/>
        <pt x="330" y="-19" on="0"/>
        <pt x="222" y="15" on="0"/>
        <pt x="155" y="74" on="0"/>
        <pt x="116" y="168" on="0"/>
        <pt x="101" y="272" on="0"/>
        <pt x="101" y="341" on="1"/>
        <pt x="101" y="367" on="1"/>
        <pt x="239" y="367" on="1"/>
        <pt x="239" y="341" on="1"/>
        <pt x="239" y="202" on="0"/>
        <pt x="316" y="94" on="0"/>
        <pt x="406" y="94" on="1"/>
        <pt x="508" y="94" on="0"/>
        <pt x="569" y="238" on="0"/>
        <pt x="569" y="434" on="1"/>
        <pt x="569" y="550" on="1"/>
        <pt x="257" y="550" on="1"/>
        <pt x="257" y="641" on="1"/>
        <pt x="569" y="641" on="1"/>
        <pt x="569" y="756" on="1"/>
        <pt x="569" y="946" on="0"/>
        <pt x="504" y="1080" on="0"/>
        <pt x="306" y="1080" on="0"/>
        <pt x="239" y="958" on="0"/>
        <pt x="239" y="824" on="1"/>
        <pt x="239" y="784" on="1"/>
        <pt x="101" y="784" on="1"/>
        <pt x="101" y="817" on="1"/>
        <pt x="101" y="886" on="0"/>
        <pt x="115" y="990" on="0"/>
        <pt x="155" y="1090" on="0"/>
        <pt x="221" y="1154" on="0"/>
        <pt x="332" y="1192" on="0"/>
        <pt x="407" y="1192" on="1"/>
        <pt x="465" y="1192" on="0"/>
        <pt x="557" y="1168" on="0"/>
        <pt x="622" y="1128" on="0"/>
        <pt x="669" y="1062" on="0"/>
        <pt x="697" y="989" on="0"/>
        <pt x="714" y="887" on="0"/>
        <pt x="719" y="790" on="0"/>
        <pt x="719" y="725" on="1"/>
        <pt x="719" y="459" on="1"/>
        <pt x="719" y="329" on="0"/>
        <pt x="691" y="158" on="0"/>
        <pt x="621" y="35" on="0"/>
        <pt x="498" y="-19" on="0"/>
      </contour>
    </TTGlyph>
    <TTGlyph name="afii10096" xMin="114" yMin="-19" xMax="1003" yMax="1202">
      <contour>
        <pt x="709" y="-19" on="1"/>
        <pt x="542" y="-19" on="0"/>
        <pt x="414" y="200" on="0"/>
        <pt x="414" y="428" on="1"/>
        <pt x="414" y="537" on="1"/>
        <pt x="250" y="537" on="1"/>
        <pt x="250" y="0" on="1"/>
        <pt x="114" y="0" on="1"/>
        <pt x="114" y="1184" on="1"/>
        <pt x="250" y="1184" on="1"/>
        <pt x="250" y="638" on="1"/>
        <pt x="414" y="638" on="1"/>
        <pt x="414" y="756" on="1"/>
        <pt x="414" y="868" on="0"/>
        <pt x="441" y="1025" on="0"/>
        <pt x="507" y="1144" on="0"/>
        <pt x="623" y="1202" on="0"/>
        <pt x="709" y="1202" on="1"/>
        <pt x="875" y="1202" on="0"/>
        <pt x="1003" y="984" on="0"/>
        <pt x="1003" y="756" on="1"/>
        <pt x="1003" y="428" on="1"/>
        <pt x="1003" y="200" on="0"/>
        <pt x="875" y="-19" on="0"/>
      </contour>
      <contour>
        <pt x="709" y="94" on="1"/>
        <pt x="752" y="94" on="0"/>
        <pt x="812" y="127" on="0"/>
        <pt x="846" y="178" on="0"/>
        <pt x="863" y="269" on="0"/>
        <pt x="868" y="353" on="0"/>
        <pt x="868" y="420" on="1"/>
        <pt x="868" y="764" on="1"/>
        <pt x="868" y="831" on="0"/>
        <pt x="863" y="915" on="0"/>
        <pt x="846" y="1006" on="0"/>
        <pt x="812" y="1057" on="0"/>
        <pt x="752" y="1090" on="0"/>
        <pt x="709" y="1090" on="1"/>
        <pt x="665" y="1090" on="0"/>
        <pt x="605" y="1057" on="0"/>
        <pt x="571" y="1006" on="0"/>
        <pt x="554" y="915" on="0"/>
        <pt x="549" y="831" on="0"/>
        <pt x="549" y="764" on="1"/>
        <pt x="549" y="420" on="1"/>
        <pt x="549" y="353" on="0"/>
        <pt x="554" y="269" on="0"/>
        <pt x="571" y="178" on="0"/>
        <pt x="605" y="127" on="0"/>
        <pt x="665" y="94" on="0"/>
      </contour>
    </TTGlyph>
    <TTGlyph name="afii10097" xMin="32" yMin="0" xMax="711" yMax="1184">
      <contour>
        <pt x="32" y="0" on="1"/>
        <pt x="266" y="513" on="1"/>
        <pt x="177" y="548" on="0"/>
        <pt x="97" y="723" on="0"/>
        <pt x="97" y="837" on="1"/>
        <pt x="97" y="917" on="0"/>
        <pt x="132" y="1035" on="0"/>
        <pt x="218" y="1133" on="0"/>
        <pt x="381" y="1184" on="0"/>
        <pt x="501" y="1184" on="1"/>
        <pt x="711" y="1184" on="1"/>
        <pt x="711" y="0" on="1"/>
        <pt x="561" y="0" on="1"/>
        <pt x="561" y="479" on="1"/>
        <pt x="456" y="479" on="0"/>
        <pt x="406" y="485" on="1"/>
        <pt x="194" y="0" on="1"/>
      </contour>
      <contour>
        <pt x="508" y="572" on="1"/>
        <pt x="561" y="572" on="1"/>
        <pt x="561" y="1091" on="1"/>
        <pt x="495" y="1091" on="1"/>
        <pt x="415" y="1091" on="0"/>
        <pt x="309" y="1056" on="0"/>
        <pt x="255" y="984" on="0"/>
        <pt x="235" y="899" on="0"/>
        <pt x="235" y="836" on="1"/>
        <pt x="235" y="699" on="0"/>
        <pt x="359" y="573" on="0"/>
      </contour>
    </TTGlyph>
    <TTGlyph name="afii10098" xMin="123" yMin="0" xMax="560" yMax="1350">
      <contour>
        <pt x="123" y="0" on="1"/>
        <pt x="123" y="1184" on="1"/>
        <pt x="472" y="1184" on="1"/>
        <pt x="472" y="1350" on="1"/>
        <pt x="560" y="1350" on="1"/>
        <pt x="560" y="1072" on="1"/>
        <pt x="273" y="1072" on="1"/>
        <pt x="273" y="0" on="1"/>
      </contour>
    </TTGlyph>
    <TTGlyph name="afii10099" xMin="-13" yMin="-268" xMax="764" yMax="1658">
      <contour>
        <pt x="385" y="-268" on="1"/>
        <pt x="385" y="-163" on="1"/>
        <pt x="417" y="-163" on="1"/>
        <pt x="462" y="-163" on="0"/>
        <pt x="523" y="-152" on="0"/>
        <pt x="569" y="-118" on="0"/>
        <pt x="594" y="-73" on="0"/>
        <pt x="610" y="12" on="0"/>
        <pt x="614" y="107" on="0"/>
        <pt x="614" y="182" on="1"/>
        <pt x="614" y="763" on="1"/>
        <pt x="614" y="836" on="0"/>
        <pt x="554" y="901" on="0"/>
        <pt x="436" y="901" on="0"/>
        <pt x="316" y="854" on="0"/>
        <pt x="285" y="824" on="1"/>
        <pt x="285" y="0" on="1"/>
        <pt x="135" y="0" on="1"/>
        <pt x="135" y="1275" on="1"/>
        <pt x="-13" y="1275" on="1"/>
        <pt x="-13" y="1368" on="1"/>
        <pt x="135" y="1368" on="1"/>
        <pt x="135" y="1658" on="1"/>
        <pt x="285" y="1658" on="1"/>
        <pt x="285" y="1368" on="1"/>
        <pt x="553" y="1368" on="1"/>
        <pt x="553" y="1275" on="1"/>
        <pt x="285" y="1275" on="1"/>
        <pt x="285" y="912" on="1"/>
        <pt x="321" y="943" on="0"/>
        <pt x="461" y="1000" on="0"/>
        <pt x="545" y="1000" on="1"/>
        <pt x="647" y="1000" on="0"/>
        <pt x="764" y="890" on="0"/>
        <pt x="764" y="790" on="1"/>
        <pt x="764" y="207" on="1"/>
        <pt x="764" y="127" on="0"/>
        <pt x="759" y="20" on="0"/>
        <pt x="744" y="-90" on="0"/>
        <pt x="716" y="-156" on="0"/>
        <pt x="669" y="-218" on="0"/>
        <pt x="600" y="-250" on="0"/>
        <pt x="505" y="-268" on="0"/>
        <pt x="441" y="-268" on="1"/>
      </contour>
    </TTGlyph>
    <TTGlyph name="afii10100" xMin="114" yMin="0" xMax="572" yMax="1724">
      <component glyphName="acutecomb" x="285" y="66" flags="0x1004"/>
      <component glyphName="afii10068" x="0" y="0" flags="0x1204"/>
    </TTGlyph>
    <TTGlyph name="afii10101" xMin="93" yMin="-19" xMax="712" yMax="1202">
      <contour>
        <pt x="410" y="-19" on="1"/>
        <pt x="329" y="-19" on="0"/>
        <pt x="213" y="29" on="0"/>
        <pt x="145" y="106" on="0"/>
        <pt x="106" y="232" on="0"/>
        <pt x="93" y="361" on="0"/>
        <pt x="93" y="449" on="1"/>
        <pt x="93" y="725" on="1"/>
        <pt x="93" y="854" on="0"/>
        <pt x="121" y="1025" on="0"/>
        <pt x="192" y="1147" on="0"/>
        <pt x="315" y="1202" on="0"/>
        <pt x="409" y="1202" on="1"/>
        <pt x="501" y="1202" on="0"/>
        <pt x="623" y="1151" on="0"/>
        <pt x="687" y="1048" on="0"/>
        <pt x="712" y="921" on="0"/>
        <pt x="712" y="829" on="1"/>
        <pt x="712" y="798" on="1"/>
        <pt x="573" y="798" on="1"/>
        <pt x="573" y="829" on="1"/>
        <pt x="573" y="981" on="0"/>
        <pt x="501" y="1090" on="0"/>
        <pt x="411" y="1090" on="1"/>
        <pt x="309" y="1090" on="0"/>
        <pt x="243" y="945" on="0"/>
        <pt x="243" y="750" on="1"/>
        <pt x="243" y="653" on="1"/>
        <pt x="547" y="653" on="1"/>
        <pt x="547" y="550" on="1"/>
        <pt x="243" y="550" on="1"/>
        <pt x="243" y="418" on="1"/>
        <pt x="243" y="236" on="0"/>
        <pt x="314" y="94" on="0"/>
        <pt x="412" y="94" on="1"/>
        <pt x="512" y="94" on="0"/>
        <pt x="573" y="219" on="0"/>
        <pt x="573" y="375" on="1"/>
        <pt x="573" y="413" on="1"/>
        <pt x="712" y="413" on="1"/>
        <pt x="712" y="382" on="1"/>
        <pt x="712" y="304" on="0"/>
        <pt x="699" y="191" on="0"/>
        <pt x="660" y="85" on="0"/>
        <pt x="595" y="20" on="0"/>
        <pt x="485" y="-19" on="0"/>
      </contour>
    </TTGlyph>
    <TTGlyph name="afii10102" xMin="63" yMin="-19" xMax="689" yMax="1202">
      <component glyphName="s" x="0" y="0" flags="0x1004"/>
    </TTGlyph>
    <TTGlyph name="afii10103" xMin="158" yMin="0" xMax="324" yMax="1533">
      <contour>
        <pt x="164" y="0" on="1"/>
        <pt x="164" y="1184" on="1"/>
        <pt x="314" y="1184" on="1"/>
        <pt x="314" y="0" on="1"/>
      </contour>
      <contour>
        <pt x="158" y="1334" on="1"/>
        <pt x="158" y="1533" on="1"/>
        <pt x="324" y="1533" on="1"/>
        <pt x="324" y="1334" on="1"/>
      </contour>
    </TTGlyph>
    <TTGlyph name="afii10104" xMin="-40" yMin="0" xMax="450" yMax="1505">
      <component glyphName="uni0308" x="-2" y="-153" flags="0x1004"/>
      <component glyphName="dotlessi" x="0" y="0" flags="0x1204"/>
    </TTGlyph>
    <TTGlyph name="afii10105" xMin="-34" yMin="-310" xMax="308" yMax="1551">
      <contour>
        <pt x="-34" y="-303" on="1"/>
        <pt x="-34" y="-189" on="1"/>
        <pt x="-24" y="-192" on="0"/>
        <pt x="17" y="-192" on="1"/>
        <pt x="53" y="-192" on="0"/>
        <pt x="106" y="-174" on="0"/>
        <pt x="135" y="-145" on="0"/>
        <pt x="152" y="-100" on="0"/>
        <pt x="157" y="-57" on="0"/>
        <pt x="157" y="-28" on="1"/>
        <pt x="157" y="1184" on="1"/>
        <pt x="307" y="1184" on="1"/>
        <pt x="307" y="-41" on="1"/>
        <pt x="307" y="-178" on="0"/>
        <pt x="171" y="-310" on="0"/>
        <pt x="46" y="-310" on="1"/>
        <pt x="-17" y="-310" on="0"/>
      </contour>
      <contour>
        <pt x="157" y="1347" on="1"/>
        <pt x="157" y="1551" on="1"/>
        <pt x="308" y="1551" on="1"/>
        <pt x="308" y="1347" on="1"/>
      </contour>
    </TTGlyph>
    <TTGlyph name="afii10106" xMin="9" yMin="-10" xMax="1235" yMax="1184">
      <contour>
        <pt x="9" y="-10" on="1"/>
        <pt x="9" y="104" on="1"/>
        <pt x="57" y="104" on="0"/>
        <pt x="122" y="134" on="0"/>
        <pt x="170" y="198" on="0"/>
        <pt x="202" y="321" on="0"/>
        <pt x="222" y="481" on="0"/>
        <pt x="231" y="606" on="1"/>
        <pt x="272" y="1184" on="1"/>
        <pt x="812" y="1184" on="1"/>
        <pt x="812" y="660" on="1"/>
        <pt x="868" y="660" on="1"/>
        <pt x="958" y="660" on="0"/>
        <pt x="1088" y="630" on="0"/>
        <pt x="1170" y="577" on="0"/>
        <pt x="1217" y="491" on="0"/>
        <pt x="1235" y="394" on="0"/>
        <pt x="1235" y="328" on="1"/>
        <pt x="1235" y="265" on="0"/>
        <pt x="1217" y="171" on="0"/>
        <pt x="1167" y="86" on="0"/>
        <pt x="1083" y="33" on="0"/>
        <pt x="948" y="1" on="0"/>
        <pt x="855" y="0" on="1"/>
        <pt x="662" y="0" on="1"/>
        <pt x="662" y="1068" on="1"/>
        <pt x="403" y="1068" on="1"/>
        <pt x="367" y="586" on="1"/>
        <pt x="359" y="471" on="0"/>
        <pt x="334" y="295" on="0"/>
        <pt x="304" y="168" on="0"/>
        <pt x="258" y="81" on="0"/>
        <pt x="211" y="28" on="0"/>
        <pt x="141" y="-1" on="0"/>
        <pt x="73" y="-10" on="0"/>
        <pt x="25" y="-10" on="1"/>
      </contour>
      <contour>
        <pt x="812" y="95" on="1"/>
        <pt x="857" y="95" on="1"/>
        <pt x="934" y="95" on="0"/>
        <pt x="1031" y="124" on="0"/>
        <pt x="1080" y="189" on="0"/>
        <pt x="1097" y="267" on="0"/>
        <pt x="1097" y="329" on="1"/>
        <pt x="1097" y="377" on="0"/>
        <pt x="1089" y="441" on="0"/>
        <pt x="1061" y="505" on="0"/>
        <pt x="1009" y="542" on="0"/>
        <pt x="920" y="565" on="0"/>
        <pt x="857" y="565" on="1"/>
        <pt x="812" y="565" on="1"/>
      </contour>
    </TTGlyph>
    <TTGlyph name="afii10107" xMin="114" yMin="0" xMax="1179" yMax="1184">
      <contour>
        <pt x="114" y="0" on="1"/>
        <pt x="114" y="1184" on="1"/>
        <pt x="264" y="1184" on="1"/>
        <pt x="264" y="666" on="1"/>
        <pt x="588" y="666" on="1"/>
        <pt x="588" y="1184" on="1"/>
        <pt x="738" y="1184" on="1"/>
        <pt x="738" y="660" on="1"/>
        <pt x="805" y="660" on="1"/>
        <pt x="919" y="659" on="0"/>
        <pt x="1069" y="615" on="0"/>
        <pt x="1149" y="525" on="0"/>
        <pt x="1179" y="412" on="0"/>
        <pt x="1179" y="328" on="1"/>
        <pt x="1179" y="264" on="0"/>
        <pt x="1161" y="170" on="0"/>
        <pt x="1111" y="85" on="0"/>
        <pt x="1026" y="32" on="0"/>
        <pt x="889" y="1" on="0"/>
        <pt x="795" y="0" on="1"/>
        <pt x="588" y="0" on="1"/>
        <pt x="588" y="560" on="1"/>
        <pt x="264" y="560" on="1"/>
        <pt x="264" y="0" on="1"/>
      </contour>
      <contour>
        <pt x="738" y="95" on="1"/>
        <pt x="800" y="95" on="1"/>
        <pt x="877" y="96" on="0"/>
        <pt x="975" y="125" on="0"/>
        <pt x="1024" y="189" on="0"/>
        <pt x="1041" y="267" on="0"/>
        <pt x="1041" y="329" on="1"/>
        <pt x="1041" y="389" on="0"/>
        <pt x="1026" y="464" on="0"/>
        <pt x="978" y="532" on="0"/>
        <pt x="879" y="564" on="0"/>
        <pt x="801" y="565" on="1"/>
        <pt x="738" y="565" on="1"/>
      </contour>
    </TTGlyph>
    <TTGlyph name="afii10108" xMin="-13" yMin="0" xMax="764" yMax="1658">
      <contour>
        <pt x="135" y="0" on="1"/>
        <pt x="135" y="1275" on="1"/>
        <pt x="-13" y="1275" on="1"/>
        <pt x="-13" y="1368" on="1"/>
        <pt x="135" y="1368" on="1"/>
        <pt x="135" y="1658" on="1"/>
        <pt x="285" y="1658" on="1"/>
        <pt x="285" y="1368" on="1"/>
        <pt x="553" y="1368" on="1"/>
        <pt x="553" y="1275" on="1"/>
        <pt x="285" y="1275" on="1"/>
        <pt x="285" y="912" on="1"/>
        <pt x="321" y="943" on="0"/>
        <pt x="461" y="1000" on="0"/>
        <pt x="545" y="1000" on="1"/>
        <pt x="647" y="1000" on="0"/>
        <pt x="764" y="890" on="0"/>
        <pt x="764" y="790" on="1"/>
        <pt x="764" y="0" on="1"/>
        <pt x="614" y="0" on="1"/>
        <pt x="614" y="763" on="1"/>
        <pt x="614" y="836" on="0"/>
        <pt x="554" y="901" on="0"/>
        <pt x="495" y="901" on="1"/>
        <pt x="442" y="901" on="0"/>
        <pt x="315" y="853" on="0"/>
        <pt x="285" y="824" on="1"/>
        <pt x="285" y="0" on="1"/>
      </contour>
    </TTGlyph>
    <TTGlyph name="afii10109" xMin="114" yMin="0" xMax="783" yMax="1724">
      <component glyphName="acutecomb" x="401" y="66" flags="0x1004"/>
      <component glyphName="afii10076" x="0" y="0" flags="0x1204"/>
    </TTGlyph>
    <TTGlyph name="afii10110" xMin="50" yMin="-300" xMax="739" yMax="1580">
      <component glyphName="uni0306" x="28" y="-78" flags="0x1004"/>
      <component glyphName="afii10085" x="0" y="0" flags="0x1204"/>
    </TTGlyph>
    <TTGlyph name="afii10145" xMin="144" yMin="-285" xMax="930" yMax="1658">
      <contour>
        <pt x="490" y="-285" on="1"/>
        <pt x="477" y="0" on="1"/>
        <pt x="144" y="0" on="1"/>
        <pt x="144" y="1658" on="1"/>
        <pt x="301" y="1658" on="1"/>
        <pt x="301" y="115" on="1"/>
        <pt x="773" y="115" on="1"/>
        <pt x="773" y="1658" on="1"/>
        <pt x="930" y="1658" on="1"/>
        <pt x="930" y="0" on="1"/>
        <pt x="621" y="0" on="1"/>
        <pt x="609" y="-285" on="1"/>
      </contour>
    </TTGlyph>
    <TTGlyph name="afii10193" xMin="114" yMin="-285" xMax="745" yMax="1184">
      <contour>
        <pt x="384" y="-285" on="1"/>
        <pt x="369" y="0" on="1"/>
        <pt x="114" y="0" on="1"/>
        <pt x="114" y="1184" on="1"/>
        <pt x="264" y="1184" on="1"/>
        <pt x="264" y="110" on="1"/>
        <pt x="595" y="110" on="1"/>
        <pt x="595" y="1184" on="1"/>
        <pt x="745" y="1184" on="1"/>
        <pt x="745" y="0" on="1"/>
        <pt x="496" y="0" on="1"/>
        <pt x="486" y="-285" on="1"/>
      </contour>
    </TTGlyph>
    <TTGlyph name="afii57929" xMin="167" yMin="1174" xMax="311" yMax="1658">
      <component glyphName="quotesingle" x="0" y="0" flags="0x1004"/>
    </TTGlyph>
    <TTGlyph name="afii61289" xMin="153" yMin="-23" xMax="959" yMax="1888">
      <contour>
        <pt x="550" y="940" on="1"/>
        <pt x="578" y="982" on="1"/>
        <pt x="825" y="1347" on="0"/>
        <pt x="858" y="1581" on="1"/>
        <pt x="863" y="1615" on="0"/>
        <pt x="863" y="1644" on="1"/>
        <pt x="863" y="1732" on="0"/>
        <pt x="819" y="1769" on="1"/>
        <pt x="797" y="1788" on="0"/>
        <pt x="772" y="1788" on="1"/>
        <pt x="751" y="1788" on="0"/>
        <pt x="729" y="1775" on="1"/>
        <pt x="672" y="1741" on="0"/>
        <pt x="659" y="1654" on="1"/>
      </contour>
      <contour>
        <pt x="396" y="568" on="1"/>
        <pt x="212" y="302" on="1"/>
        <pt x="153" y="355" on="1"/>
        <pt x="424" y="754" on="1"/>
        <pt x="557" y="1653" on="1"/>
        <pt x="564" y="1703" on="0"/>
        <pt x="585" y="1746" on="1"/>
        <pt x="630" y="1841" on="0"/>
        <pt x="719" y="1875" on="1"/>
        <pt x="754" y="1888" on="0"/>
        <pt x="787" y="1888" on="1"/>
        <pt x="834" y="1888" on="0"/>
        <pt x="876" y="1860" on="1"/>
        <pt x="959" y="1801" on="0"/>
        <pt x="959" y="1659" on="1"/>
        <pt x="959" y="1651" on="0"/>
        <pt x="959" y="1643" on="1"/>
        <pt x="950" y="1367" on="0"/>
        <pt x="646" y="929" on="1"/>
        <pt x="520" y="747" on="1"/>
        <pt x="456" y="330" on="1"/>
        <pt x="448" y="273" on="0"/>
        <pt x="448" y="229" on="1"/>
        <pt x="448" y="194" on="0"/>
        <pt x="453" y="168" on="1"/>
        <pt x="464" y="106" on="0"/>
        <pt x="496" y="83" on="1"/>
        <pt x="519" y="66" on="0"/>
        <pt x="548" y="66" on="1"/>
        <pt x="558" y="66" on="0"/>
        <pt x="569" y="68" on="1"/>
        <pt x="611" y="76" on="0"/>
        <pt x="706" y="150" on="0"/>
        <pt x="750" y="209" on="1"/>
        <pt x="806" y="148" on="1"/>
        <pt x="758" y="86" on="0"/>
        <pt x="644" y="1" on="0"/>
        <pt x="590" y="-14" on="1"/>
        <pt x="558" y="-23" on="0"/>
        <pt x="527" y="-23" on="1"/>
        <pt x="506" y="-23" on="0"/>
        <pt x="486" y="-19" on="1"/>
        <pt x="436" y="-9" on="0"/>
        <pt x="404" y="34" on="1"/>
        <pt x="372" y="78" on="0"/>
        <pt x="358" y="152" on="1"/>
        <pt x="352" y="185" on="0"/>
        <pt x="353" y="225" on="1"/>
        <pt x="353" y="276" on="0"/>
        <pt x="362" y="339" on="1"/>
      </contour>
    </TTGlyph>
    <TTGlyph name="afii61352" xMin="144" yMin="-19" xMax="1789" yMax="1658">
      <component glyphName="o" x="1065" y="0" flags="0x1004"/>
      <component glyphName="N" x="0" y="0" flags="0x1004"/>
    </TTGlyph>
    <TTGlyph name="agrave" xMin="81" yMin="-19" xMax="719" yMax="1724">
      <component glyphName="gravecomb" x="268" y="66" flags="0x1004"/>
      <component glyphName="a" x="0" y="0" flags="0x1204"/>
    </TTGlyph>
    <TTGlyph name="amacron" xMin="81" yMin="-19" xMax="719" yMax="1420">
      <component glyphName="uni0304" x="38" y="-238" flags="0x1004"/>
      <component glyphName="a" x="0" y="0" flags="0x1204"/>
    </TTGlyph>
    <TTGlyph name="ampersand" xMin="117" yMin="-21" xMax="1130" yMax="1676">
      <contour>
        <pt x="499" y="-21" on="1"/>
        <pt x="317" y="-21" on="0"/>
        <pt x="117" y="193" on="0"/>
        <pt x="117" y="357" on="1"/>
        <pt x="117" y="484" on="0"/>
        <pt x="244" y="717" on="0"/>
        <pt x="382" y="851" on="1"/>
        <pt x="375" y="862" on="0"/>
        <pt x="362" y="884" on="1"/>
        <pt x="268" y="1043" on="0"/>
        <pt x="188" y="1226" on="0"/>
        <pt x="188" y="1326" on="1"/>
        <pt x="188" y="1490" on="0"/>
        <pt x="377" y="1676" on="0"/>
        <pt x="539" y="1676" on="1"/>
        <pt x="694" y="1676" on="0"/>
        <pt x="879" y="1517" on="0"/>
        <pt x="879" y="1380" on="1"/>
        <pt x="879" y="1251" on="0"/>
        <pt x="696" y="987" on="0"/>
        <pt x="533" y="839" on="1"/>
        <pt x="852" y="335" on="1"/>
        <pt x="904" y="409" on="0"/>
        <pt x="976" y="642" on="0"/>
        <pt x="982" y="736" on="1"/>
        <pt x="1126" y="736" on="1"/>
        <pt x="1126" y="623" on="0"/>
        <pt x="1021" y="338" on="0"/>
        <pt x="941" y="240" on="1"/>
        <pt x="1024" y="134" on="0"/>
        <pt x="1130" y="134" on="1"/>
        <pt x="1130" y="-14" on="1"/>
        <pt x="1110" y="-14" on="0"/>
        <pt x="1091" y="-11" on="1"/>
        <pt x="972" y="-3" on="0"/>
        <pt x="852" y="142" on="1"/>
        <pt x="790" y="70" on="0"/>
        <pt x="609" y="-21" on="0"/>
      </contour>
      <contour>
        <pt x="500" y="105" on="1"/>
        <pt x="642" y="105" on="0"/>
        <pt x="766" y="240" on="1"/>
        <pt x="443" y="743" on="1"/>
        <pt x="350" y="641" on="0"/>
        <pt x="268" y="454" on="0"/>
        <pt x="268" y="357" on="1"/>
        <pt x="268" y="309" on="0"/>
        <pt x="292" y="223" on="0"/>
        <pt x="344" y="149" on="0"/>
        <pt x="437" y="105" on="0"/>
      </contour>
      <contour>
        <pt x="478" y="926" on="1"/>
        <pt x="731" y="1177" on="0"/>
        <pt x="731" y="1383" on="1"/>
        <pt x="731" y="1463" on="0"/>
        <pt x="627" y="1552" on="0"/>
        <pt x="537" y="1552" on="1"/>
        <pt x="438" y="1552" on="0"/>
        <pt x="337" y="1425" on="0"/>
        <pt x="337" y="1328" on="1"/>
        <pt x="337" y="1239" on="0"/>
        <pt x="404" y="1060" on="0"/>
      </contour>
    </TTGlyph>
    <TTGlyph name="aogonek" xMin="81" yMin="-429" xMax="719" yMax="1202">
      <component glyphName="ogonek" x="361" y="0" flags="0x1004"/>
      <component glyphName="a" x="0" y="0" flags="0x1204"/>
    </TTGlyph>
    <TTGlyph name="approxequal" xMin="85" yMin="551" xMax="761" yMax="1091">
      <contour>
        <pt x="563" y="551" on="1"/>
        <pt x="526" y="551" on="0"/>
        <pt x="416" y="608" on="0"/>
        <pt x="310" y="665" on="0"/>
        <pt x="280" y="665" on="1"/>
        <pt x="229" y="665" on="0"/>
        <pt x="140" y="582" on="1"/>
        <pt x="85" y="653" on="1"/>
        <pt x="135" y="707" on="0"/>
        <pt x="247" y="782" on="0"/>
        <pt x="290" y="782" on="1"/>
        <pt x="335" y="782" on="0"/>
        <pt x="536" y="670" on="0"/>
        <pt x="570" y="670" on="1"/>
        <pt x="589" y="670" on="0"/>
        <pt x="633" y="691" on="0"/>
        <pt x="669" y="717" on="0"/>
        <pt x="706" y="746" on="1"/>
        <pt x="761" y="677" on="1"/>
        <pt x="641" y="551" on="0"/>
      </contour>
      <contour>
        <pt x="563" y="860" on="1"/>
        <pt x="526" y="860" on="0"/>
        <pt x="416" y="917" on="0"/>
        <pt x="310" y="974" on="0"/>
        <pt x="280" y="974" on="1"/>
        <pt x="230" y="974" on="0"/>
        <pt x="140" y="892" on="1"/>
        <pt x="85" y="962" on="1"/>
        <pt x="135" y="1017" on="0"/>
        <pt x="247" y="1091" on="0"/>
        <pt x="290" y="1091" on="1"/>
        <pt x="335" y="1091" on="0"/>
        <pt x="536" y="979" on="0"/>
        <pt x="570" y="979" on="1"/>
        <pt x="589" y="979" on="0"/>
        <pt x="633" y="1000" on="0"/>
        <pt x="669" y="1026" on="0"/>
        <pt x="706" y="1055" on="1"/>
        <pt x="761" y="986" on="1"/>
        <pt x="639" y="860" on="0"/>
      </contour>
    </TTGlyph>
    <TTGlyph name="aring" xMin="81" yMin="-19" xMax="719" yMax="1713">
      <component glyphName="uni030A" x="104" y="35" flags="0x1004"/>
      <component glyphName="a" x="0" y="0" flags="0x1204"/>
    </TTGlyph>
    <TTGlyph name="asciicircum" xMin="59" yMin="1047" xMax="749" yMax="1658">
      <contour>
        <pt x="59" y="1047" on="1"/>
        <pt x="326" y="1658" on="1"/>
        <pt x="483" y="1658" on="1"/>
        <pt x="749" y="1047" on="1"/>
        <pt x="614" y="1047" on="1"/>
        <pt x="404" y="1554" on="1"/>
        <pt x="195" y="1047" on="1"/>
      </contour>
    </TTGlyph>
    <TTGlyph name="asciitilde" xMin="79" yMin="767" xMax="754" yMax="998">
      <contour>
        <pt x="557" y="767" on="1"/>
        <pt x="511" y="767" on="0"/>
        <pt x="309" y="881" on="0"/>
        <pt x="274" y="881" on="1"/>
        <pt x="224" y="881" on="0"/>
        <pt x="133" y="799" on="1"/>
        <pt x="79" y="869" on="1"/>
        <pt x="129" y="924" on="0"/>
        <pt x="241" y="998" on="0"/>
        <pt x="284" y="998" on="1"/>
        <pt x="328" y="998" on="0"/>
        <pt x="529" y="886" on="0"/>
        <pt x="563" y="886" on="1"/>
        <pt x="582" y="886" on="0"/>
        <pt x="627" y="907" on="0"/>
        <pt x="663" y="933" on="0"/>
        <pt x="700" y="962" on="1"/>
        <pt x="754" y="893" on="1"/>
        <pt x="634" y="767" on="0"/>
      </contour>
    </TTGlyph>
    <TTGlyph name="asterisk" xMin="72" yMin="990" xMax="719" yMax="1657">
      <contour>
        <pt x="241" y="990" on="1"/>
        <pt x="150" y="1047" on="1"/>
        <pt x="328" y="1286" on="1"/>
        <pt x="72" y="1388" on="1"/>
        <pt x="110" y="1484" on="1"/>
        <pt x="357" y="1361" on="1"/>
        <pt x="340" y="1657" on="1"/>
        <pt x="456" y="1657" on="1"/>
        <pt x="437" y="1361" on="1"/>
        <pt x="682" y="1484" on="1"/>
        <pt x="719" y="1388" on="1"/>
        <pt x="464" y="1286" on="1"/>
        <pt x="643" y="1045" on="1"/>
        <pt x="551" y="990" on="1"/>
        <pt x="396" y="1250" on="1"/>
      </contour>
    </TTGlyph>
    <TTGlyph name="at" xMin="120" yMin="-230" xMax="1642" yMax="1657">
      <contour>
        <pt x="928" y="-230" on="1"/>
        <pt x="791" y="-230" on="0"/>
        <pt x="557" y="-175" on="0"/>
        <pt x="350" y="-47" on="0"/>
        <pt x="204" y="151" on="0"/>
        <pt x="120" y="451" on="0"/>
        <pt x="120" y="642" on="1"/>
        <pt x="120" y="846" on="0"/>
        <pt x="204" y="1181" on="0"/>
        <pt x="353" y="1417" on="0"/>
        <pt x="562" y="1579" on="0"/>
        <pt x="808" y="1656" on="0"/>
        <pt x="949" y="1657" on="1"/>
        <pt x="952" y="1657" on="0"/>
        <pt x="955" y="1657" on="1"/>
        <pt x="1132" y="1656" on="0"/>
        <pt x="1266" y="1600" on="1"/>
        <pt x="1402" y="1542" on="0"/>
        <pt x="1486" y="1434" on="1"/>
        <pt x="1569" y="1326" on="0"/>
        <pt x="1608" y="1174" on="1"/>
        <pt x="1642" y="1043" on="0"/>
        <pt x="1642" y="880" on="1"/>
        <pt x="1642" y="855" on="0"/>
        <pt x="1641" y="830" on="1"/>
        <pt x="1637" y="708" on="0"/>
        <pt x="1581" y="507" on="0"/>
        <pt x="1496" y="374" on="0"/>
        <pt x="1386" y="283" on="0"/>
        <pt x="1271" y="243" on="0"/>
        <pt x="1213" y="243" on="1"/>
        <pt x="1138" y="243" on="0"/>
        <pt x="1084" y="294" on="1"/>
        <pt x="1034" y="341" on="0"/>
        <pt x="1034" y="421" on="1"/>
        <pt x="1034" y="427" on="0"/>
        <pt x="1034" y="433" on="1"/>
        <pt x="1005" y="350" on="0"/>
        <pt x="892" y="240" on="0"/>
        <pt x="809" y="237" on="1"/>
        <pt x="800" y="237" on="0"/>
        <pt x="792" y="237" on="1"/>
        <pt x="672" y="237" on="0"/>
        <pt x="600" y="328" on="1"/>
        <pt x="522" y="426" on="0"/>
        <pt x="522" y="596" on="1"/>
        <pt x="522" y="768" on="0"/>
        <pt x="653" y="1066" on="0"/>
        <pt x="871" y="1239" on="0"/>
        <pt x="995" y="1239" on="1"/>
        <pt x="1072" y="1239" on="0"/>
        <pt x="1138" y="1187" on="1"/>
        <pt x="1157" y="1226" on="1"/>
        <pt x="1268" y="1226" on="1"/>
        <pt x="1165" y="515" on="1"/>
        <pt x="1159" y="452" on="0"/>
        <pt x="1159" y="419" on="1"/>
        <pt x="1159" y="382" on="0"/>
        <pt x="1176" y="361" on="1"/>
        <pt x="1194" y="338" on="0"/>
        <pt x="1234" y="338" on="1"/>
        <pt x="1272" y="338" on="0"/>
        <pt x="1347" y="371" on="0"/>
        <pt x="1422" y="445" on="0"/>
        <pt x="1481" y="554" on="0"/>
        <pt x="1521" y="719" on="0"/>
        <pt x="1524" y="819" on="1"/>
        <pt x="1525" y="852" on="0"/>
        <pt x="1525" y="884" on="1"/>
        <pt x="1524" y="1202" on="0"/>
        <pt x="1388" y="1364" on="1"/>
        <pt x="1239" y="1540" on="0"/>
        <pt x="949" y="1540" on="1"/>
        <pt x="946" y="1540" on="0"/>
        <pt x="942" y="1540" on="1"/>
        <pt x="794" y="1538" on="0"/>
        <pt x="544" y="1417" on="0"/>
        <pt x="361" y="1192" on="0"/>
        <pt x="259" y="854" on="0"/>
        <pt x="259" y="646" on="1"/>
        <pt x="259" y="469" on="0"/>
        <pt x="337" y="197" on="0"/>
        <pt x="463" y="31" on="0"/>
        <pt x="645" y="-74" on="0"/>
        <pt x="831" y="-113" on="0"/>
        <pt x="940" y="-113" on="1"/>
        <pt x="1122" y="-113" on="0"/>
        <pt x="1316" y="-60" on="1"/>
        <pt x="1348" y="-170" on="1"/>
        <pt x="1108" y="-230" on="0"/>
      </contour>
      <contour>
        <pt x="832" y="353" on="1"/>
        <pt x="898" y="357" on="0"/>
        <pt x="1007" y="475" on="0"/>
        <pt x="1038" y="581" on="1"/>
        <pt x="1112" y="1098" on="1"/>
        <pt x="1068" y="1125" on="0"/>
        <pt x="1016" y="1125" on="1"/>
        <pt x="951" y="1125" on="0"/>
        <pt x="825" y="1047" on="0"/>
        <pt x="726" y="912" on="0"/>
        <pt x="665" y="710" on="0"/>
        <pt x="665" y="594" on="1"/>
        <pt x="665" y="466" on="0"/>
        <pt x="712" y="405" on="1"/>
        <pt x="753" y="352" on="0"/>
        <pt x="814" y="352" on="1"/>
        <pt x="823" y="352" on="0"/>
      </contour>
    </TTGlyph>
    <TTGlyph name="atilde" xMin="81" yMin="-19" xMax="719" yMax="1520">
      <component glyphName="tildecomb" x="7" y="-146" flags="0x1004"/>
      <component glyphName="a" x="0" y="0" flags="0x1204"/>
    </TTGlyph>
    <TTGlyph name="b" xMin="116" yMin="-19" xMax="760" yMax="1658">
      <contour>
        <pt x="477" y="-19" on="1"/>
        <pt x="360" y="-19" on="0"/>
        <pt x="266" y="94" on="1"/>
        <pt x="266" y="0" on="1"/>
        <pt x="116" y="0" on="1"/>
        <pt x="116" y="1658" on="1"/>
        <pt x="266" y="1658" on="1"/>
        <pt x="266" y="1086" on="1"/>
        <pt x="360" y="1202" on="0"/>
        <pt x="492" y="1202" on="1"/>
        <pt x="558" y="1202" on="0"/>
        <pt x="657" y="1148" on="0"/>
        <pt x="714" y="1062" on="0"/>
        <pt x="749" y="934" on="0"/>
        <pt x="760" y="809" on="0"/>
        <pt x="760" y="730" on="1"/>
        <pt x="760" y="480" on="1"/>
        <pt x="760" y="386" on="0"/>
        <pt x="744" y="238" on="0"/>
        <pt x="704" y="111" on="0"/>
        <pt x="640" y="28" on="0"/>
        <pt x="542" y="-19" on="0"/>
      </contour>
      <contour>
        <pt x="452" y="100" on="1"/>
        <pt x="547" y="100" on="0"/>
        <pt x="610" y="277" on="0"/>
        <pt x="610" y="478" on="1"/>
        <pt x="610" y="730" on="1"/>
        <pt x="610" y="920" on="0"/>
        <pt x="547" y="1084" on="0"/>
        <pt x="450" y="1084" on="1"/>
        <pt x="359" y="1084" on="0"/>
        <pt x="266" y="993" on="1"/>
        <pt x="266" y="186" on="1"/>
        <pt x="348" y="100" on="0"/>
      </contour>
    </TTGlyph>
    <TTGlyph name="backslash" xMin="50" yMin="0" xMax="654" yMax="1658">
      <contour>
        <pt x="522" y="0" on="1"/>
        <pt x="50" y="1658" on="1"/>
        <pt x="182" y="1658" on="1"/>
        <pt x="654" y="0" on="1"/>
      </contour>
    </TTGlyph>
    <TTGlyph name="bar" xMin="152" yMin="-295" xMax="293" yMax="1659">
      <contour>
        <pt x="152" y="-295" on="1"/>
        <pt x="153" y="1659" on="1"/>
        <pt x="293" y="1658" on="1"/>
        <pt x="292" y="-295" on="1"/>
      </contour>
    </TTGlyph>
    <TTGlyph name="braceleft" xMin="78" yMin="-338" xMax="488" yMax="1674">
      <contour>
        <pt x="488" y="-338" on="1"/>
        <pt x="433" y="-338" on="0"/>
        <pt x="358" y="-334" on="0"/>
        <pt x="293" y="-314" on="0"/>
        <pt x="254" y="-294" on="0"/>
        <pt x="223" y="-241" on="0"/>
        <pt x="208" y="-192" on="0"/>
        <pt x="199" y="-93" on="0"/>
        <pt x="197" y="-2" on="0"/>
        <pt x="197" y="76" on="1"/>
        <pt x="197" y="340" on="1"/>
        <pt x="197" y="428" on="0"/>
        <pt x="188" y="528" on="0"/>
        <pt x="161" y="593" on="0"/>
        <pt x="117" y="615" on="0"/>
        <pt x="78" y="615" on="1"/>
        <pt x="78" y="731" on="1"/>
        <pt x="117" y="731" on="0"/>
        <pt x="161" y="753" on="0"/>
        <pt x="188" y="818" on="0"/>
        <pt x="197" y="918" on="0"/>
        <pt x="197" y="1006" on="1"/>
        <pt x="197" y="1261" on="1"/>
        <pt x="197" y="1339" on="0"/>
        <pt x="199" y="1429" on="0"/>
        <pt x="208" y="1528" on="0"/>
        <pt x="223" y="1577" on="0"/>
        <pt x="254" y="1630" on="0"/>
        <pt x="293" y="1650" on="0"/>
        <pt x="358" y="1670" on="0"/>
        <pt x="433" y="1674" on="0"/>
        <pt x="488" y="1674" on="1"/>
        <pt x="488" y="1562" on="1"/>
        <pt x="387" y="1562" on="0"/>
        <pt x="351" y="1476" on="0"/>
        <pt x="351" y="1261" on="1"/>
        <pt x="351" y="974" on="1"/>
        <pt x="351" y="872" on="0"/>
        <pt x="324" y="747" on="0"/>
        <pt x="273" y="685" on="0"/>
        <pt x="230" y="673" on="1"/>
        <pt x="273" y="661" on="0"/>
        <pt x="324" y="599" on="0"/>
        <pt x="351" y="474" on="0"/>
        <pt x="351" y="372" on="1"/>
        <pt x="351" y="76" on="1"/>
        <pt x="351" y="-140" on="0"/>
        <pt x="387" y="-225" on="0"/>
        <pt x="488" y="-225" on="1"/>
      </contour>
    </TTGlyph>
    <TTGlyph name="braceright" xMin="64" yMin="-338" xMax="473" yMax="1674">
      <contour>
        <pt x="64" y="-338" on="1"/>
        <pt x="64" y="-225" on="1"/>
        <pt x="165" y="-225" on="0"/>
        <pt x="201" y="-140" on="0"/>
        <pt x="201" y="76" on="1"/>
        <pt x="201" y="372" on="1"/>
        <pt x="201" y="474" on="0"/>
        <pt x="228" y="599" on="0"/>
        <pt x="279" y="661" on="0"/>
        <pt x="322" y="673" on="1"/>
        <pt x="279" y="685" on="0"/>
        <pt x="228" y="747" on="0"/>
        <pt x="201" y="872" on="0"/>
        <pt x="201" y="974" on="1"/>
        <pt x="201" y="1261" on="1"/>
        <pt x="201" y="1476" on="0"/>
        <pt x="165" y="1562" on="0"/>
        <pt x="64" y="1562" on="1"/>
        <pt x="64" y="1674" on="1"/>
        <pt x="108" y="1674" on="0"/>
        <pt x="171" y="1671" on="0"/>
        <pt x="230" y="1660" on="0"/>
        <pt x="268" y="1648" on="0"/>
        <pt x="303" y="1618" on="0"/>
        <pt x="323" y="1591" on="0"/>
        <pt x="340" y="1536" on="0"/>
        <pt x="348" y="1487" on="0"/>
        <pt x="353" y="1400" on="0"/>
        <pt x="354" y="1323" on="0"/>
        <pt x="354" y="1261" on="1"/>
        <pt x="354" y="1006" on="1"/>
        <pt x="354" y="918" on="0"/>
        <pt x="363" y="818" on="0"/>
        <pt x="390" y="753" on="0"/>
        <pt x="434" y="731" on="0"/>
        <pt x="473" y="731" on="1"/>
        <pt x="473" y="615" on="1"/>
        <pt x="434" y="615" on="0"/>
        <pt x="390" y="593" on="0"/>
        <pt x="363" y="528" on="0"/>
        <pt x="354" y="428" on="0"/>
        <pt x="354" y="340" on="1"/>
        <pt x="354" y="76" on="1"/>
        <pt x="354" y="14" on="0"/>
        <pt x="353" y="-64" on="0"/>
        <pt x="348" y="-151" on="0"/>
        <pt x="340" y="-200" on="0"/>
        <pt x="323" y="-255" on="0"/>
        <pt x="303" y="-282" on="0"/>
        <pt x="268" y="-312" on="0"/>
        <pt x="230" y="-324" on="0"/>
        <pt x="171" y="-335" on="0"/>
        <pt x="108" y="-338" on="0"/>
      </contour>
    </TTGlyph>
    <TTGlyph name="bracketleft" xMin="144" yMin="-327" xMax="501" yMax="1658">
      <contour>
        <pt x="144" y="-327" on="1"/>
        <pt x="144" y="1658" on="1"/>
        <pt x="501" y="1658" on="1"/>
        <pt x="501" y="1575" on="1"/>
        <pt x="295" y="1575" on="1"/>
        <pt x="295" y="-243" on="1"/>
        <pt x="501" y="-243" on="1"/>
        <pt x="501" y="-327" on="1"/>
      </contour>
    </TTGlyph>
    <TTGlyph name="bracketright" xMin="83" yMin="-326" xMax="440" yMax="1658">
      <contour>
        <pt x="83" y="-326" on="1"/>
        <pt x="83" y="-243" on="1"/>
        <pt x="289" y="-243" on="1"/>
        <pt x="289" y="1574" on="1"/>
        <pt x="83" y="1574" on="1"/>
        <pt x="83" y="1658" on="1"/>
        <pt x="440" y="1658" on="1"/>
        <pt x="440" y="-326" on="1"/>
      </contour>
    </TTGlyph>
    <TTGlyph name="breve" xMin="119" yMin="1402" xMax="613" yMax="1658">
      <contour>
        <pt x="364" y="1402" on="1"/>
        <pt x="125" y="1402" on="0"/>
        <pt x="119" y="1658" on="1"/>
        <pt x="214" y="1658" on="1"/>
        <pt x="216" y="1570" on="0"/>
        <pt x="292" y="1492" on="0"/>
        <pt x="436" y="1492" on="0"/>
        <pt x="513" y="1570" on="0"/>
        <pt x="517" y="1658" on="1"/>
        <pt x="613" y="1658" on="1"/>
        <pt x="607" y="1402" on="0"/>
      </contour>
    </TTGlyph>
    <TTGlyph name="brokenbar" xMin="144" yMin="-348" xMax="270" yMax="1658">
      <contour>
        <pt x="144" y="-348" on="1"/>
        <pt x="144" y="502" on="1"/>
        <pt x="270" y="502" on="1"/>
        <pt x="270" y="-348" on="1"/>
      </contour>
      <contour>
        <pt x="144" y="808" on="1"/>
        <pt x="144" y="1658" on="1"/>
        <pt x="270" y="1658" on="1"/>
        <pt x="270" y="808" on="1"/>
      </contour>
    </TTGlyph>
    <TTGlyph name="bullet" xMin="125" yMin="608" xMax="494" yMax="987">
      <contour>
        <pt x="396" y="608" on="0"/>
        <pt x="222" y="608" on="0"/>
        <pt x="125" y="714" on="0"/>
        <pt x="125" y="882" on="0"/>
        <pt x="222" y="987" on="0"/>
        <pt x="396" y="987" on="0"/>
        <pt x="494" y="882" on="0"/>
        <pt x="494" y="714" on="0"/>
      </contour>
    </TTGlyph>
    <TTGlyph name="c" xMin="92" yMin="-19" xMax="711" yMax="1202">
      <contour>
        <pt x="409" y="-19" on="1"/>
        <pt x="328" y="-19" on="0"/>
        <pt x="212" y="29" on="0"/>
        <pt x="144" y="106" on="0"/>
        <pt x="105" y="232" on="0"/>
        <pt x="92" y="361" on="0"/>
        <pt x="92" y="449" on="1"/>
        <pt x="92" y="725" on="1"/>
        <pt x="92" y="854" on="0"/>
        <pt x="120" y="1025" on="0"/>
        <pt x="191" y="1147" on="0"/>
        <pt x="314" y="1202" on="0"/>
        <pt x="408" y="1202" on="1"/>
        <pt x="482" y="1202" on="0"/>
        <pt x="590" y="1166" on="0"/>
        <pt x="657" y="1103" on="0"/>
        <pt x="696" y="1005" on="0"/>
        <pt x="711" y="896" on="0"/>
        <pt x="711" y="823" on="1"/>
        <pt x="711" y="767" on="1"/>
        <pt x="572" y="767" on="1"/>
        <pt x="572" y="823" on="1"/>
        <pt x="572" y="975" on="0"/>
        <pt x="500" y="1090" on="0"/>
        <pt x="410" y="1090" on="1"/>
        <pt x="308" y="1090" on="0"/>
        <pt x="242" y="945" on="0"/>
        <pt x="242" y="750" on="1"/>
        <pt x="242" y="418" on="1"/>
        <pt x="242" y="236" on="0"/>
        <pt x="313" y="94" on="0"/>
        <pt x="411" y="94" on="1"/>
        <pt x="453" y="94" on="0"/>
        <pt x="511" y="118" on="0"/>
        <pt x="546" y="160" on="0"/>
        <pt x="566" y="234" on="0"/>
        <pt x="572" y="317" on="0"/>
        <pt x="572" y="380" on="1"/>
        <pt x="572" y="445" on="1"/>
        <pt x="711" y="445" on="1"/>
        <pt x="711" y="387" on="1"/>
        <pt x="711" y="309" on="0"/>
        <pt x="698" y="195" on="0"/>
        <pt x="659" y="88" on="0"/>
        <pt x="594" y="21" on="0"/>
        <pt x="484" y="-19" on="0"/>
      </contour>
    </TTGlyph>
    <TTGlyph name="cacute" xMin="92" yMin="-19" xMax="711" yMax="1724">
      <component glyphName="acutecomb" x="354" y="66" flags="0x1004"/>
      <component glyphName="c" x="0" y="0" flags="0x1204"/>
    </TTGlyph>
    <TTGlyph name="caron" xMin="68" yMin="1319" xMax="550" yMax="1658">
      <contour>
        <pt x="242" y="1319" on="1"/>
        <pt x="68" y="1658" on="1"/>
        <pt x="188" y="1658" on="1"/>
        <pt x="309" y="1413" on="1"/>
        <pt x="430" y="1658" on="1"/>
        <pt x="550" y="1658" on="1"/>
        <pt x="374" y="1319" on="1"/>
      </contour>
    </TTGlyph>
    <TTGlyph name="ccaron" xMin="92" yMin="-19" xMax="711" yMax="1663">
      <component glyphName="uni030C" x="356" y="5" flags="0x1004"/>
      <component glyphName="c" x="0" y="0" flags="0x1204"/>
    </TTGlyph>
    <TTGlyph name="ccedilla" xMin="92" yMin="-419" xMax="711" yMax="1202">
      <component glyphName="cedilla" x="260" y="0" flags="0x1004"/>
      <component glyphName="c" x="0" y="0" flags="0x1204"/>
    </TTGlyph>
    <TTGlyph name="ccircumflex" xMin="92" yMin="-19" xMax="711" yMax="1687">
      <component glyphName="uni0302" x="67" y="29" flags="0x1004"/>
      <component glyphName="c" x="0" y="0" flags="0x1204"/>
    </TTGlyph>
    <TTGlyph name="cdotaccent" xMin="92" yMin="-19" xMax="711" yMax="1548">
      <component glyphName="uni0307" x="379" y="-110" flags="0x1004"/>
      <component glyphName="c" x="0" y="0" flags="0x1204"/>
    </TTGlyph>
    <TTGlyph name="cedilla" xMin="56" yMin="-419" xMax="371" yMax="0">
      <contour>
        <pt x="56" y="-409" on="1"/>
        <pt x="56" y="-332" on="1"/>
        <pt x="97" y="-337" on="0"/>
        <pt x="129" y="-337" on="1"/>
        <pt x="252" y="-337" on="0"/>
        <pt x="257" y="-265" on="1"/>
        <pt x="257" y="-261" on="0"/>
        <pt x="257" y="-256" on="1"/>
        <pt x="256" y="-212" on="0"/>
        <pt x="220" y="-186" on="1"/>
        <pt x="180" y="-158" on="0"/>
        <pt x="105" y="-144" on="1"/>
        <pt x="105" y="0" on="1"/>
        <pt x="184" y="0" on="1"/>
        <pt x="184" y="-104" on="1"/>
        <pt x="267" y="-116" on="0"/>
        <pt x="372" y="-207" on="0"/>
        <pt x="371" y="-269" on="1"/>
        <pt x="371" y="-360" on="0"/>
        <pt x="285" y="-396" on="1"/>
        <pt x="233" y="-418" on="0"/>
        <pt x="160" y="-419" on="1"/>
        <pt x="113" y="-419" on="0"/>
      </contour>
    </TTGlyph>
    <TTGlyph name="cent" xMin="92" yMin="-204" xMax="711" yMax="1385">
      <contour>
        <pt x="355" y="-204" on="1"/>
        <pt x="355" y="-16" on="1"/>
        <pt x="288" y="-9" on="0"/>
        <pt x="192" y="46" on="0"/>
        <pt x="135" y="125" on="0"/>
        <pt x="103" y="246" on="0"/>
        <pt x="92" y="367" on="0"/>
        <pt x="92" y="449" on="1"/>
        <pt x="92" y="725" on="1"/>
        <pt x="92" y="967" on="0"/>
        <pt x="208" y="1187" on="0"/>
        <pt x="363" y="1200" on="1"/>
        <pt x="363" y="1385" on="1"/>
        <pt x="425" y="1385" on="1"/>
        <pt x="425" y="1201" on="1"/>
        <pt x="494" y="1199" on="0"/>
        <pt x="596" y="1160" on="0"/>
        <pt x="659" y="1098" on="0"/>
        <pt x="697" y="1001" on="0"/>
        <pt x="711" y="894" on="0"/>
        <pt x="711" y="823" on="1"/>
        <pt x="711" y="767" on="1"/>
        <pt x="572" y="767" on="1"/>
        <pt x="572" y="823" on="1"/>
        <pt x="572" y="975" on="0"/>
        <pt x="500" y="1090" on="0"/>
        <pt x="410" y="1090" on="1"/>
        <pt x="308" y="1090" on="0"/>
        <pt x="242" y="945" on="0"/>
        <pt x="242" y="750" on="1"/>
        <pt x="242" y="418" on="1"/>
        <pt x="242" y="236" on="0"/>
        <pt x="313" y="94" on="0"/>
        <pt x="411" y="94" on="1"/>
        <pt x="453" y="94" on="0"/>
        <pt x="511" y="118" on="0"/>
        <pt x="546" y="160" on="0"/>
        <pt x="566" y="234" on="0"/>
        <pt x="572" y="317" on="0"/>
        <pt x="572" y="380" on="1"/>
        <pt x="572" y="445" on="1"/>
        <pt x="711" y="445" on="1"/>
        <pt x="711" y="387" on="1"/>
        <pt x="711" y="311" on="0"/>
        <pt x="698" y="197" on="0"/>
        <pt x="660" y="91" on="0"/>
        <pt x="596" y="24" on="0"/>
        <pt x="490" y="-17" on="0"/>
        <pt x="417" y="-18" on="1"/>
        <pt x="417" y="-204" on="1"/>
      </contour>
    </TTGlyph>
    <TTGlyph name="circumflex" xMin="75" yMin="1280" xMax="594" yMax="1658">
      <contour>
        <pt x="75" y="1280" on="1"/>
        <pt x="252" y="1658" on="1"/>
        <pt x="420" y="1658" on="1"/>
        <pt x="594" y="1280" on="1"/>
        <pt x="485" y="1280" on="1"/>
        <pt x="335" y="1584" on="1"/>
        <pt x="186" y="1280" on="1"/>
      </contour>
    </TTGlyph>
    <TTGlyph name="colon" xMin="142" yMin="171" xMax="301" yMax="1086">
      <contour>
        <pt x="142" y="171" on="1"/>
        <pt x="142" y="390" on="1"/>
        <pt x="301" y="390" on="1"/>
        <pt x="301" y="171" on="1"/>
      </contour>
      <contour>
        <pt x="142" y="867" on="1"/>
        <pt x="142" y="1086" on="1"/>
        <pt x="301" y="1086" on="1"/>
        <pt x="301" y="867" on="1"/>
      </contour>
    </TTGlyph>
    <TTGlyph name="comma" xMin="101" yMin="-239" xMax="277" yMax="223">
      <contour>
        <pt x="132" y="-239" on="1"/>
        <pt x="101" y="-173" on="1"/>
        <pt x="154" y="-143" on="0"/>
        <pt x="199" y="-63" on="0"/>
        <pt x="199" y="0" on="1"/>
        <pt x="109" y="0" on="1"/>
        <pt x="109" y="223" on="1"/>
        <pt x="277" y="223" on="1"/>
        <pt x="277" y="16" on="1"/>
        <pt x="277" y="-84" on="0"/>
        <pt x="211" y="-199" on="0"/>
      </contour>
    </TTGlyph>
    <TTGlyph name="copyright" xMin="60" yMin="-22" xMax="1705" yMax="1708">
      <contour>
        <pt x="867" y="249" on="1"/>
        <pt x="778" y="249" on="0"/>
        <pt x="650" y="298" on="0"/>
        <pt x="574" y="378" on="0"/>
        <pt x="531" y="510" on="0"/>
        <pt x="517" y="646" on="0"/>
        <pt x="517" y="741" on="1"/>
        <pt x="517" y="974" on="1"/>
        <pt x="517" y="1113" on="0"/>
        <pt x="548" y="1294" on="0"/>
        <pt x="627" y="1422" on="0"/>
        <pt x="762" y="1477" on="0"/>
        <pt x="867" y="1477" on="1"/>
        <pt x="949" y="1477" on="0"/>
        <pt x="1068" y="1441" on="0"/>
        <pt x="1141" y="1379" on="0"/>
        <pt x="1183" y="1277" on="0"/>
        <pt x="1198" y="1164" on="0"/>
        <pt x="1198" y="1086" on="1"/>
        <pt x="1198" y="1030" on="1"/>
        <pt x="1052" y="1030" on="1"/>
        <pt x="1052" y="1085" on="1"/>
        <pt x="1052" y="1197" on="0"/>
        <pt x="1013" y="1316" on="0"/>
        <pt x="938" y="1359" on="0"/>
        <pt x="869" y="1359" on="1"/>
        <pt x="754" y="1359" on="0"/>
        <pt x="677" y="1208" on="0"/>
        <pt x="677" y="1000" on="1"/>
        <pt x="677" y="709" on="1"/>
        <pt x="677" y="515" on="0"/>
        <pt x="759" y="367" on="0"/>
        <pt x="870" y="367" on="1"/>
        <pt x="929" y="367" on="0"/>
        <pt x="1000" y="397" on="0"/>
        <pt x="1039" y="472" on="0"/>
        <pt x="1052" y="573" on="0"/>
        <pt x="1052" y="658" on="1"/>
        <pt x="1052" y="717" on="1"/>
        <pt x="1198" y="717" on="1"/>
        <pt x="1198" y="665" on="1"/>
        <pt x="1198" y="581" on="0"/>
        <pt x="1184" y="464" on="0"/>
        <pt x="1143" y="354" on="0"/>
        <pt x="1071" y="288" on="0"/>
        <pt x="951" y="249" on="0"/>
      </contour>
      <contour>
        <pt x="736" y="50" on="0"/>
        <pt x="1036" y="50" on="0"/>
        <pt x="1284" y="139" on="0"/>
        <pt x="1454" y="290" on="0"/>
        <pt x="1572" y="495" on="0"/>
        <pt x="1626" y="722" on="0"/>
        <pt x="1626" y="968" on="0"/>
        <pt x="1572" y="1194" on="0"/>
        <pt x="1454" y="1398" on="0"/>
        <pt x="1284" y="1548" on="0"/>
        <pt x="1036" y="1636" on="0"/>
        <pt x="736" y="1636" on="0"/>
        <pt x="488" y="1548" on="0"/>
        <pt x="317" y="1398" on="0"/>
        <pt x="200" y="1194" on="0"/>
        <pt x="146" y="968" on="0"/>
        <pt x="146" y="722" on="0"/>
        <pt x="200" y="495" on="0"/>
        <pt x="317" y="290" on="0"/>
        <pt x="488" y="139" on="0"/>
      </contour>
      <contour>
        <pt x="883" y="-22" on="1"/>
        <pt x="761" y="-22" on="0"/>
        <pt x="546" y="30" on="0"/>
        <pt x="381" y="123" on="0"/>
        <pt x="246" y="252" on="0"/>
        <pt x="153" y="404" on="0"/>
        <pt x="89" y="576" on="0"/>
        <pt x="60" y="752" on="0"/>
        <pt x="60" y="843" on="1"/>
        <pt x="60" y="972" on="0"/>
        <pt x="118" y="1215" on="0"/>
        <pt x="246" y="1440" on="0"/>
        <pt x="434" y="1608" on="0"/>
        <pt x="713" y="1708" on="0"/>
        <pt x="883" y="1708" on="1"/>
        <pt x="1025" y="1708" on="0"/>
        <pt x="1268" y="1638" on="0"/>
        <pt x="1445" y="1514" on="0"/>
        <pt x="1581" y="1350" on="0"/>
        <pt x="1664" y="1155" on="0"/>
        <pt x="1705" y="950" on="0"/>
        <pt x="1705" y="843" on="1"/>
        <pt x="1705" y="752" on="0"/>
        <pt x="1676" y="575" on="0"/>
        <pt x="1613" y="403" on="0"/>
        <pt x="1520" y="252" on="0"/>
        <pt x="1385" y="123" on="0"/>
        <pt x="1220" y="30" on="0"/>
        <pt x="1006" y="-22" on="0"/>
      </contour>
    </TTGlyph>
    <TTGlyph name="currency" xMin="56" yMin="381" xMax="1026" yMax="1351">
      <contour>
        <pt x="86" y="381" on="1"/>
        <pt x="56" y="411" on="1"/>
        <pt x="219" y="573" on="1"/>
        <pt x="108" y="697" on="0"/>
        <pt x="108" y="1035" on="0"/>
        <pt x="219" y="1159" on="1"/>
        <pt x="56" y="1321" on="1"/>
        <pt x="86" y="1351" on="1"/>
        <pt x="248" y="1189" on="1"/>
        <pt x="370" y="1304" on="0"/>
        <pt x="538" y="1304" on="1"/>
        <pt x="539" y="1304" on="0"/>
        <pt x="542" y="1304" on="0"/>
        <pt x="544" y="1304" on="1"/>
        <pt x="712" y="1304" on="0"/>
        <pt x="834" y="1189" on="1"/>
        <pt x="996" y="1351" on="1"/>
        <pt x="1026" y="1321" on="1"/>
        <pt x="864" y="1159" on="1"/>
        <pt x="974" y="1034" on="0"/>
        <pt x="974" y="866" on="1"/>
        <pt x="974" y="697" on="0"/>
        <pt x="863" y="573" on="1"/>
        <pt x="1026" y="411" on="1"/>
        <pt x="996" y="381" on="1"/>
        <pt x="834" y="543" on="1"/>
        <pt x="712" y="428" on="0"/>
        <pt x="544" y="428" on="1"/>
        <pt x="543" y="428" on="0"/>
        <pt x="540" y="428" on="0"/>
        <pt x="538" y="428" on="1"/>
        <pt x="370" y="428" on="0"/>
        <pt x="248" y="543" on="1"/>
      </contour>
      <contour>
        <pt x="541" y="498" on="1"/>
        <pt x="692" y="498" on="0"/>
        <pt x="898" y="713" on="0"/>
        <pt x="898" y="1019" on="0"/>
        <pt x="692" y="1235" on="0"/>
        <pt x="390" y="1235" on="0"/>
        <pt x="184" y="1019" on="0"/>
        <pt x="184" y="713" on="0"/>
        <pt x="391" y="498" on="0"/>
      </contour>
    </TTGlyph>
    <TTGlyph name="d" xMin="92" yMin="-19" xMax="730" yMax="1658">
      <contour>
        <pt x="378" y="-19" on="1"/>
        <pt x="225" y="-19" on="0"/>
        <pt x="92" y="211" on="0"/>
        <pt x="92" y="478" on="1"/>
        <pt x="92" y="697" on="1"/>
        <pt x="92" y="795" on="0"/>
        <pt x="106" y="943" on="0"/>
        <pt x="144" y="1073" on="0"/>
        <pt x="206" y="1155" on="0"/>
        <pt x="304" y="1202" on="0"/>
        <pt x="371" y="1202" on="1"/>
        <pt x="488" y="1201" on="0"/>
        <pt x="580" y="1099" on="1"/>
        <pt x="580" y="1658" on="1"/>
        <pt x="730" y="1658" on="1"/>
        <pt x="730" y="0" on="1"/>
        <pt x="580" y="0" on="1"/>
        <pt x="580" y="84" on="1"/>
        <pt x="490" y="-18" on="0"/>
      </contour>
      <contour>
        <pt x="408" y="100" on="1"/>
        <pt x="495" y="100" on="0"/>
        <pt x="580" y="178" on="1"/>
        <pt x="580" y="1000" on="1"/>
        <pt x="490" y="1084" on="0"/>
        <pt x="404" y="1084" on="1"/>
        <pt x="309" y="1084" on="0"/>
        <pt x="242" y="925" on="0"/>
        <pt x="242" y="745" on="1"/>
        <pt x="242" y="466" on="1"/>
        <pt x="242" y="272" on="0"/>
        <pt x="310" y="100" on="0"/>
      </contour>
    </TTGlyph>
    <TTGlyph name="dagger" xMin="54" yMin="0" xMax="664" yMax="1623">
      <contour>
        <pt x="287" y="0" on="1"/>
        <pt x="287" y="1126" on="1"/>
        <pt x="54" y="1126" on="1"/>
        <pt x="54" y="1244" on="1"/>
        <pt x="287" y="1244" on="1"/>
        <pt x="287" y="1623" on="1"/>
        <pt x="432" y="1623" on="1"/>
        <pt x="432" y="1244" on="1"/>
        <pt x="664" y="1244" on="1"/>
        <pt x="664" y="1126" on="1"/>
        <pt x="432" y="1126" on="1"/>
        <pt x="432" y="0" on="1"/>
      </contour>
    </TTGlyph>
    <TTGlyph name="daggerdbl" xMin="65" yMin="0" xMax="695" yMax="1624">
      <contour>
        <pt x="309" y="0" on="1"/>
        <pt x="309" y="528" on="1"/>
        <pt x="65" y="528" on="1"/>
        <pt x="65" y="633" on="1"/>
        <pt x="309" y="633" on="1"/>
        <pt x="309" y="1079" on="1"/>
        <pt x="65" y="1079" on="1"/>
        <pt x="65" y="1184" on="1"/>
        <pt x="309" y="1184" on="1"/>
        <pt x="309" y="1624" on="1"/>
        <pt x="452" y="1624" on="1"/>
        <pt x="452" y="1184" on="1"/>
        <pt x="695" y="1184" on="1"/>
        <pt x="695" y="1079" on="1"/>
        <pt x="452" y="1079" on="1"/>
        <pt x="452" y="633" on="1"/>
        <pt x="695" y="633" on="1"/>
        <pt x="695" y="528" on="1"/>
        <pt x="452" y="528" on="1"/>
        <pt x="452" y="0" on="1"/>
      </contour>
    </TTGlyph>
    <TTGlyph name="dcaron" xMin="92" yMin="-19" xMax="1057" yMax="1658">
      <component glyphName="afii57929" x="746" y="0" flags="0x1004"/>
      <component glyphName="d" x="0" y="0" flags="0x1004"/>
    </TTGlyph>
    <TTGlyph name="dcroat" xMin="92" yMin="-19" xMax="847" yMax="1658">
      <contour>
        <pt x="378" y="-19" on="1"/>
        <pt x="225" y="-19" on="0"/>
        <pt x="92" y="211" on="0"/>
        <pt x="92" y="478" on="1"/>
        <pt x="92" y="697" on="1"/>
        <pt x="92" y="795" on="0"/>
        <pt x="106" y="943" on="0"/>
        <pt x="144" y="1073" on="0"/>
        <pt x="206" y="1155" on="0"/>
        <pt x="304" y="1202" on="0"/>
        <pt x="371" y="1202" on="1"/>
        <pt x="488" y="1201" on="0"/>
        <pt x="580" y="1099" on="1"/>
        <pt x="580" y="1406" on="1"/>
        <pt x="385" y="1406" on="1"/>
        <pt x="385" y="1494" on="1"/>
        <pt x="580" y="1494" on="1"/>
        <pt x="580" y="1658" on="1"/>
        <pt x="730" y="1658" on="1"/>
        <pt x="730" y="1494" on="1"/>
        <pt x="847" y="1494" on="1"/>
        <pt x="847" y="1406" on="1"/>
        <pt x="730" y="1406" on="1"/>
        <pt x="730" y="0" on="1"/>
        <pt x="580" y="0" on="1"/>
        <pt x="580" y="84" on="1"/>
        <pt x="490" y="-18" on="0"/>
      </contour>
      <contour>
        <pt x="408" y="100" on="1"/>
        <pt x="495" y="100" on="0"/>
        <pt x="580" y="178" on="1"/>
        <pt x="580" y="1000" on="1"/>
        <pt x="490" y="1084" on="0"/>
        <pt x="404" y="1084" on="1"/>
        <pt x="309" y="1084" on="0"/>
        <pt x="242" y="925" on="0"/>
        <pt x="242" y="745" on="1"/>
        <pt x="242" y="466" on="1"/>
        <pt x="242" y="272" on="0"/>
        <pt x="310" y="100" on="0"/>
      </contour>
    </TTGlyph>
    <TTGlyph name="degree" xMin="122" yMin="1074" xMax="724" yMax="1676">
      <contour>
        <pt x="343" y="1176" on="0"/>
        <pt x="503" y="1176" on="0"/>
        <pt x="607" y="1279" on="0"/>
        <pt x="607" y="1375" on="1"/>
        <pt x="607" y="1472" on="0"/>
        <pt x="503" y="1575" on="0"/>
        <pt x="422" y="1575" on="1"/>
        <pt x="342" y="1575" on="0"/>
        <pt x="240" y="1472" on="0"/>
        <pt x="240" y="1375" on="1"/>
        <pt x="240" y="1279" on="0"/>
      </contour>
      <contour>
        <pt x="423" y="1074" on="1"/>
        <pt x="292" y="1074" on="0"/>
        <pt x="122" y="1230" on="0"/>
        <pt x="122" y="1522" on="0"/>
        <pt x="292" y="1676" on="0"/>
        <pt x="423" y="1676" on="1"/>
        <pt x="553" y="1676" on="0"/>
        <pt x="724" y="1521" on="0"/>
        <pt x="724" y="1376" on="1"/>
        <pt x="724" y="1230" on="0"/>
        <pt x="553" y="1074" on="0"/>
      </contour>
    </TTGlyph>
    <TTGlyph name="dieresis" xMin="140" yMin="1477" xMax="630" yMax="1658">
      <contour>
        <pt x="140" y="1477" on="1"/>
        <pt x="140" y="1658" on="1"/>
        <pt x="294" y="1658" on="1"/>
        <pt x="294" y="1477" on="1"/>
      </contour>
      <contour>
        <pt x="476" y="1477" on="1"/>
        <pt x="476" y="1658" on="1"/>
        <pt x="630" y="1658" on="1"/>
        <pt x="630" y="1477" on="1"/>
      </contour>
    </TTGlyph>
    <TTGlyph name="divide" xMin="53" yMin="402" xMax="637" yMax="1276">
      <contour>
        <pt x="280" y="402" on="1"/>
        <pt x="280" y="587" on="1"/>
        <pt x="409" y="587" on="1"/>
        <pt x="409" y="402" on="1"/>
      </contour>
      <contour>
        <pt x="53" y="794" on="1"/>
        <pt x="53" y="908" on="1"/>
        <pt x="637" y="908" on="1"/>
        <pt x="637" y="794" on="1"/>
      </contour>
      <contour>
        <pt x="280" y="1091" on="1"/>
        <pt x="280" y="1276" on="1"/>
        <pt x="409" y="1276" on="1"/>
        <pt x="409" y="1091" on="1"/>
      </contour>
    </TTGlyph>
    <TTGlyph name="dollar" xMin="83" yMin="-179" xMax="880" yMax="1848">
      <contour>
        <pt x="487" y="-179" on="1"/>
        <pt x="487" y="-20" on="1"/>
        <pt x="295" y="-16" on="0"/>
        <pt x="98" y="220" on="0"/>
        <pt x="83" y="430" on="1"/>
        <pt x="222" y="470" on="1"/>
        <pt x="229" y="404" on="0"/>
        <pt x="250" y="303" on="0"/>
        <pt x="291" y="206" on="0"/>
        <pt x="350" y="144" on="0"/>
        <pt x="441" y="106" on="0"/>
        <pt x="500" y="106" on="1"/>
        <pt x="734" y="106" on="0"/>
        <pt x="734" y="346" on="1"/>
        <pt x="734" y="399" on="0"/>
        <pt x="707" y="492" on="0"/>
        <pt x="648" y="581" on="0"/>
        <pt x="583" y="653" on="0"/>
        <pt x="531" y="704" on="1"/>
        <pt x="237" y="986" on="1"/>
        <pt x="87" y="1130" on="0"/>
        <pt x="87" y="1320" on="1"/>
        <pt x="87" y="1483" on="0"/>
        <pt x="275" y="1668" on="0"/>
        <pt x="438" y="1675" on="1"/>
        <pt x="438" y="1848" on="1"/>
        <pt x="503" y="1848" on="1"/>
        <pt x="503" y="1675" on="1"/>
        <pt x="668" y="1666" on="0"/>
        <pt x="843" y="1466" on="0"/>
        <pt x="858" y="1255" on="1"/>
        <pt x="726" y="1221" on="1"/>
        <pt x="712" y="1389" on="0"/>
        <pt x="654" y="1473" on="1"/>
        <pt x="598" y="1553" on="0"/>
        <pt x="474" y="1553" on="1"/>
        <pt x="468" y="1553" on="0"/>
        <pt x="462" y="1553" on="1"/>
        <pt x="353" y="1550" on="0"/>
        <pt x="228" y="1442" on="0"/>
        <pt x="228" y="1333" on="1"/>
        <pt x="228" y="1265" on="0"/>
        <pt x="281" y="1154" on="0"/>
        <pt x="345" y="1092" on="1"/>
        <pt x="637" y="815" on="1"/>
        <pt x="750" y="707" on="0"/>
        <pt x="880" y="486" on="0"/>
        <pt x="880" y="357" on="1"/>
        <pt x="880" y="190" on="0"/>
        <pt x="701" y="-3" on="0"/>
        <pt x="550" y="-18" on="1"/>
        <pt x="550" y="-179" on="1"/>
      </contour>
    </TTGlyph>
    <TTGlyph name="dotaccent" xMin="-79" yMin="122" xMax="80" yMax="346">
      <component glyphName="uni0307" x="-22" y="-1312" flags="0x1004"/>
    </TTGlyph>
    <TTGlyph name="dotlessi" xMin="130" yMin="0" xMax="280" yMax="1184">
      <contour>
        <pt x="130" y="0" on="1"/>
        <pt x="130" y="1184" on="1"/>
        <pt x="280" y="1184" on="1"/>
        <pt x="280" y="0" on="1"/>
      </contour>
    </TTGlyph>
    <TTGlyph name="e" xMin="92" yMin="-19" xMax="721" yMax="1202">
      <contour>
        <pt x="412" y="-19" on="1"/>
        <pt x="242" y="-19" on="0"/>
        <pt x="92" y="191" on="0"/>
        <pt x="92" y="445" on="1"/>
        <pt x="92" y="744" on="1"/>
        <pt x="92" y="917" on="0"/>
        <pt x="163" y="1120" on="0"/>
        <pt x="300" y="1202" on="0"/>
        <pt x="413" y="1202" on="1"/>
        <pt x="488" y="1202" on="0"/>
        <pt x="594" y="1163" on="0"/>
        <pt x="664" y="1091" on="0"/>
        <pt x="705" y="968" on="0"/>
        <pt x="721" y="819" on="0"/>
        <pt x="721" y="714" on="1"/>
        <pt x="720" y="607" on="1"/>
        <pt x="242" y="607" on="1"/>
        <pt x="242" y="430" on="1"/>
        <pt x="242" y="246" on="0"/>
        <pt x="313" y="94" on="0"/>
        <pt x="411" y="94" on="1"/>
        <pt x="489" y="94" on="0"/>
        <pt x="573" y="193" on="0"/>
        <pt x="573" y="323" on="1"/>
        <pt x="573" y="405" on="1"/>
        <pt x="720" y="405" on="1"/>
        <pt x="720" y="339" on="1"/>
        <pt x="720" y="167" on="0"/>
        <pt x="576" y="-19" on="0"/>
      </contour>
      <contour>
        <pt x="242" y="693" on="1"/>
        <pt x="573" y="693" on="1"/>
        <pt x="573" y="791" on="1"/>
        <pt x="573" y="853" on="0"/>
        <pt x="567" y="935" on="0"/>
        <pt x="548" y="1016" on="0"/>
        <pt x="514" y="1062" on="0"/>
        <pt x="454" y="1090" on="0"/>
        <pt x="412" y="1090" on="1"/>
        <pt x="317" y="1090" on="0"/>
        <pt x="242" y="958" on="0"/>
        <pt x="242" y="773" on="1"/>
      </contour>
    </TTGlyph>
    <TTGlyph name="eacute" xMin="92" yMin="-19" xMax="721" yMax="1724">
      <component glyphName="acutecomb" x="359" y="66" flags="0x1004"/>
      <component glyphName="e" x="0" y="0" flags="0x1204"/>
    </TTGlyph>
    <TTGlyph name="ebreve" xMin="92" yMin="-19" xMax="721" yMax="1580">
      <component glyphName="uni0306" x="40" y="-78" flags="0x1004"/>
      <component glyphName="e" x="0" y="0" flags="0x1204"/>
    </TTGlyph>
    <TTGlyph name="ecaron" xMin="92" yMin="-19" xMax="721" yMax="1663">
      <component glyphName="uni030C" x="361" y="5" flags="0x1004"/>
      <component glyphName="e" x="0" y="0" flags="0x1204"/>
    </TTGlyph>
    <TTGlyph name="ecircumflex" xMin="92" yMin="-19" xMax="721" yMax="1687">
      <component glyphName="uni0302" x="72" y="29" flags="0x1004"/>
      <component glyphName="e" x="0" y="0" flags="0x1204"/>
    </TTGlyph>
    <TTGlyph name="edieresis" xMin="92" yMin="-19" xMax="721" yMax="1505">
      <component glyphName="uni0308" x="200" y="-153" flags="0x1004"/>
      <component glyphName="e" x="0" y="0" flags="0x1204"/>
    </TTGlyph>
    <TTGlyph name="edotaccent" xMin="92" yMin="-19" xMax="721" yMax="1548">
      <component glyphName="uni0307" x="384" y="-110" flags="0x1004"/>
      <component glyphName="e" x="0" y="0" flags="0x1204"/>
    </TTGlyph>
    <TTGlyph name="egrave" xMin="92" yMin="-19" xMax="721" yMax="1724">
      <component glyphName="gravecomb" x="274" y="66" flags="0x1004"/>
      <component glyphName="e" x="0" y="0" flags="0x1204"/>
    </TTGlyph>
    <TTGlyph name="eight" xMin="107" yMin="-21" xMax="887" yMax="1676">
      <contour>
        <pt x="887" y="-21" on="0"/>
        <pt x="107" y="-21" on="0"/>
        <pt x="107" y="445" on="1"/>
        <pt x="107" y="528" on="0"/>
        <pt x="137" y="662" on="0"/>
        <pt x="179" y="745" on="0"/>
        <pt x="249" y="815" on="0"/>
        <pt x="304" y="851" on="0"/>
        <pt x="345" y="871" on="1"/>
        <pt x="124" y="962" on="0"/>
        <pt x="124" y="1260" on="1"/>
        <pt x="124" y="1453" on="0"/>
        <pt x="303" y="1676" on="0"/>
        <pt x="497" y="1676" on="1"/>
        <pt x="690" y="1676" on="0"/>
        <pt x="870" y="1450" on="0"/>
        <pt x="870" y="1256" on="1"/>
        <pt x="870" y="962" on="0"/>
        <pt x="648" y="871" on="1"/>
        <pt x="689" y="850" on="0"/>
        <pt x="744" y="815" on="0"/>
        <pt x="815" y="744" on="0"/>
        <pt x="857" y="661" on="0"/>
        <pt x="887" y="528" on="0"/>
        <pt x="887" y="445" on="1"/>
      </contour>
      <contour>
        <pt x="374" y="100" on="0"/>
        <pt x="620" y="100" on="0"/>
        <pt x="740" y="269" on="0"/>
        <pt x="740" y="445" on="1"/>
        <pt x="740" y="780" on="0"/>
        <pt x="497" y="800" on="1"/>
        <pt x="253" y="780" on="0"/>
        <pt x="253" y="445" on="1"/>
        <pt x="253" y="268" on="0"/>
      </contour>
      <contour>
        <pt x="497" y="938" on="1"/>
        <pt x="722" y="948" on="0"/>
        <pt x="722" y="1261" on="1"/>
        <pt x="722" y="1555" on="0"/>
        <pt x="272" y="1555" on="0"/>
        <pt x="272" y="1261" on="1"/>
        <pt x="272" y="948" on="0"/>
      </contour>
    </TTGlyph>
    <TTGlyph name="ellipsis" xMin="110" yMin="0" xMax="997" yMax="225">
      <contour>
        <pt x="110" y="0" on="1"/>
        <pt x="110" y="225" on="1"/>
        <pt x="269" y="225" on="1"/>
        <pt x="269" y="0" on="1"/>
      </contour>
      <contour>
        <pt x="474" y="0" on="1"/>
        <pt x="474" y="225" on="1"/>
        <pt x="633" y="225" on="1"/>
        <pt x="633" y="0" on="1"/>
      </contour>
      <contour>
        <pt x="838" y="0" on="1"/>
        <pt x="838" y="225" on="1"/>
        <pt x="997" y="225" on="1"/>
        <pt x="997" y="0" on="1"/>
      </contour>
    </TTGlyph>
    <TTGlyph name="emacron" xMin="92" yMin="-19" xMax="721" yMax="1420">
      <component glyphName="uni0304" x="45" y="-238" flags="0x1004"/>
      <component glyphName="e" x="0" y="0" flags="0x1204"/>
    </TTGlyph>
    <TTGlyph name="emdash" xMin="83" yMin="504" xMax="1626" yMax="624">
      <contour>
        <pt x="83" y="504" on="1"/>
        <pt x="83" y="624" on="1"/>
        <pt x="1626" y="624" on="1"/>
        <pt x="1626" y="504" on="1"/>
      </contour>
    </TTGlyph>
    <TTGlyph name="endash" xMin="83" yMin="430" xMax="893" yMax="554">
      <contour>
        <pt x="83" y="430" on="1"/>
        <pt x="83" y="554" on="1"/>
        <pt x="893" y="554" on="1"/>
        <pt x="893" y="430" on="1"/>
      </contour>
    </TTGlyph>
    <TTGlyph name="eng" xMin="103" yMin="-341" xMax="720" yMax="1202">
      <contour>
        <pt x="328" y="-341" on="1"/>
        <pt x="328" y="-224" on="1"/>
        <pt x="403" y="-224" on="0"/>
        <pt x="500" y="-197" on="0"/>
        <pt x="551" y="-138" on="0"/>
        <pt x="570" y="-65" on="0"/>
        <pt x="570" y="-10" on="1"/>
        <pt x="570" y="918" on="1"/>
        <pt x="570" y="1008" on="0"/>
        <pt x="515" y="1084" on="0"/>
        <pt x="457" y="1084" on="1"/>
        <pt x="360" y="1084" on="0"/>
        <pt x="253" y="975" on="1"/>
        <pt x="253" y="0" on="1"/>
        <pt x="103" y="0" on="1"/>
        <pt x="103" y="1184" on="1"/>
        <pt x="253" y="1184" on="1"/>
        <pt x="253" y="1061" on="1"/>
        <pt x="384" y="1202" on="0"/>
        <pt x="538" y="1202" on="1"/>
        <pt x="626" y="1202" on="0"/>
        <pt x="720" y="1071" on="0"/>
        <pt x="720" y="950" on="1"/>
        <pt x="720" y="-12" on="1"/>
        <pt x="720" y="-100" on="0"/>
        <pt x="666" y="-231" on="0"/>
        <pt x="568" y="-306" on="0"/>
        <pt x="445" y="-341" on="0"/>
        <pt x="369" y="-341" on="1"/>
      </contour>
    </TTGlyph>
    <TTGlyph name="eogonek" xMin="92" yMin="-429" xMax="721" yMax="1202">
      <component glyphName="ogonek" x="200" y="0" flags="0x1004"/>
      <component glyphName="e" x="0" y="0" flags="0x1204"/>
    </TTGlyph>
    <TTGlyph name="equal" xMin="104" yMin="584" xMax="716" yMax="1047">
      <contour>
        <pt x="104" y="584" on="1"/>
        <pt x="104" y="703" on="1"/>
        <pt x="716" y="703" on="1"/>
        <pt x="716" y="584" on="1"/>
      </contour>
      <contour>
        <pt x="104" y="927" on="1"/>
        <pt x="104" y="1047" on="1"/>
        <pt x="716" y="1047" on="1"/>
        <pt x="716" y="927" on="1"/>
      </contour>
    </TTGlyph>
</ttFont>
